SplineFontDB: 3.0
FontName: CavalcadeMono
FullName: Cavalcade Mono
FamilyName: Cavalcade Mono
Weight: Bold
Copyright: Copyright 2015 Google Inc. All Rights Reserved.\n\nModifiations by Samuel S. Watson, 2019
Version: 1
ItalicAngle: 0
UnderlinePosition: -125
UnderlineWidth: 50
Ascent: 800
Descent: 200
InvalidEm: 0
sfntRevision: 0x00020000
LayerCount: 2
Layer: 0 1 "Back" 1
Layer: 1 1 "Fore" 0
XUID: [1021 504 1097528808 11610094]
UseXUID: 1
StyleMap: 0x0040
FSType: 0
OS2Version: 4
OS2_WeightWidthSlopeOnly: 1
OS2_UseTypoMetrics: 0
CreationTime: 1435678095
ModificationTime: 1552162024
PfmFamily: 17
TTFWeight: 600
TTFWidth: 5
LineGap: 0
VLineGap: 0
Panose: 2 11 7 9 4 5 4 2 2 4
OS2TypoAscent: 1069
OS2TypoAOffset: 0
OS2TypoDescent: -293
OS2TypoDOffset: 0
OS2TypoLinegap: 0
OS2WinAscent: 1069
OS2WinAOffset: 0
OS2WinDescent: 293
OS2WinDOffset: 0
HheadAscent: 1069
HheadAOffset: 0
HheadDescent: -293
HheadDOffset: 0
OS2SubXSize: 650
OS2SubYSize: 600
OS2SubXOff: 0
OS2SubYOff: 75
OS2SupXSize: 650
OS2SupYSize: 600
OS2SupXOff: 0
OS2SupYOff: 350
OS2StrikeYSize: 50
OS2StrikeYPos: 322
OS2CapHeight: 714
OS2XHeight: 536
OS2Vendor: 'GOOG'
OS2CodePages: 00000000.00000000
OS2UnicodeRanges: e00002ff.400038df.08000029.00100000
Lookup: 1 0 0 "'aalt' Access All Alternates lookup 0" { "'aalt' Access All Alternates lookup 0 subtable"  } ['aalt' ('DFLT' <'dflt' > 'cyrl' <'SRB ' 'dflt' > 'grek' <'dflt' > 'latn' <'CAT ' 'MAH ' 'MOL ' 'NAV ' 'ROM ' 'dflt' > ) ]
Lookup: 3 0 0 "'aalt' Access All Alternates lookup 1" { "'aalt' Access All Alternates lookup 1 subtable"  } ['aalt' ('DFLT' <'dflt' > 'cyrl' <'SRB ' 'dflt' > 'grek' <'dflt' > 'latn' <'CAT ' 'MAH ' 'MOL ' 'NAV ' 'ROM ' 'dflt' > ) ]
Lookup: 4 0 0 "'ccmp' Glyph Composition/Decomposition lookup 2" { "'ccmp' Glyph Composition/Decomposition lookup 2 subtable"  } ['ccmp' ('DFLT' <'dflt' > 'cyrl' <'SRB ' 'dflt' > 'grek' <'dflt' > 'latn' <'CAT ' 'MAH ' 'MOL ' 'NAV ' 'ROM ' 'dflt' > ) ]

StartChar: .notdef
Encoding: 65536 -1 0
Width: 600
Flags: W
LayerCount: 2
Fore
SplineSet
94 0 m 1,0,-1
 94 714 l 1,1,-1
 505 714 l 1,2,-1
 505 0 l 1,3,-1
 94 0 l 1,0,-1
145 51 m 1,4,-1
 454 51 l 1,5,-1
 454 663 l 1,6,-1
 145 663 l 1,7,-1
 145 51 l 1,4,-1
EndSplineSet
Validated: 1
EndChar

StartChar: exclam
Encoding: 33 33 4
Width: 600
Flags: W
LayerCount: 2
Fore
SplineSet
246 224 m 1,0,-1
 227 714 l 1,1,-1
 374 714 l 1,2,-1
 355 224 l 1,3,-1
 246 224 l 1,0,-1
300 -10 m 0,4,5
 263 -10 263 -10 241.5 10 c 128,-1,6
 220 30 220 30 220 70 c 0,7,8
 220 111 220 111 241 131 c 128,-1,9
 262 151 262 151 300 151 c 0,10,11
 336 151 336 151 357.5 130.5 c 128,-1,12
 379 110 379 110 379 70 c 0,13,14
 379 32 379 32 357.5 11 c 128,-1,15
 336 -10 336 -10 300 -10 c 0,4,5
EndSplineSet
Validated: 1
Substitution2: "'smcp' Lowercase to Small Capitals lookup 33 subtable" exclam.sc
Substitution2: "'c2sc' Capitals to Small Capitals lookup 32 subtable" exclam.sc
Substitution2: "'aalt' Access All Alternates lookup 0 subtable" exclam.sc
EndChar

StartChar: quotedbl
Encoding: 34 34 5
Width: 600
Flags: W
LayerCount: 2
Fore
SplineSet
356 456 m 1,0,-1
 336 714 l 1,1,-1
 459 714 l 1,2,-1
 439 456 l 1,3,-1
 356 456 l 1,0,-1
161 456 m 1,4,-1
 141 714 l 1,5,-1
 264 714 l 1,6,-1
 244 456 l 1,7,-1
 161 456 l 1,4,-1
EndSplineSet
Validated: 1
EndChar

StartChar: numbersign
Encoding: 35 35 6
Width: 600
Flags: W
LayerCount: 2
Fore
SplineSet
100 0 m 1,0,-1
 133 203 l 1,1,-1
 17 203 l 1,2,-1
 17 290 l 1,3,-1
 148 290 l 1,4,-1
 173 425 l 1,5,-1
 49 425 l 1,6,-1
 49 511 l 1,7,-1
 187 511 l 1,8,-1
 222 714 l 1,9,-1
 312 714 l 1,10,-1
 277 511 l 1,11,-1
 378 511 l 1,12,-1
 413 714 l 1,13,-1
 501 714 l 1,14,-1
 466 511 l 1,15,-1
 583 511 l 1,16,-1
 583 425 l 1,17,-1
 451 425 l 1,18,-1
 427 290 l 1,19,-1
 552 290 l 1,20,-1
 552 203 l 1,21,-1
 413 203 l 1,22,-1
 377 0 l 1,23,-1
 286 0 l 1,24,-1
 322 203 l 1,25,-1
 222 203 l 1,26,-1
 188 0 l 1,27,-1
 100 0 l 1,0,-1
238 290 m 1,28,-1
 338 290 l 1,29,-1
 362 425 l 1,30,-1
 262 425 l 1,31,-1
 238 290 l 1,28,-1
EndSplineSet
Validated: 1
EndChar

StartChar: dollar
Encoding: 36 36 7
Width: 600
Flags: W
LayerCount: 2
Fore
SplineSet
267 -58 m 1,0,-1
 267 35 l 1,1,2
 158 37 158 37 84 72 c 1,3,-1
 84 181 l 1,4,5
 120 162 120 162 170 147 c 128,-1,6
 220 132 220 132 267 130 c 1,7,-1
 267 319 l 1,8,9
 170 354 170 354 125.5 396 c 128,-1,10
 81 438 81 438 81 510 c 0,11,12
 81 590 81 590 132.5 635 c 128,-1,13
 184 680 184 680 267 688 c 1,14,-1
 267 759 l 1,15,-1
 332 759 l 1,16,-1
 332 689 l 1,17,18
 380 688 380 688 423 677 c 128,-1,19
 466 666 466 666 505 649 c 1,20,-1
 471 554 l 1,21,22
 438 569 438 569 402 578 c 128,-1,23
 366 587 366 587 332 590 c 1,24,-1
 332 408 l 1,25,26
 390 388 390 388 432 365 c 128,-1,27
 474 342 474 342 497 308 c 128,-1,28
 520 274 520 274 520 221 c 0,29,30
 520 148 520 148 472 98.5 c 128,-1,31
 424 49 424 49 332 37 c 1,32,-1
 332 -58 l 1,33,-1
 267 -58 l 1,0,-1
267 433 m 1,34,-1
 267 589 l 1,35,36
 192 582 192 582 192 513 c 0,37,38
 192 484 192 484 209 465.5 c 128,-1,39
 226 447 226 447 267 433 c 1,34,-1
332 136 m 1,40,41
 410 148 410 148 410 216 c 0,42,43
 410 247 410 247 392 263 c 128,-1,44
 374 279 374 279 332 295 c 1,45,-1
 332 136 l 1,40,41
EndSplineSet
Validated: 1
EndChar

StartChar: percent
Encoding: 37 37 8
Width: 600
Flags: W
LayerCount: 2
Fore
SplineSet
142 383 m 0,0,1
 78 383 78 383 39 427 c 128,-1,2
 0 471 0 471 0 551 c 0,3,4
 0 634 0 634 38.5 678 c 128,-1,5
 77 722 77 722 143 722 c 256,6,7
 209 722 209 722 247.5 678 c 128,-1,8
 286 634 286 634 286 551 c 0,9,10
 286 471 286 471 248 427 c 128,-1,11
 210 383 210 383 142 383 c 0,0,1
68 0 m 1,12,-1
 430 714 l 1,13,-1
 525 714 l 1,14,-1
 164 0 l 1,15,-1
 68 0 l 1,12,-1
144 458 m 0,16,17
 197 458 197 458 197 551 c 0,18,19
 197 601 197 601 183.5 624 c 128,-1,20
 170 647 170 647 144 647 c 0,21,22
 116 647 116 647 102.5 624 c 128,-1,23
 89 601 89 601 89 551 c 0,24,25
 89 458 89 458 144 458 c 0,16,17
456 -9 m 0,26,27
 392 -9 392 -9 353 35 c 128,-1,28
 314 79 314 79 314 159 c 0,29,30
 314 242 314 242 352.5 286 c 128,-1,31
 391 330 391 330 457 330 c 256,32,33
 523 330 523 330 561.5 286 c 128,-1,34
 600 242 600 242 600 159 c 0,35,36
 600 79 600 79 562 35 c 128,-1,37
 524 -9 524 -9 456 -9 c 0,26,27
458 66 m 0,38,39
 511 66 511 66 511 159 c 0,40,41
 511 209 511 209 497.5 232 c 128,-1,42
 484 255 484 255 458 255 c 0,43,44
 430 255 430 255 416.5 232 c 128,-1,45
 403 209 403 209 403 159 c 0,46,47
 403 66 403 66 458 66 c 0,38,39
EndSplineSet
Validated: 1
EndChar

StartChar: ampersand
Encoding: 38 38 9
Width: 600
Flags: W
LayerCount: 2
Fore
SplineSet
220 -10 m 0,0,1
 126 -10 126 -10 79.5 43.5 c 128,-1,2
 33 97 33 97 33 178 c 0,3,4
 33 244 33 244 65.5 294.5 c 128,-1,5
 98 345 98 345 155 391 c 1,6,7
 132 424 132 424 112 467 c 128,-1,8
 92 510 92 510 92 563 c 0,9,10
 92 637 92 637 134 680.5 c 128,-1,11
 176 724 176 724 248 724 c 0,12,13
 324 724 324 724 366.5 682 c 128,-1,14
 409 640 409 640 409 570 c 0,15,16
 409 515 409 515 376.5 467 c 128,-1,17
 344 419 344 419 293 374 c 1,18,-1
 402 234 l 1,19,20
 417 268 417 268 427 302 c 128,-1,21
 437 336 437 336 442 366 c 1,22,-1
 553 366 l 1,23,24
 544 308 544 308 524 250 c 128,-1,25
 504 192 504 192 473 142 c 1,26,-1
 583 0 l 1,27,-1
 445 0 l 1,28,-1
 401 59 l 1,29,30
 365 27 365 27 319.5 8.5 c 128,-1,31
 274 -10 274 -10 220 -10 c 0,0,1
197 567 m 0,32,33
 197 533 197 533 209 504 c 128,-1,34
 221 475 221 475 235 453 c 1,35,36
 263 476 263 476 284.5 505 c 128,-1,37
 306 534 306 534 306 571 c 0,38,39
 306 603 306 603 291.5 620 c 128,-1,40
 277 637 277 637 253 637 c 0,41,42
 228 637 228 637 212.5 619.5 c 128,-1,43
 197 602 197 602 197 567 c 0,32,33
146 185 m 0,44,45
 146 148 146 148 168.5 120 c 128,-1,46
 191 92 191 92 233 92 c 0,47,48
 264 92 264 92 291 105.5 c 128,-1,49
 318 119 318 119 340 141 c 1,50,-1
 215 309 l 1,51,52
 184 282 184 282 165 253 c 128,-1,53
 146 224 146 224 146 185 c 0,44,45
EndSplineSet
Validated: 1
Substitution2: "'smcp' Lowercase to Small Capitals lookup 33 subtable" ampersand.sc
Substitution2: "'c2sc' Capitals to Small Capitals lookup 32 subtable" ampersand.sc
Substitution2: "'aalt' Access All Alternates lookup 0 subtable" ampersand.sc
EndChar

StartChar: quotesingle
Encoding: 39 39 10
Width: 600
Flags: W
LayerCount: 2
Fore
SplineSet
258 456 m 1,0,-1
 238 714 l 1,1,-1
 361 714 l 1,2,-1
 341 456 l 1,3,-1
 258 456 l 1,0,-1
EndSplineSet
Validated: 1
EndChar

StartChar: parenleft
Encoding: 40 40 11
Width: 600
Flags: W
LayerCount: 2
Fore
SplineSet
337 -162 m 1,0,1
 266 -75 266 -75 230 36.5 c 128,-1,2
 194 148 194 148 194 272 c 0,3,4
 194 399 194 399 230 512 c 128,-1,5
 266 625 266 625 337 714 c 1,6,-1
 442 714 l 1,7,8
 374 620 374 620 340 507 c 128,-1,9
 306 394 306 394 306 273 c 0,10,11
 306 155 306 155 340.5 44 c 128,-1,12
 375 -67 375 -67 441 -162 c 1,13,-1
 337 -162 l 1,0,1
EndSplineSet
Validated: 1
Substitution2: "'smcp' Lowercase to Small Capitals lookup 33 subtable" parenleft.sc
Substitution2: "'c2sc' Capitals to Small Capitals lookup 32 subtable" parenleft.sc
Substitution2: "'sups' Superscript lookup 21 subtable" uni207D
Substitution2: "'subs' Subscript lookup 20 subtable" uni208D
AlternateSubs2: "'aalt' Access All Alternates lookup 1 subtable" uni208D uni207D parenleft.sc
EndChar

StartChar: asterisk
Encoding: 42 42 13
Width: 600
Flags: W
LayerCount: 2
Fore
SplineSet
387 124 m 1,0,-1
 308 272 l 1,1,-1
 231 125 l 1,2,-1
 144 178 l 1,3,-1
 245 308 l 1,4,-1
 90 329 l 1,5,-1
 110 422 l 1,6,-1
 271 381 l 1,7,-1
 258 550 l 1,8,-1
 360 550 l 1,9,-1
 347 380 l 1,10,-1
 510 425 l 1,11,-1
 529 326 l 1,12,-1
 375 308 l 1,13,-1
 476 178 l 1,14,-1
 387 124 l 1,0,-1
EndSplineSet
Validated: 1
EndChar

StartChar: plus
Encoding: 43 43 14
Width: 600
Flags: W
LayerCount: 2
Fore
SplineSet
254 119 m 1,0,-1
 254 306 l 1,1,-1
 74 306 l 1,2,-1
 74 399 l 1,3,-1
 254 399 l 1,4,-1
 254 589 l 1,5,-1
 348 589 l 1,6,-1
 348 399 l 1,7,-1
 526 399 l 1,8,-1
 526 306 l 1,9,-1
 348 306 l 1,10,-1
 348 119 l 1,11,-1
 254 119 l 1,0,-1
EndSplineSet
Validated: 1
Substitution2: "'sups' Superscript lookup 21 subtable" uni207A
Substitution2: "'subs' Subscript lookup 20 subtable" uni208A
AlternateSubs2: "'aalt' Access All Alternates lookup 1 subtable" uni208A uni207A
EndChar

StartChar: comma
Encoding: 44 44 15
Width: 600
Flags: W
LayerCount: 2
Fore
SplineSet
200 -150 m 1,0,1
 210 -106 210 -106 220.5 -55 c 128,-1,2
 231 -4 231 -4 239.5 45.5 c 128,-1,3
 248 95 248 95 254 133 c 1,4,-1
 380 133 l 1,5,-1
 387 122 l 1,6,7
 378 86 378 86 364 39 c 128,-1,8
 350 -8 350 -8 332 -57.5 c 128,-1,9
 314 -107 314 -107 295 -150 c 1,10,-1
 200 -150 l 1,0,1
EndSplineSet
Validated: 1
EndChar

StartChar: hyphen
Encoding: 45 45 16
Width: 600
Flags: W
LayerCount: 2
Fore
SplineSet
150 214 m 1,0,-1
 150 322 l 1,1,-1
 450 322 l 1,2,-1
 450 214 l 1,3,-1
 150 214 l 1,0,-1
EndSplineSet
Validated: 1
EndChar

StartChar: period
Encoding: 46 46 17
Width: 600
Flags: W
LayerCount: 2
Fore
SplineSet
300 -10 m 0,0,1
 263 -10 263 -10 241.5 10 c 128,-1,2
 220 30 220 30 220 70 c 0,3,4
 220 111 220 111 241 131 c 128,-1,5
 262 151 262 151 300 151 c 0,6,7
 336 151 336 151 357.5 130.5 c 128,-1,8
 379 110 379 110 379 70 c 0,9,10
 379 32 379 32 357.5 11 c 128,-1,11
 336 -10 336 -10 300 -10 c 0,0,1
EndSplineSet
Validated: 1
EndChar

StartChar: slash
Encoding: 47 47 18
Width: 600
Flags: W
LayerCount: 2
Fore
SplineSet
108 -2 m 1,0,-1
 382 716 l 1,1,-1
 492 716 l 1,2,-1
 218 -2 l 1,3,-1
 108 -2 l 1,0,-1
EndSplineSet
Validated: 1
Substitution2: "'frac' Diagonal Fractions lookup 24 subtable" fraction
Substitution2: "'aalt' Access All Alternates lookup 0 subtable" fraction
EndChar

StartChar: zero
Encoding: 48 48 19
Width: 600
Flags: W
LayerCount: 2
Fore
SplineSet
301 -10 m 0,0,1
 173 -10 173 -10 113.5 86 c 128,-1,2
 54 182 54 182 54 360 c 0,3,4
 54 536 54 536 112 630 c 128,-1,5
 170 724 170 724 298 724 c 256,6,7
 426 724 426 724 486 628 c 128,-1,8
 546 532 546 532 546 354 c 0,9,10
 546 244 546 244 522 162 c 128,-1,11
 498 80 498 80 444.5 35 c 128,-1,12
 391 -10 391 -10 301 -10 c 0,0,1
173 354 m 0,13,14
 173 296 173 296 178 253 c 1,15,-1
 377 584 l 1,16,17
 347 619 347 619 299 619 c 0,18,19
 230 619 230 619 201.5 552 c 128,-1,20
 173 485 173 485 173 354 c 0,13,14
299 93 m 0,21,22
 369 93 369 93 398 157.5 c 128,-1,23
 427 222 427 222 427 353 c 0,24,25
 427 424 427 424 419 475 c 1,26,-1
 214 136 l 1,27,28
 244 93 244 93 299 93 c 0,21,22
EndSplineSet
Validated: 1
Substitution2: "'zero' Slashed Zero lookup 36 subtable" zero.slash
Substitution2: "'onum' Oldstyle Figures lookup 31 subtable" zero.osf
Substitution2: "'frac' Diagonal Fractions lookup 25 subtable" zero.numr
Substitution2: "'dnom' Denominators lookup 23 subtable" zero.dnom
Substitution2: "'numr' Numerators lookup 22 subtable" zero.numr
Substitution2: "'sups' Superscript lookup 21 subtable" uni2070
Substitution2: "'subs' Subscript lookup 20 subtable" uni2080
AlternateSubs2: "'aalt' Access All Alternates lookup 1 subtable" uni2070 zero.osf zero.dnom zero.numr uni2080
EndChar

StartChar: one
Encoding: 49 49 20
Width: 600
Flags: W
LayerCount: 2
Fore
SplineSet
121 0 m 1,0,-1
 121 86 l 1,1,-1
 263 99 l 1,2,-1
 263 425 l 2,3,4
 263 466 263 466 264 506 c 128,-1,5
 265 546 265 546 267 580 c 1,6,7
 251 571 251 571 237.5 563 c 128,-1,8
 224 555 224 555 208 547 c 2,9,-1
 134 508 l 1,10,-1
 79 606 l 1,11,-1
 285 714 l 1,12,-1
 386 714 l 1,13,-1
 386 99 l 1,14,-1
 526 86 l 1,15,-1
 526 0 l 1,16,-1
 121 0 l 1,0,-1
EndSplineSet
Validated: 1
Substitution2: "'onum' Oldstyle Figures lookup 31 subtable" one.osf
Substitution2: "'frac' Diagonal Fractions lookup 25 subtable" one.numr
Substitution2: "'dnom' Denominators lookup 23 subtable" one.dnom
Substitution2: "'numr' Numerators lookup 22 subtable" one.numr
Substitution2: "'sups' Superscript lookup 21 subtable" uni00B9
Substitution2: "'subs' Subscript lookup 20 subtable" uni2081
AlternateSubs2: "'aalt' Access All Alternates lookup 1 subtable" uni00B9 one.osf one.dnom one.numr uni2081
EndChar

StartChar: two
Encoding: 50 50 21
Width: 600
Flags: W
LayerCount: 2
Fore
SplineSet
62 0 m 1,0,-1
 62 94 l 1,1,-1
 242 273 l 2,2,3
 287 318 287 318 322 357 c 128,-1,4
 357 396 357 396 377 434 c 128,-1,5
 397 472 397 472 397 514 c 0,6,7
 397 565 397 565 368 590.5 c 128,-1,8
 339 616 339 616 294 616 c 0,9,10
 251 616 251 616 212.5 597.5 c 128,-1,11
 174 579 174 579 133 545 c 1,12,-1
 63 629 l 1,13,14
 115 673 115 673 168.5 698.5 c 128,-1,15
 222 724 222 724 302 724 c 0,16,17
 406 724 406 724 465.5 669.5 c 128,-1,18
 525 615 525 615 525 526 c 0,19,20
 525 466 525 466 500.5 415 c 128,-1,21
 476 364 476 364 433.5 317 c 128,-1,22
 391 270 391 270 338 222 c 2,23,-1
 223 115 l 1,24,-1
 223 107 l 1,25,-1
 551 107 l 1,26,-1
 551 0 l 1,27,-1
 62 0 l 1,0,-1
EndSplineSet
Validated: 1
Substitution2: "'onum' Oldstyle Figures lookup 31 subtable" two.osf
Substitution2: "'frac' Diagonal Fractions lookup 25 subtable" two.numr
Substitution2: "'dnom' Denominators lookup 23 subtable" two.dnom
Substitution2: "'numr' Numerators lookup 22 subtable" two.numr
Substitution2: "'sups' Superscript lookup 21 subtable" uni00B2
Substitution2: "'subs' Subscript lookup 20 subtable" uni2082
AlternateSubs2: "'aalt' Access All Alternates lookup 1 subtable" uni00B2 two.osf two.dnom two.numr uni2082
EndChar

StartChar: three
Encoding: 51 51 22
Width: 600
Flags: W
LayerCount: 2
Fore
SplineSet
268 -10 m 0,0,1
 222 -10 222 -10 170 -1 c 128,-1,2
 118 8 118 8 72 29 c 1,3,-1
 72 141 l 1,4,5
 116 119 116 119 167.5 107.5 c 128,-1,6
 219 96 219 96 264 96 c 0,7,8
 336 96 336 96 370.5 126.5 c 128,-1,9
 405 157 405 157 405 210 c 0,10,11
 405 268 405 268 364.5 292.5 c 128,-1,12
 324 317 324 317 238 317 c 2,13,-1
 177 317 l 1,14,-1
 177 419 l 1,15,-1
 239 419 l 2,16,17
 316 419 316 419 353 448 c 128,-1,18
 390 477 390 477 390 528 c 0,19,20
 390 567 390 567 366 592 c 128,-1,21
 342 617 342 617 289 617 c 0,22,23
 250 617 250 617 210 603 c 128,-1,24
 170 589 170 589 129 565 c 1,25,-1
 72 653 l 1,26,27
 118 685 118 685 175 704.5 c 128,-1,28
 232 724 232 724 296 724 c 0,29,30
 358 724 358 724 406 704.5 c 128,-1,31
 454 685 454 685 482 646.5 c 128,-1,32
 510 608 510 608 510 551 c 0,33,34
 510 485 510 485 472 438 c 128,-1,35
 434 391 434 391 367 376 c 1,36,-1
 367 373 l 1,37,38
 451 361 451 361 491 318.5 c 128,-1,39
 531 276 531 276 531 204 c 0,40,41
 531 99 531 99 459.5 44.5 c 128,-1,42
 388 -10 388 -10 268 -10 c 0,0,1
EndSplineSet
Validated: 1
Substitution2: "'onum' Oldstyle Figures lookup 31 subtable" three.osf
Substitution2: "'frac' Diagonal Fractions lookup 25 subtable" three.numr
Substitution2: "'dnom' Denominators lookup 23 subtable" three.dnom
Substitution2: "'numr' Numerators lookup 22 subtable" three.numr
Substitution2: "'sups' Superscript lookup 21 subtable" uni00B3
Substitution2: "'subs' Subscript lookup 20 subtable" uni2083
AlternateSubs2: "'aalt' Access All Alternates lookup 1 subtable" uni00B3 three.osf three.dnom three.numr uni2083
EndChar

StartChar: four
Encoding: 52 52 23
Width: 600
Flags: W
LayerCount: 2
Fore
SplineSet
341 0 m 1,0,-1
 341 153 l 1,1,-1
 44 153 l 1,2,-1
 44 246 l 1,3,-1
 337 716 l 1,4,-1
 460 716 l 1,5,-1
 460 254 l 1,6,-1
 556 254 l 1,7,-1
 556 153 l 1,8,-1
 460 153 l 1,9,-1
 460 0 l 1,10,-1
 341 0 l 1,0,-1
159 254 m 1,11,-1
 341 254 l 1,12,-1
 341 397 l 2,13,14
 341 414 341 414 342 440 c 128,-1,15
 343 466 343 466 344 493 c 128,-1,16
 345 520 345 520 346 541.5 c 128,-1,17
 347 563 347 563 348 572 c 1,18,-1
 344 572 l 1,19,20
 336 552 336 552 324 530.5 c 128,-1,21
 312 509 312 509 301 490 c 2,22,-1
 159 254 l 1,11,-1
EndSplineSet
Validated: 1
Substitution2: "'onum' Oldstyle Figures lookup 31 subtable" four.osf
Substitution2: "'frac' Diagonal Fractions lookup 25 subtable" four.numr
Substitution2: "'dnom' Denominators lookup 23 subtable" four.dnom
Substitution2: "'numr' Numerators lookup 22 subtable" four.numr
Substitution2: "'sups' Superscript lookup 21 subtable" uni2074
Substitution2: "'subs' Subscript lookup 20 subtable" uni2084
AlternateSubs2: "'aalt' Access All Alternates lookup 1 subtable" uni2074 four.osf four.dnom four.numr uni2084
EndChar

StartChar: five
Encoding: 53 53 24
Width: 600
Flags: W
LayerCount: 2
Fore
SplineSet
255 -10 m 0,0,1
 208 -10 208 -10 160.5 0 c 128,-1,2
 113 10 113 10 78 29 c 1,3,-1
 78 142 l 1,4,5
 118 120 118 120 164 109 c 128,-1,6
 210 98 210 98 253 98 c 0,7,8
 321 98 321 98 357 128 c 128,-1,9
 393 158 393 158 393 219 c 0,10,11
 393 287 393 287 353.5 317.5 c 128,-1,12
 314 348 314 348 255 348 c 0,13,14
 226 348 226 348 196 343 c 128,-1,15
 166 338 166 338 145 331 c 1,16,-1
 91 361 l 1,17,-1
 118 714 l 1,18,-1
 483 714 l 1,19,-1
 483 607 l 1,20,-1
 228 607 l 1,21,-1
 214 439 l 1,22,23
 236 444 236 444 260 446 c 128,-1,24
 284 448 284 448 301 448 c 0,25,26
 364 448 364 448 414 423 c 128,-1,27
 464 398 464 398 493.5 349 c 128,-1,28
 523 300 523 300 523 227 c 0,29,30
 523 150 523 150 489 97.5 c 128,-1,31
 455 45 455 45 394.5 17.5 c 128,-1,32
 334 -10 334 -10 255 -10 c 0,0,1
EndSplineSet
Validated: 1
Substitution2: "'onum' Oldstyle Figures lookup 31 subtable" five.osf
Substitution2: "'frac' Diagonal Fractions lookup 25 subtable" five.numr
Substitution2: "'dnom' Denominators lookup 23 subtable" five.dnom
Substitution2: "'numr' Numerators lookup 22 subtable" five.numr
Substitution2: "'sups' Superscript lookup 21 subtable" uni2075
Substitution2: "'subs' Subscript lookup 20 subtable" uni2085
AlternateSubs2: "'aalt' Access All Alternates lookup 1 subtable" uni2075 five.osf five.dnom five.numr uni2085
EndChar

StartChar: six
Encoding: 54 54 25
Width: 600
Flags: W
LayerCount: 2
Fore
SplineSet
309 -11 m 0,0,1
 194 -11 194 -11 125.5 72.5 c 128,-1,2
 57 156 57 156 57 319 c 0,3,4
 57 438 57 438 91 529.5 c 128,-1,5
 125 621 125 621 201 672 c 128,-1,6
 277 723 277 723 404 723 c 0,7,8
 425 723 425 723 449 721 c 128,-1,9
 473 719 473 719 490 715 c 1,10,-1
 490 610 l 1,11,12
 448 621 448 621 401 621 c 0,13,14
 323 621 323 621 275.5 591 c 128,-1,15
 228 561 228 561 205 505.5 c 128,-1,16
 182 450 182 450 177 375 c 1,17,-1
 183 375 l 1,18,19
 206 415 206 415 244.5 437 c 128,-1,20
 283 459 283 459 341 459 c 0,21,22
 437 459 437 459 490 399 c 128,-1,23
 543 339 543 339 543 235 c 0,24,25
 543 121 543 121 480.5 55 c 128,-1,26
 418 -11 418 -11 309 -11 c 0,0,1
306 97 m 0,27,28
 358 97 358 97 389 130 c 128,-1,29
 420 163 420 163 420 234 c 0,30,31
 420 295 420 295 392 328 c 128,-1,32
 364 361 364 361 309 361 c 0,33,34
 256 361 256 361 220 325.5 c 128,-1,35
 184 290 184 290 184 236 c 0,36,37
 184 180 184 180 216 138.5 c 128,-1,38
 248 97 248 97 306 97 c 0,27,28
EndSplineSet
Validated: 1
Substitution2: "'onum' Oldstyle Figures lookup 31 subtable" six.osf
Substitution2: "'frac' Diagonal Fractions lookup 25 subtable" six.numr
Substitution2: "'dnom' Denominators lookup 23 subtable" six.dnom
Substitution2: "'numr' Numerators lookup 22 subtable" six.numr
Substitution2: "'sups' Superscript lookup 21 subtable" uni2076
Substitution2: "'subs' Subscript lookup 20 subtable" uni2086
AlternateSubs2: "'aalt' Access All Alternates lookup 1 subtable" uni2076 six.osf six.dnom six.numr uni2086
EndChar

StartChar: seven
Encoding: 55 55 26
Width: 600
Flags: W
LayerCount: 2
Fore
SplineSet
142 0 m 1,0,-1
 412 607 l 1,1,-1
 54 607 l 1,2,-1
 54 713 l 1,3,-1
 546 713 l 1,4,-1
 546 627 l 1,5,-1
 276 0 l 1,6,-1
 142 0 l 1,0,-1
EndSplineSet
Validated: 1
Substitution2: "'onum' Oldstyle Figures lookup 31 subtable" seven.osf
Substitution2: "'frac' Diagonal Fractions lookup 25 subtable" seven.numr
Substitution2: "'dnom' Denominators lookup 23 subtable" seven.dnom
Substitution2: "'numr' Numerators lookup 22 subtable" seven.numr
Substitution2: "'sups' Superscript lookup 21 subtable" uni2077
Substitution2: "'subs' Subscript lookup 20 subtable" uni2087
AlternateSubs2: "'aalt' Access All Alternates lookup 1 subtable" uni2077 seven.osf seven.dnom seven.numr uni2087
EndChar

StartChar: eight
Encoding: 56 56 27
Width: 600
Flags: W
LayerCount: 2
Fore
SplineSet
298 -10 m 0,0,1
 229 -10 229 -10 175.5 11 c 128,-1,2
 122 32 122 32 92 74.5 c 128,-1,3
 62 117 62 117 62 180 c 0,4,5
 62 247 62 247 97 294 c 128,-1,6
 132 341 132 341 197 373 c 1,7,8
 143 408 143 408 114 452 c 128,-1,9
 85 496 85 496 85 553 c 0,10,11
 85 609 85 609 115 647 c 128,-1,12
 145 685 145 685 194 704 c 128,-1,13
 243 723 243 723 300 723 c 0,14,15
 358 723 358 723 407 704 c 128,-1,16
 456 685 456 685 485.5 647 c 128,-1,17
 515 609 515 609 515 552 c 0,18,19
 515 493 515 493 483 450.5 c 128,-1,20
 451 408 451 408 390 377 c 1,21,22
 461 338 461 338 499 291.5 c 128,-1,23
 537 245 537 245 537 183 c 0,24,25
 537 122 537 122 506 79 c 128,-1,26
 475 36 475 36 420.5 13 c 128,-1,27
 366 -10 366 -10 298 -10 c 0,0,1
300 430 m 1,28,29
 346 452 346 452 370 478.5 c 128,-1,30
 394 505 394 505 394 543 c 0,31,32
 394 580 394 580 368 601 c 128,-1,33
 342 622 342 622 299 622 c 0,34,35
 257 622 257 622 231.5 601 c 128,-1,36
 206 580 206 580 206 543 c 0,37,38
 206 500 206 500 233.5 475 c 128,-1,39
 261 450 261 450 300 430 c 1,28,29
298 90 m 0,40,41
 357 90 357 90 387 117.5 c 128,-1,42
 417 145 417 145 417 187 c 0,43,44
 417 228 417 228 386.5 258 c 128,-1,45
 356 288 356 288 291 322 c 1,46,47
 238 296 238 296 210.5 263 c 128,-1,48
 183 230 183 230 183 186 c 0,49,50
 183 143 183 143 212.5 116.5 c 128,-1,51
 242 90 242 90 298 90 c 0,40,41
EndSplineSet
Validated: 1
Substitution2: "'onum' Oldstyle Figures lookup 31 subtable" eight.osf
Substitution2: "'frac' Diagonal Fractions lookup 25 subtable" eight.numr
Substitution2: "'dnom' Denominators lookup 23 subtable" eight.dnom
Substitution2: "'numr' Numerators lookup 22 subtable" eight.numr
Substitution2: "'sups' Superscript lookup 21 subtable" uni2078
Substitution2: "'subs' Subscript lookup 20 subtable" uni2088
AlternateSubs2: "'aalt' Access All Alternates lookup 1 subtable" uni2078 eight.osf eight.dnom eight.numr uni2088
EndChar

StartChar: nine
Encoding: 57 57 28
Width: 600
Flags: W
LayerCount: 2
Fore
SplineSet
198 -10 m 0,0,1
 176 -10 176 -10 153 -8 c 128,-1,2
 130 -6 130 -6 113 -2 c 1,3,-1
 113 103 l 1,4,5
 133 98 133 98 155 95 c 128,-1,6
 177 92 177 92 201 92 c 0,7,8
 280 92 280 92 327 123 c 128,-1,9
 374 154 374 154 396 209.5 c 128,-1,10
 418 265 418 265 422 338 c 1,11,-1
 416 338 l 1,12,13
 394 299 394 299 355 277 c 128,-1,14
 316 255 316 255 259 255 c 0,15,16
 162 255 162 255 109.5 314.5 c 128,-1,17
 57 374 57 374 57 479 c 0,18,19
 57 592 57 592 119.5 658.5 c 128,-1,20
 182 725 182 725 292 725 c 0,21,22
 405 725 405 725 474 642.5 c 128,-1,23
 543 560 543 560 543 393 c 0,24,25
 543 276 543 276 509.5 185 c 128,-1,26
 476 94 476 94 400 42 c 128,-1,27
 324 -10 324 -10 198 -10 c 0,0,1
289 353 m 0,28,29
 342 353 342 353 379 387 c 128,-1,30
 416 421 416 421 416 478 c 0,31,32
 416 514 416 514 402 545.5 c 128,-1,33
 388 577 388 577 361 597 c 128,-1,34
 334 617 334 617 294 617 c 0,35,36
 240 617 240 617 210 583 c 128,-1,37
 180 549 180 549 180 480 c 0,38,39
 180 353 180 353 289 353 c 0,28,29
EndSplineSet
Validated: 1
Substitution2: "'onum' Oldstyle Figures lookup 31 subtable" nine.osf
Substitution2: "'frac' Diagonal Fractions lookup 25 subtable" nine.numr
Substitution2: "'dnom' Denominators lookup 23 subtable" nine.dnom
Substitution2: "'numr' Numerators lookup 22 subtable" nine.numr
Substitution2: "'sups' Superscript lookup 21 subtable" uni2079
Substitution2: "'subs' Subscript lookup 20 subtable" uni2089
AlternateSubs2: "'aalt' Access All Alternates lookup 1 subtable" uni2079 nine.osf nine.dnom nine.numr uni2089
EndChar

StartChar: colon
Encoding: 58 58 29
Width: 600
Flags: W
LayerCount: 2
Fore
SplineSet
300 391 m 0,0,1
 263 391 263 391 241.5 411.5 c 128,-1,2
 220 432 220 432 220 472 c 0,3,4
 220 513 220 513 241 532.5 c 128,-1,5
 262 552 262 552 300 552 c 0,6,7
 337 552 337 552 358 532 c 128,-1,8
 379 512 379 512 379 472 c 0,9,10
 379 433 379 433 357.5 412 c 128,-1,11
 336 391 336 391 300 391 c 0,0,1
300 -10 m 0,12,13
 263 -10 263 -10 241.5 10 c 128,-1,14
 220 30 220 30 220 70 c 0,15,16
 220 111 220 111 241 131 c 128,-1,17
 262 151 262 151 300 151 c 0,18,19
 336 151 336 151 357.5 130.5 c 128,-1,20
 379 110 379 110 379 70 c 0,21,22
 379 32 379 32 357.5 11 c 128,-1,23
 336 -10 336 -10 300 -10 c 0,12,13
EndSplineSet
Validated: 1
EndChar

StartChar: semicolon
Encoding: 59 59 30
Width: 600
Flags: W
LayerCount: 2
Fore
SplineSet
322 391 m 0,0,1
 285 391 285 391 263.5 411.5 c 128,-1,2
 242 432 242 432 242 472 c 0,3,4
 242 513 242 513 263 532.5 c 128,-1,5
 284 552 284 552 322 552 c 0,6,7
 359 552 359 552 380.5 532 c 128,-1,8
 402 512 402 512 402 472 c 0,9,10
 402 433 402 433 380 412 c 128,-1,11
 358 391 358 391 322 391 c 0,0,1
200 -150 m 1,12,13
 210 -106 210 -106 220.5 -55 c 128,-1,14
 231 -4 231 -4 239.5 45.5 c 128,-1,15
 248 95 248 95 254 133 c 1,16,-1
 380 133 l 1,17,-1
 387 122 l 1,18,19
 378 86 378 86 364 39 c 128,-1,20
 350 -8 350 -8 332 -57.5 c 128,-1,21
 314 -107 314 -107 295 -150 c 1,22,-1
 200 -150 l 1,12,13
EndSplineSet
Validated: 1
EndChar

StartChar: equal
Encoding: 61 61 32
Width: 600
Flags: W
LayerCount: 2
Fore
SplineSet
70 395 m 1,0,-1
 70 500 l 1,1,-1
 530 500 l 1,2,-1
 530 395 l 1,3,-1
 70 395 l 1,0,-1
70 193 m 1,4,-1
 70 298 l 1,5,-1
 530 298 l 1,6,-1
 530 193 l 1,7,-1
 70 193 l 1,4,-1
EndSplineSet
Validated: 1
Substitution2: "'sups' Superscript lookup 21 subtable" uni207C
Substitution2: "'subs' Subscript lookup 20 subtable" uni208C
AlternateSubs2: "'aalt' Access All Alternates lookup 1 subtable" uni208C uni207C
EndChar

StartChar: greater
Encoding: 62 62 33
Width: 600
Flags: W
LayerCount: 2
Fore
SplineSet
87 112 m 1,0,-1
 87 215 l 1,1,-1
 383 354 l 1,2,-1
 87 507 l 1,3,-1
 87 610 l 1,4,-1
 513 383 l 1,5,-1
 513 321 l 1,6,-1
 87 112 l 1,0,-1
EndSplineSet
Validated: 1
EndChar

StartChar: question
Encoding: 63 63 34
Width: 600
Flags: W
LayerCount: 2
Fore
SplineSet
216 224 m 1,0,-1
 216 253 l 2,1,2
 216 307 216 307 238 342 c 128,-1,3
 260 377 260 377 312 414 c 0,4,5
 354 445 354 445 375 471.5 c 128,-1,6
 396 498 396 498 396 541 c 0,7,8
 396 578 396 578 370 599 c 128,-1,9
 344 620 344 620 296 620 c 0,10,11
 254 620 254 620 215 608 c 128,-1,12
 176 596 176 596 129 573 c 1,13,-1
 84 668 l 1,14,15
 134 694 134 694 186.5 709 c 128,-1,16
 239 724 239 724 301 724 c 0,17,18
 364 724 364 724 412.5 703.5 c 128,-1,19
 461 683 461 683 488.5 643.5 c 128,-1,20
 516 604 516 604 516 548 c 0,21,22
 516 503 516 503 504 471.5 c 128,-1,23
 492 440 492 440 467.5 414 c 128,-1,24
 443 388 443 388 404 360 c 0,25,26
 374 338 374 338 357 321.5 c 128,-1,27
 340 305 340 305 332.5 287.5 c 128,-1,28
 325 270 325 270 325 245 c 2,29,-1
 325 224 l 1,30,-1
 216 224 l 1,0,-1
273 -10 m 0,31,32
 236 -10 236 -10 214.5 10 c 128,-1,33
 193 30 193 30 193 70 c 0,34,35
 193 111 193 111 214.5 131 c 128,-1,36
 236 151 236 151 273 151 c 0,37,38
 309 151 309 151 330.5 130.5 c 128,-1,39
 352 110 352 110 352 70 c 0,40,41
 352 32 352 32 330.5 11 c 128,-1,42
 309 -10 309 -10 273 -10 c 0,31,32
EndSplineSet
Validated: 1
Substitution2: "'smcp' Lowercase to Small Capitals lookup 33 subtable" question.sc
Substitution2: "'c2sc' Capitals to Small Capitals lookup 32 subtable" question.sc
Substitution2: "'aalt' Access All Alternates lookup 0 subtable" question.sc
EndChar

StartChar: at
Encoding: 64 64 35
Width: 600
Flags: W
LayerCount: 2
Fore
SplineSet
322 -89 m 0,0,1
 222 -89 222 -89 151 -43.5 c 128,-1,2
 80 2 80 2 43 86.5 c 128,-1,3
 6 171 6 171 6 287 c 0,4,5
 6 410 6 410 43 506.5 c 128,-1,6
 80 603 80 603 151 658.5 c 128,-1,7
 222 714 222 714 323 714 c 0,8,9
 404 714 404 714 465 671 c 128,-1,10
 526 628 526 628 560 549 c 128,-1,11
 594 470 594 470 594 362 c 0,12,13
 594 296 594 296 579.5 238 c 128,-1,14
 565 180 565 180 535 144 c 128,-1,15
 505 108 505 108 459 108 c 0,16,17
 427 108 427 108 407 128 c 128,-1,18
 387 148 387 148 379 177 c 1,19,-1
 377 177 l 1,20,21
 363 149 363 149 338 128.5 c 128,-1,22
 313 108 313 108 276 108 c 0,23,24
 217 108 217 108 184.5 160.5 c 128,-1,25
 152 213 152 213 152 298 c 0,26,27
 152 363 152 363 172 413 c 128,-1,28
 192 463 192 463 229 491.5 c 128,-1,29
 266 520 266 520 318 520 c 0,30,31
 353 520 353 520 387.5 512 c 128,-1,32
 422 504 422 504 446 495 c 1,33,-1
 436 295 l 2,34,35
 435 288 435 288 435 279 c 128,-1,36
 435 270 435 270 435 262 c 0,37,38
 434 217 434 217 442.5 202 c 128,-1,39
 451 187 451 187 463 187 c 0,40,41
 478 187 478 187 488 210.5 c 128,-1,42
 498 234 498 234 503.5 273.5 c 128,-1,43
 509 313 509 313 509 361 c 0,44,45
 509 498 509 498 457 568 c 128,-1,46
 405 638 405 638 323 638 c 0,47,48
 249 638 249 638 197.5 594 c 128,-1,49
 146 550 146 550 119.5 472 c 128,-1,50
 93 394 93 394 93 292 c 0,51,52
 93 147 93 147 151.5 67.5 c 128,-1,53
 210 -12 210 -12 320 -12 c 0,54,55
 368 -12 368 -12 413 -0.5 c 128,-1,56
 458 11 458 11 496 28 c 1,57,-1
 496 -49 l 1,58,59
 460 -68 460 -68 417 -78.5 c 128,-1,60
 374 -89 374 -89 322 -89 c 0,0,1
289 187 m 0,61,62
 319 187 319 187 332 226 c 128,-1,63
 345 265 345 265 348 325 c 2,64,-1
 354 434 l 1,65,66
 338 441 338 441 319 441 c 0,67,68
 290 441 290 441 272.5 419.5 c 128,-1,69
 255 398 255 398 248 365 c 128,-1,70
 241 332 241 332 241 296 c 0,71,72
 241 238 241 238 253.5 212.5 c 128,-1,73
 266 187 266 187 289 187 c 0,61,62
EndSplineSet
Validated: 33
EndChar

StartChar: A
Encoding: 65 65 36
Width: 600
GlyphClass: 2
Flags: W
AnchorPoint: "Anchor-4" 580 714 basechar 0
AnchorPoint: "Anchor-3" 300 714 basechar 0
AnchorPoint: "Anchor-2" 540 10 basechar 0
AnchorPoint: "Anchor-0" 300 0 basechar 0
LayerCount: 2
Fore
SplineSet
14 0 m 1,0,-1
 224 717 l 1,1,-1
 375 717 l 1,2,-1
 586 0 l 1,3,-1
 461 0 l 1,4,-1
 409 193 l 1,5,-1
 189 193 l 1,6,-1
 136 0 l 1,7,-1
 14 0 l 1,0,-1
269 488 m 2,8,-1
 217 298 l 1,9,-1
 381 298 l 1,10,-1
 330 488 l 2,11,12
 323 515 323 515 315 547.5 c 128,-1,13
 307 580 307 580 300 613 c 1,14,15
 292 580 292 580 284 547.5 c 128,-1,16
 276 515 276 515 269 488 c 2,8,-1
EndSplineSet
Validated: 1
Substitution2: "'c2sc' Capitals to Small Capitals lookup 32 subtable" a.sc
Substitution2: "Single Substitution lookup 30 subtable" ordfeminine
AlternateSubs2: "'aalt' Access All Alternates lookup 1 subtable" ordfeminine a.sc
EndChar

StartChar: B
Encoding: 66 66 37
Width: 600
GlyphClass: 2
Flags: W
AnchorPoint: "Anchor-4" 580 714 basechar 0
AnchorPoint: "Anchor-3" 300 714 basechar 0
AnchorPoint: "Anchor-0" 300 0 basechar 0
LayerCount: 2
Fore
SplineSet
86 0 m 1,0,-1
 86 714 l 1,1,-1
 297 714 l 2,2,3
 412 714 412 714 474.5 673.5 c 128,-1,4
 537 633 537 633 537 539 c 0,5,6
 537 472 537 472 506.5 431 c 128,-1,7
 476 390 476 390 423 379 c 1,8,-1
 423 374 l 1,9,10
 480 361 480 361 517 323.5 c 128,-1,11
 554 286 554 286 554 208 c 0,12,13
 554 110 554 110 493 55 c 128,-1,14
 432 0 432 0 323 0 c 2,15,-1
 86 0 l 1,0,-1
202 425 m 1,16,-1
 299 425 l 2,17,18
 360 425 360 425 386 448 c 128,-1,19
 412 471 412 471 412 519 c 0,20,21
 412 568 412 568 384.5 589 c 128,-1,22
 357 610 357 610 291 610 c 2,23,-1
 202 610 l 1,24,-1
 202 425 l 1,16,-1
202 104 m 1,25,-1
 308 104 l 2,26,27
 374 104 374 104 400 134 c 128,-1,28
 426 164 426 164 426 213 c 0,29,30
 426 263 426 263 399.5 291 c 128,-1,31
 373 319 373 319 303 319 c 2,32,-1
 202 319 l 1,33,-1
 202 104 l 1,25,-1
EndSplineSet
Validated: 1
Substitution2: "'c2sc' Capitals to Small Capitals lookup 32 subtable" b.sc
Substitution2: "'aalt' Access All Alternates lookup 0 subtable" b.sc
EndChar

StartChar: C
Encoding: 67 67 38
Width: 600
GlyphClass: 2
Flags: W
AnchorPoint: "Anchor-4" 580 714 basechar 0
AnchorPoint: "Anchor-3" 356 714 basechar 0
AnchorPoint: "Anchor-0" 342 0 basechar 0
LayerCount: 2
Fore
SplineSet
356 -10 m 0,0,1
 252 -10 252 -10 186 35 c 128,-1,2
 120 80 120 80 88 160.5 c 128,-1,3
 56 241 56 241 56 348 c 0,4,5
 56 464 56 464 93.5 548.5 c 128,-1,6
 131 633 131 633 203.5 678.5 c 128,-1,7
 276 724 276 724 381 724 c 0,8,9
 433 724 433 724 474.5 713.5 c 128,-1,10
 516 703 516 703 556 683 c 1,11,-1
 514 581 l 1,12,13
 479 599 479 599 444.5 607 c 128,-1,14
 410 615 410 615 378 615 c 0,15,16
 274 615 274 615 228 544.5 c 128,-1,17
 182 474 182 474 182 351 c 256,18,19
 182 228 182 228 227 164 c 128,-1,20
 272 100 272 100 372 100 c 0,21,22
 406 100 406 100 443.5 108.5 c 128,-1,23
 481 117 481 117 527 137 c 1,24,-1
 527 24 l 1,25,26
 444 -10 444 -10 356 -10 c 0,0,1
EndSplineSet
Validated: 1
Substitution2: "'c2sc' Capitals to Small Capitals lookup 32 subtable" c.sc
Substitution2: "'aalt' Access All Alternates lookup 0 subtable" c.sc
EndChar

StartChar: D
Encoding: 68 68 39
Width: 600
GlyphClass: 2
Flags: W
AnchorPoint: "Anchor-4" 600 714 basechar 0
AnchorPoint: "Anchor-3" 281 714 basechar 0
AnchorPoint: "Anchor-1" 303 357 basechar 0
AnchorPoint: "Anchor-0" 258 0 basechar 0
LayerCount: 2
Fore
SplineSet
54 0 m 1,0,-1
 54 714 l 1,1,-1
 257 714 l 2,2,3
 397 714 397 714 480.5 625 c 128,-1,4
 564 536 564 536 564 363 c 0,5,6
 564 186 564 186 478.5 93 c 128,-1,7
 393 0 393 0 243 0 c 2,8,-1
 54 0 l 1,0,-1
177 106 m 1,9,-1
 235 106 l 2,10,11
 339 106 339 106 388.5 170 c 128,-1,12
 438 234 438 234 438 362 c 256,13,14
 438 490 438 490 389 549 c 128,-1,15
 340 608 340 608 249 608 c 2,16,-1
 177 608 l 1,17,-1
 177 106 l 1,9,-1
EndSplineSet
Validated: 1
Substitution2: "'c2sc' Capitals to Small Capitals lookup 32 subtable" d.sc
Substitution2: "'aalt' Access All Alternates lookup 0 subtable" d.sc
EndChar

StartChar: E
Encoding: 69 69 40
Width: 600
GlyphClass: 2
Flags: W
AnchorPoint: "Anchor-4" 580 714 basechar 0
AnchorPoint: "Anchor-3" 306 714 basechar 0
AnchorPoint: "Anchor-2" 459 10 basechar 0
AnchorPoint: "Anchor-0" 304 0 basechar 0
LayerCount: 2
Fore
SplineSet
86 0 m 1,0,-1
 86 714 l 1,1,-1
 524 714 l 1,2,-1
 524 606 l 1,3,-1
 207 606 l 1,4,-1
 207 425 l 1,5,-1
 508 425 l 1,6,-1
 508 317 l 1,7,-1
 207 317 l 1,8,-1
 207 108 l 1,9,-1
 524 108 l 1,10,-1
 524 0 l 1,11,-1
 86 0 l 1,0,-1
EndSplineSet
Validated: 1
Substitution2: "'c2sc' Capitals to Small Capitals lookup 32 subtable" e.sc
Substitution2: "'aalt' Access All Alternates lookup 0 subtable" e.sc
EndChar

StartChar: F
Encoding: 70 70 41
Width: 600
GlyphClass: 2
Flags: W
AnchorPoint: "Anchor-4" 580 714 basechar 0
AnchorPoint: "Anchor-3" 313 714 basechar 0
AnchorPoint: "Anchor-0" 313 0 basechar 0
LayerCount: 2
Fore
SplineSet
86 0 m 1,0,-1
 86 714 l 1,1,-1
 524 714 l 1,2,-1
 524 606 l 1,3,-1
 207 606 l 1,4,-1
 207 395 l 1,5,-1
 508 395 l 1,6,-1
 508 287 l 1,7,-1
 207 287 l 1,8,-1
 207 0 l 1,9,-1
 86 0 l 1,0,-1
EndSplineSet
Validated: 1
Substitution2: "'c2sc' Capitals to Small Capitals lookup 32 subtable" f.sc
Substitution2: "'aalt' Access All Alternates lookup 0 subtable" f.sc
EndChar

StartChar: G
Encoding: 71 71 42
Width: 600
GlyphClass: 2
Flags: W
AnchorPoint: "Anchor-4" 580 714 basechar 0
AnchorPoint: "Anchor-3" 325 714 basechar 0
AnchorPoint: "Anchor-0" 334 0 basechar 0
LayerCount: 2
Fore
SplineSet
342 -10 m 0,0,1
 188 -10 188 -10 112 84 c 128,-1,2
 36 178 36 178 36 348 c 0,3,4
 36 525 36 525 117 624.5 c 128,-1,5
 198 724 198 724 353 724 c 0,6,7
 407 724 407 724 453.5 712 c 128,-1,8
 500 700 500 700 539 681 c 1,9,-1
 499 580 l 1,10,11
 438 616 438 616 363 616 c 0,12,13
 261 616 261 616 211 546.5 c 128,-1,14
 161 477 161 477 161 351 c 0,15,16
 161 276 161 276 180 219 c 128,-1,17
 199 162 199 162 239.5 129.5 c 128,-1,18
 280 97 280 97 345 97 c 0,19,20
 370 97 370 97 391 100.5 c 128,-1,21
 412 104 412 104 431 109 c 1,22,-1
 431 288 l 1,23,-1
 320 288 l 1,24,-1
 320 393 l 1,25,-1
 546 393 l 1,26,-1
 546 29 l 1,27,28
 499 10 499 10 449.5 0 c 128,-1,29
 400 -10 400 -10 342 -10 c 0,0,1
EndSplineSet
Validated: 1
Substitution2: "'c2sc' Capitals to Small Capitals lookup 32 subtable" g.sc
Substitution2: "'aalt' Access All Alternates lookup 0 subtable" g.sc
EndChar

StartChar: H
Encoding: 72 72 43
Width: 600
GlyphClass: 2
Flags: W
AnchorPoint: "Anchor-4" 600 714 basechar 0
AnchorPoint: "Anchor-3" 300 714 basechar 0
AnchorPoint: "Anchor-1" 300 374 basechar 0
AnchorPoint: "Anchor-0" 300 0 basechar 0
LayerCount: 2
Fore
SplineSet
54 0 m 1,0,-1
 54 714 l 1,1,-1
 179 714 l 1,2,-1
 179 427 l 1,3,-1
 421 427 l 1,4,-1
 421 714 l 1,5,-1
 546 714 l 1,6,-1
 546 0 l 1,7,-1
 421 0 l 1,8,-1
 421 319 l 1,9,-1
 179 319 l 1,10,-1
 179 0 l 1,11,-1
 54 0 l 1,0,-1
EndSplineSet
Validated: 1
Substitution2: "'c2sc' Capitals to Small Capitals lookup 32 subtable" h.sc
Substitution2: "'aalt' Access All Alternates lookup 0 subtable" h.sc
EndChar

StartChar: I
Encoding: 73 73 44
Width: 600
GlyphClass: 2
Flags: W
AnchorPoint: "Anchor-4" 580 714 basechar 0
AnchorPoint: "Anchor-3" 300 714 basechar 0
AnchorPoint: "Anchor-2" 379 10 basechar 0
AnchorPoint: "Anchor-0" 300 0 basechar 0
LayerCount: 2
Fore
SplineSet
98 0 m 1,0,-1
 98 86 l 1,1,-1
 238 101 l 1,2,-1
 238 613 l 1,3,-1
 98 628 l 1,4,-1
 98 714 l 1,5,-1
 502 714 l 1,6,-1
 502 628 l 1,7,-1
 359 613 l 1,8,-1
 359 101 l 1,9,-1
 502 86 l 1,10,-1
 502 0 l 1,11,-1
 98 0 l 1,0,-1
EndSplineSet
Validated: 1
Substitution2: "'c2sc' Capitals to Small Capitals lookup 32 subtable" i.sc
Substitution2: "'aalt' Access All Alternates lookup 0 subtable" i.sc
EndChar

StartChar: J
Encoding: 74 74 45
Width: 600
GlyphClass: 2
Flags: W
AnchorPoint: "Anchor-4" 580 714 basechar 0
AnchorPoint: "Anchor-3" 418 714 basechar 0
AnchorPoint: "Anchor-0" 300 0 basechar 0
LayerCount: 2
Fore
SplineSet
241 -10 m 0,0,1
 205 -10 205 -10 164.5 -4 c 128,-1,2
 124 2 124 2 91 14 c 1,3,-1
 91 123 l 1,4,5
 128 113 128 113 167.5 106.5 c 128,-1,6
 207 100 207 100 236 100 c 0,7,8
 296 100 296 100 327 132 c 128,-1,9
 358 164 358 164 358 239 c 2,10,-1
 358 714 l 1,11,-1
 481 714 l 1,12,-1
 481 235 l 2,13,14
 481 116 481 116 423 53 c 128,-1,15
 365 -10 365 -10 241 -10 c 0,0,1
EndSplineSet
Validated: 1
Substitution2: "'c2sc' Capitals to Small Capitals lookup 32 subtable" j.sc
Substitution2: "'aalt' Access All Alternates lookup 0 subtable" j.sc
EndChar

StartChar: K
Encoding: 75 75 46
Width: 600
GlyphClass: 2
Flags: W
AnchorPoint: "Anchor-4" 580 714 basechar 0
AnchorPoint: "Anchor-3" 300 714 basechar 0
AnchorPoint: "Anchor-0" 309 0 basechar 0
LayerCount: 2
Fore
SplineSet
54 0 m 1,0,-1
 54 714 l 1,1,-1
 177 714 l 1,2,-1
 177 356 l 1,3,4
 194 385 194 385 210 411.5 c 128,-1,5
 226 438 226 438 245 465 c 2,6,-1
 419 714 l 1,7,-1
 557 714 l 1,8,-1
 326 393 l 1,9,-1
 556 0 l 1,10,-1
 418 0 l 1,11,-1
 245 306 l 1,12,-1
 177 236 l 1,13,-1
 177 0 l 1,14,-1
 54 0 l 1,0,-1
EndSplineSet
Validated: 1
Substitution2: "'c2sc' Capitals to Small Capitals lookup 32 subtable" k.sc
Substitution2: "'aalt' Access All Alternates lookup 0 subtable" k.sc
EndChar

StartChar: L
Encoding: 76 76 47
Width: 600
GlyphClass: 2
Flags: W
AnchorPoint: "Anchor-4" 451 714 basechar 0
AnchorPoint: "Anchor-3" 161 714 basechar 0
AnchorPoint: "Anchor-1" 300 357 basechar 0
AnchorPoint: "Anchor-0" 330 0 basechar 0
LayerCount: 2
Fore
SplineSet
99 0 m 1,0,-1
 99 714 l 1,1,-1
 224 714 l 1,2,-1
 224 111 l 1,3,-1
 524 111 l 1,4,-1
 524 0 l 1,5,-1
 99 0 l 1,0,-1
EndSplineSet
Validated: 1
Substitution2: "'c2sc' Capitals to Small Capitals lookup 32 subtable" l.sc
Substitution2: "'aalt' Access All Alternates lookup 0 subtable" l.sc
EndChar

StartChar: M
Encoding: 77 77 48
Width: 600
GlyphClass: 2
Flags: W
AnchorPoint: "Anchor-4" 600 714 basechar 0
AnchorPoint: "Anchor-3" 302 714 basechar 0
AnchorPoint: "Anchor-0" 300 0 basechar 0
LayerCount: 2
Fore
SplineSet
44 0 m 1,0,-1
 44 714 l 1,1,-1
 215 714 l 1,2,-1
 297 304 l 1,3,-1
 301 304 l 1,4,-1
 391 714 l 1,5,-1
 556 714 l 1,6,-1
 556 0 l 1,7,-1
 443 0 l 1,8,-1
 443 247 l 2,9,10
 443 288 443 288 445 340 c 128,-1,11
 447 392 447 392 450 443.5 c 128,-1,12
 453 495 453 495 455.5 536.5 c 128,-1,13
 458 578 458 578 460 598 c 1,14,-1
 455 598 l 1,15,-1
 360 172 l 1,16,-1
 241 172 l 1,17,-1
 141 599 l 1,18,-1
 136 599 l 1,19,20
 138 579 138 579 141.5 537.5 c 128,-1,21
 145 496 145 496 148.5 444 c 128,-1,22
 152 392 152 392 154.5 339 c 128,-1,23
 157 286 157 286 157 242 c 2,24,-1
 157 0 l 1,25,-1
 44 0 l 1,0,-1
EndSplineSet
Validated: 1
Substitution2: "'c2sc' Capitals to Small Capitals lookup 32 subtable" m.sc
Substitution2: "'aalt' Access All Alternates lookup 0 subtable" m.sc
EndChar

StartChar: N
Encoding: 78 78 49
Width: 600
GlyphClass: 2
Flags: W
AnchorPoint: "Anchor-4" 600 714 basechar 0
AnchorPoint: "Anchor-3" 305 714 basechar 0
AnchorPoint: "Anchor-0" 300 0 basechar 0
LayerCount: 2
Fore
SplineSet
54 0 m 1,0,-1
 54 714 l 1,1,-1
 222 714 l 1,2,-1
 437 131 l 1,3,-1
 440 131 l 1,4,5
 436 197 436 197 434 252.5 c 128,-1,6
 432 308 432 308 432 348 c 2,7,-1
 432 714 l 1,8,-1
 546 714 l 1,9,-1
 546 0 l 1,10,-1
 381 0 l 1,11,-1
 160 596 l 1,12,-1
 156 596 l 1,13,14
 160 530 160 530 164 471 c 128,-1,15
 168 412 168 412 168 372 c 2,16,-1
 168 0 l 1,17,-1
 54 0 l 1,0,-1
EndSplineSet
Validated: 1
Substitution2: "'c2sc' Capitals to Small Capitals lookup 32 subtable" n.sc
Substitution2: "'aalt' Access All Alternates lookup 0 subtable" n.sc
EndChar

StartChar: O
Encoding: 79 79 50
Width: 600
GlyphClass: 2
Flags: W
AnchorPoint: "Anchor-4" 600 714 basechar 0
AnchorPoint: "Anchor-3" 300 714 basechar 0
AnchorPoint: "Anchor-2" 298 10 basechar 0
AnchorPoint: "Anchor-1" 300 357 basechar 0
AnchorPoint: "Anchor-0" 300 0 basechar 0
LayerCount: 2
Fore
SplineSet
300 -10 m 256,0,1
 208 -10 208 -10 149.5 34.5 c 128,-1,2
 91 79 91 79 63.5 161.5 c 128,-1,3
 36 244 36 244 36 358 c 256,4,5
 36 472 36 472 64 554.5 c 128,-1,6
 92 637 92 637 150 681.5 c 128,-1,7
 208 726 208 726 300 726 c 256,8,9
 392 726 392 726 450.5 681.5 c 128,-1,10
 509 637 509 637 536.5 554.5 c 128,-1,11
 564 472 564 472 564 358 c 256,12,13
 564 244 564 244 536 161.5 c 128,-1,14
 508 79 508 79 450 34.5 c 128,-1,15
 392 -10 392 -10 300 -10 c 256,0,1
300 98 m 256,16,17
 374 98 374 98 406 165 c 128,-1,18
 438 232 438 232 438 359 c 0,19,20
 438 484 438 484 406.5 551 c 128,-1,21
 375 618 375 618 301 618 c 0,22,23
 226 618 226 618 194 550.5 c 128,-1,24
 162 483 162 483 162 358 c 0,25,26
 162 232 162 232 194 165 c 128,-1,27
 226 98 226 98 300 98 c 256,16,17
EndSplineSet
Validated: 1
Substitution2: "'c2sc' Capitals to Small Capitals lookup 32 subtable" o.sc
Substitution2: "Single Substitution lookup 30 subtable" ordmasculine
AlternateSubs2: "'aalt' Access All Alternates lookup 1 subtable" ordmasculine o.sc
EndChar

StartChar: P
Encoding: 80 80 51
Width: 600
GlyphClass: 2
Flags: W
AnchorPoint: "Anchor-4" 600 714 basechar 0
AnchorPoint: "Anchor-3" 300 714 basechar 0
AnchorPoint: "Anchor-0" 300 0 basechar 0
LayerCount: 2
Fore
SplineSet
86 0 m 1,0,-1
 86 714 l 1,1,-1
 310 714 l 2,2,3
 435 714 435 714 494.5 657.5 c 128,-1,4
 554 601 554 601 554 497 c 0,5,6
 554 430 554 430 529 377 c 128,-1,7
 504 324 504 324 448 293 c 128,-1,8
 392 262 392 262 300 262 c 2,9,-1
 207 262 l 1,10,-1
 207 0 l 1,11,-1
 86 0 l 1,0,-1
207 368 m 1,12,-1
 287 368 l 2,13,14
 430 368 430 368 430 491 c 0,15,16
 430 552 430 552 399 580 c 128,-1,17
 368 608 368 608 304 608 c 2,18,-1
 207 608 l 1,19,-1
 207 368 l 1,12,-1
EndSplineSet
Validated: 1
Substitution2: "'c2sc' Capitals to Small Capitals lookup 32 subtable" p.sc
Substitution2: "'aalt' Access All Alternates lookup 0 subtable" p.sc
EndChar

StartChar: Q
Encoding: 81 81 52
Width: 600
GlyphClass: 2
Flags: W
AnchorPoint: "Anchor-4" 600 714 basechar 0
AnchorPoint: "Anchor-3" 300 714 basechar 0
AnchorPoint: "Anchor-2" 298 10 basechar 0
AnchorPoint: "Anchor-1" 300 357 basechar 0
AnchorPoint: "Anchor-0" 300 -220 basechar 0
LayerCount: 2
Fore
SplineSet
300 -10 m 0,0,1
 208 -10 208 -10 149.5 34.5 c 128,-1,2
 91 79 91 79 63.5 161.5 c 128,-1,3
 36 244 36 244 36 358 c 256,4,5
 36 472 36 472 64 554.5 c 128,-1,6
 92 637 92 637 150 681.5 c 128,-1,7
 208 726 208 726 300 726 c 256,8,9
 392 726 392 726 450.5 681.5 c 128,-1,10
 509 637 509 637 536.5 554.5 c 128,-1,11
 564 472 564 472 564 358 c 0,12,13
 564 238 564 238 533 153 c 128,-1,14
 502 68 502 68 437 26 c 1,15,-1
 547 -180 l 1,16,-1
 414 -180 l 1,17,-1
 328 -9 l 1,18,19
 314 -10 314 -10 300 -10 c 0,0,1
300 98 m 256,20,21
 374 98 374 98 406 165 c 128,-1,22
 438 232 438 232 438 359 c 0,23,24
 438 484 438 484 406.5 551 c 128,-1,25
 375 618 375 618 301 618 c 0,26,27
 226 618 226 618 194 550.5 c 128,-1,28
 162 483 162 483 162 358 c 0,29,30
 162 232 162 232 194 165 c 128,-1,31
 226 98 226 98 300 98 c 256,20,21
EndSplineSet
Validated: 1
Substitution2: "'c2sc' Capitals to Small Capitals lookup 32 subtable" q.sc
Substitution2: "'aalt' Access All Alternates lookup 0 subtable" q.sc
EndChar

StartChar: R
Encoding: 82 82 53
Width: 600
GlyphClass: 2
Flags: W
AnchorPoint: "Anchor-4" 580 714 basechar 0
AnchorPoint: "Anchor-3" 300 714 basechar 0
AnchorPoint: "Anchor-0" 327 0 basechar 0
LayerCount: 2
Fore
SplineSet
86 0 m 1,0,-1
 86 714 l 1,1,-1
 268 714 l 2,2,3
 394 714 394 714 459 660 c 128,-1,4
 524 606 524 606 524 505 c 0,5,6
 524 428 524 428 489 380.5 c 128,-1,7
 454 333 454 333 398 308 c 1,8,-1
 579 0 l 1,9,-1
 445 0 l 1,10,-1
 288 278 l 1,11,-1
 210 278 l 1,12,-1
 210 0 l 1,13,-1
 86 0 l 1,0,-1
210 384 m 1,14,-1
 265 384 l 2,15,16
 333 384 333 384 365.5 413 c 128,-1,17
 398 442 398 442 398 500 c 0,18,19
 398 559 398 559 364.5 583.5 c 128,-1,20
 331 608 331 608 262 608 c 2,21,-1
 210 608 l 1,22,-1
 210 384 l 1,14,-1
EndSplineSet
Validated: 1
Substitution2: "'c2sc' Capitals to Small Capitals lookup 32 subtable" r.sc
Substitution2: "'aalt' Access All Alternates lookup 0 subtable" r.sc
EndChar

StartChar: S
Encoding: 83 83 54
Width: 600
GlyphClass: 2
Flags: W
AnchorPoint: "Anchor-4" 580 714 basechar 0
AnchorPoint: "Anchor-3" 316 714 basechar 0
AnchorPoint: "Anchor-0" 300 0 basechar 0
LayerCount: 2
Fore
SplineSet
277 -10 m 0,0,1
 222 -10 222 -10 169 1 c 128,-1,2
 116 12 116 12 76 31 c 1,3,-1
 76 144 l 1,4,5
 124 121 124 121 176.5 107.5 c 128,-1,6
 229 94 229 94 281 94 c 0,7,8
 342 94 342 94 377 116.5 c 128,-1,9
 412 139 412 139 412 191 c 0,10,11
 412 224 412 224 396 243 c 128,-1,12
 380 262 380 262 346 279 c 128,-1,13
 312 296 312 296 259 322 c 0,14,15
 214 344 214 344 175.5 371 c 128,-1,16
 137 398 137 398 113.5 436.5 c 128,-1,17
 90 475 90 475 90 534 c 0,18,19
 90 628 90 628 153 676 c 128,-1,20
 216 724 216 724 322 724 c 0,21,22
 368 724 368 724 422.5 713.5 c 128,-1,23
 477 703 477 703 526 680 c 1,24,-1
 486 582 l 1,25,26
 443 601 443 601 401.5 610 c 128,-1,27
 360 619 360 619 326 619 c 0,28,29
 274 619 274 619 245.5 597 c 128,-1,30
 217 575 217 575 217 529 c 0,31,32
 217 497 217 497 231.5 478 c 128,-1,33
 246 459 246 459 275 443.5 c 128,-1,34
 304 428 304 428 350 406 c 0,35,36
 408 378 408 378 450.5 352 c 128,-1,37
 493 326 493 326 516 290 c 128,-1,38
 539 254 539 254 539 196 c 0,39,40
 539 96 539 96 469 43 c 128,-1,41
 399 -10 399 -10 277 -10 c 0,0,1
EndSplineSet
Validated: 1
Substitution2: "'c2sc' Capitals to Small Capitals lookup 32 subtable" s.sc
Substitution2: "'aalt' Access All Alternates lookup 0 subtable" s.sc
EndChar

StartChar: T
Encoding: 84 84 55
Width: 600
GlyphClass: 2
Flags: W
AnchorPoint: "Anchor-4" 580 714 basechar 0
AnchorPoint: "Anchor-3" 300 714 basechar 0
AnchorPoint: "Anchor-1" 300 357 basechar 0
AnchorPoint: "Anchor-0" 300 0 basechar 0
LayerCount: 2
Fore
SplineSet
238 0 m 1,0,-1
 238 606 l 1,1,-1
 36 606 l 1,2,-1
 36 714 l 1,3,-1
 564 714 l 1,4,-1
 564 606 l 1,5,-1
 362 606 l 1,6,-1
 362 0 l 1,7,-1
 238 0 l 1,0,-1
EndSplineSet
Validated: 1
Substitution2: "'c2sc' Capitals to Small Capitals lookup 32 subtable" t.sc
Substitution2: "'aalt' Access All Alternates lookup 0 subtable" t.sc
EndChar

StartChar: U
Encoding: 85 85 56
Width: 600
GlyphClass: 2
Flags: W
AnchorPoint: "Anchor-4" 580 714 basechar 0
AnchorPoint: "Anchor-3" 300 714 basechar 0
AnchorPoint: "Anchor-2" 540 10 basechar 0
AnchorPoint: "Anchor-0" 300 0 basechar 0
LayerCount: 2
Fore
SplineSet
298 -10 m 0,0,1
 174 -10 174 -10 114 58.5 c 128,-1,2
 54 127 54 127 54 247 c 2,3,-1
 54 714 l 1,4,-1
 179 714 l 1,5,-1
 179 265 l 2,6,7
 179 180 179 180 207 139 c 128,-1,8
 235 98 235 98 300 98 c 0,9,10
 369 98 369 98 395 141 c 128,-1,11
 421 184 421 184 421 266 c 2,12,-1
 421 714 l 1,13,-1
 546 714 l 1,14,-1
 546 247 l 2,15,16
 546 170 546 170 520 112.5 c 128,-1,17
 494 55 494 55 439 22.5 c 128,-1,18
 384 -10 384 -10 298 -10 c 0,0,1
EndSplineSet
Validated: 1
Substitution2: "'c2sc' Capitals to Small Capitals lookup 32 subtable" u.sc
Substitution2: "'aalt' Access All Alternates lookup 0 subtable" u.sc
EndChar

StartChar: V
Encoding: 86 86 57
Width: 600
GlyphClass: 2
Flags: W
AnchorPoint: "Anchor-4" 580 714 basechar 0
AnchorPoint: "Anchor-3" 300 714 basechar 0
AnchorPoint: "Anchor-0" 300 0 basechar 0
LayerCount: 2
Fore
SplineSet
233 0 m 1,0,-1
 16 714 l 1,1,-1
 142 714 l 1,2,-1
 262 275 l 2,3,4
 268 254 268 254 275.5 224.5 c 128,-1,5
 283 195 283 195 289 165.5 c 128,-1,6
 295 136 295 136 299 114 c 1,7,-1
 306 114 l 1,8,9
 311 148 311 148 321 195 c 128,-1,10
 331 242 331 242 340 276 c 2,11,-1
 456 714 l 1,12,-1
 584 714 l 1,13,-1
 369 0 l 1,14,-1
 233 0 l 1,0,-1
EndSplineSet
Validated: 1
Substitution2: "'c2sc' Capitals to Small Capitals lookup 32 subtable" v.sc
Substitution2: "'aalt' Access All Alternates lookup 0 subtable" v.sc
EndChar

StartChar: W
Encoding: 87 87 58
Width: 600
GlyphClass: 2
Flags: W
AnchorPoint: "Anchor-4" 580 714 basechar 0
AnchorPoint: "Anchor-3" 300 714 basechar 0
AnchorPoint: "Anchor-0" 300 0 basechar 0
LayerCount: 2
Fore
SplineSet
79 0 m 1,0,-1
 16 714 l 1,1,-1
 125 714 l 1,2,3
 133 632 133 632 138.5 571.5 c 128,-1,4
 144 511 144 511 147 466.5 c 128,-1,5
 150 422 150 422 152 386.5 c 128,-1,6
 154 351 154 351 155 317 c 0,7,8
 157 282 157 282 158.5 243.5 c 128,-1,9
 160 205 160 205 161 170 c 128,-1,10
 162 135 162 135 161 112 c 1,11,-1
 167 112 l 1,12,13
 171 143 171 143 177 181.5 c 128,-1,14
 183 220 183 220 189.5 256 c 128,-1,15
 196 292 196 292 200 314 c 2,16,-1
 242 542 l 1,17,-1
 360 542 l 1,18,-1
 402 313 l 2,19,20
 412 266 412 266 422.5 211 c 128,-1,21
 433 156 433 156 439 112 c 1,22,-1
 444 112 l 1,23,24
 444 140 444 140 444 179.5 c 128,-1,25
 444 219 444 219 445 261.5 c 128,-1,26
 446 304 446 304 448 340 c 256,27,28
 450 376 450 376 453 421.5 c 128,-1,29
 456 467 456 467 461 536.5 c 128,-1,30
 466 606 466 606 475 714 c 1,31,-1
 584 714 l 1,32,-1
 526 0 l 1,33,-1
 377 0 l 1,34,-1
 325 276 l 2,35,36
 318 311 318 311 312.5 349 c 128,-1,37
 307 387 307 387 303 417 c 1,38,-1
 299 417 l 1,39,40
 295 387 295 387 289.5 348.5 c 128,-1,41
 284 310 284 310 277 276 c 2,42,-1
 226 0 l 1,43,-1
 79 0 l 1,0,-1
EndSplineSet
Validated: 33
Substitution2: "'c2sc' Capitals to Small Capitals lookup 32 subtable" w.sc
Substitution2: "'aalt' Access All Alternates lookup 0 subtable" w.sc
EndChar

StartChar: X
Encoding: 88 88 59
Width: 600
GlyphClass: 2
Flags: W
AnchorPoint: "Anchor-4" 580 714 basechar 0
AnchorPoint: "Anchor-3" 300 714 basechar 0
AnchorPoint: "Anchor-0" 300 0 basechar 0
LayerCount: 2
Fore
SplineSet
26 0 m 1,0,-1
 243 368 l 1,1,-1
 40 714 l 1,2,-1
 169 714 l 1,3,-1
 300 471 l 1,4,-1
 431 714 l 1,5,-1
 560 714 l 1,6,-1
 357 369 l 1,7,-1
 574 0 l 1,8,-1
 444 0 l 1,9,-1
 300 266 l 1,10,-1
 154 0 l 1,11,-1
 26 0 l 1,0,-1
EndSplineSet
Validated: 1
Substitution2: "'c2sc' Capitals to Small Capitals lookup 32 subtable" x.sc
Substitution2: "'aalt' Access All Alternates lookup 0 subtable" x.sc
EndChar

StartChar: Y
Encoding: 89 89 60
Width: 600
GlyphClass: 2
Flags: W
AnchorPoint: "Anchor-4" 580 714 basechar 0
AnchorPoint: "Anchor-3" 300 714 basechar 0
AnchorPoint: "Anchor-0" 300 0 basechar 0
LayerCount: 2
Fore
SplineSet
239 0 m 1,0,-1
 239 277 l 1,1,-1
 26 714 l 1,2,-1
 158 714 l 1,3,-1
 301 389 l 1,4,-1
 443 714 l 1,5,-1
 574 714 l 1,6,-1
 362 277 l 1,7,-1
 362 0 l 1,8,-1
 239 0 l 1,0,-1
EndSplineSet
Validated: 1
Substitution2: "'c2sc' Capitals to Small Capitals lookup 32 subtable" y.sc
Substitution2: "'aalt' Access All Alternates lookup 0 subtable" y.sc
EndChar

StartChar: Z
Encoding: 90 90 61
Width: 600
GlyphClass: 2
Flags: W
AnchorPoint: "Anchor-4" 580 714 basechar 0
AnchorPoint: "Anchor-3" 312 714 basechar 0
AnchorPoint: "Anchor-0" 312 0 basechar 0
LayerCount: 2
Fore
SplineSet
86 0 m 1,0,-1
 86 88 l 1,1,-1
 383 608 l 1,2,-1
 109 608 l 1,3,-1
 109 714 l 1,4,-1
 519 714 l 1,5,-1
 519 626 l 1,6,-1
 221 108 l 1,7,-1
 521 108 l 1,8,-1
 521 0 l 1,9,-1
 86 0 l 1,0,-1
EndSplineSet
Validated: 1
Substitution2: "'c2sc' Capitals to Small Capitals lookup 32 subtable" z.sc
Substitution2: "'aalt' Access All Alternates lookup 0 subtable" z.sc
EndChar

StartChar: bracketleft
Encoding: 91 91 62
Width: 600
Flags: W
LayerCount: 2
Fore
SplineSet
234 -156 m 1,0,-1
 234 722 l 1,1,-1
 468 722 l 1,2,-1
 468 632 l 1,3,-1
 343 632 l 1,4,-1
 343 -64 l 1,5,-1
 468 -64 l 1,6,-1
 468 -156 l 1,7,-1
 234 -156 l 1,0,-1
EndSplineSet
Validated: 1
Substitution2: "'smcp' Lowercase to Small Capitals lookup 33 subtable" bracketleft.sc
Substitution2: "'c2sc' Capitals to Small Capitals lookup 32 subtable" bracketleft.sc
Substitution2: "'aalt' Access All Alternates lookup 0 subtable" bracketleft.sc
EndChar

StartChar: asciicircum
Encoding: 94 94 65
Width: 600
Flags: W
LayerCount: 2
Fore
SplineSet
44 266 m 1,0,-1
 260 717 l 1,1,-1
 322 717 l 1,2,-1
 556 266 l 1,3,-1
 453 266 l 1,4,-1
 292 581 l 1,5,-1
 147 266 l 1,6,-1
 44 266 l 1,0,-1
EndSplineSet
Validated: 1
EndChar

StartChar: underscore
Encoding: 95 95 66
Width: 600
Flags: W
LayerCount: 2
Fore
SplineSet
0 -175 m 1,0,-1
 0 -70 l 1,1,-1
 600 -70 l 1,2,-1
 600 -175 l 1,3,-1
 0 -175 l 1,0,-1
EndSplineSet
Validated: 1
EndChar

StartChar: grave
Encoding: 96 96 67
Width: 600
Flags: W
LayerCount: 2
Fore
SplineSet
310 606 m 1,0,1
 288 623 288 623 257.5 651.5 c 128,-1,2
 227 680 227 680 198.5 709 c 128,-1,3
 170 738 170 738 156 757 c 1,4,-1
 156 766 l 1,5,-1
 294 766 l 1,6,7
 306 744 306 744 323 716.5 c 128,-1,8
 340 689 340 689 359 662.5 c 128,-1,9
 378 636 378 636 392 619 c 1,10,-1
 392 606 l 1,11,-1
 310 606 l 1,0,1
EndSplineSet
Validated: 1
EndChar

StartChar: a
Encoding: 97 97 68
Width: 600
GlyphClass: 2
Flags: W
AnchorPoint: "Anchor-4" 580 542 basechar 0
AnchorPoint: "Anchor-3" 307 542 basechar 0
AnchorPoint: "Anchor-2" 540 10 basechar 0
AnchorPoint: "Anchor-0" 304 0 basechar 0
LayerCount: 2
Fore
SplineSet
232 -10 m 0,0,1
 148 -10 148 -10 103 33 c 128,-1,2
 58 76 58 76 58 154 c 0,3,4
 58 244 58 244 118 286.5 c 128,-1,5
 178 329 178 329 291 332 c 2,6,-1
 409 335 l 1,7,-1
 409 358 l 2,8,9
 409 408 409 408 378.5 430 c 128,-1,10
 348 452 348 452 291 452 c 0,11,12
 214 452 214 452 133 416 c 1,13,-1
 92 505 l 1,14,15
 136 527 136 527 186.5 539.5 c 128,-1,16
 237 552 237 552 296 552 c 0,17,18
 406 552 406 552 466 505.5 c 128,-1,19
 526 459 526 459 526 362 c 2,20,-1
 526 0 l 1,21,-1
 430 0 l 1,22,-1
 412 71 l 1,23,-1
 408 71 l 1,24,25
 372 28 372 28 328 9 c 128,-1,26
 284 -10 284 -10 232 -10 c 0,0,1
269 89 m 0,27,28
 326 89 326 89 367.5 120.5 c 128,-1,29
 409 152 409 152 409 210 c 2,30,-1
 409 256 l 1,31,-1
 321 254 l 2,32,33
 177 250 177 250 177 163 c 0,34,35
 177 123 177 123 203 106 c 128,-1,36
 229 89 229 89 269 89 c 0,27,28
EndSplineSet
Validated: 1
Substitution2: "'smcp' Lowercase to Small Capitals lookup 33 subtable" a.sc
Substitution2: "Single Substitution lookup 30 subtable" ordfeminine
AlternateSubs2: "'aalt' Access All Alternates lookup 1 subtable" ordfeminine a.sc
EndChar

StartChar: b
Encoding: 98 98 69
Width: 600
GlyphClass: 2
Flags: W
AnchorPoint: "Anchor-4" 580 760 basechar 0
AnchorPoint: "Anchor-3" 300 760 basechar 0
AnchorPoint: "Anchor-0" 300 0 basechar 0
LayerCount: 2
Fore
SplineSet
345 -10 m 0,0,1
 293 -10 293 -10 252 10 c 128,-1,2
 211 30 211 30 185 63 c 1,3,-1
 177 63 l 1,4,-1
 160 0 l 1,5,-1
 64 0 l 1,6,-1
 64 760 l 1,7,-1
 186 760 l 1,8,-1
 186 580 l 2,9,10
 186 538 186 538 180 472 c 1,11,-1
 186 472 l 1,12,13
 210 509 210 509 251 530.5 c 128,-1,14
 292 552 292 552 346 552 c 0,15,16
 415 552 415 552 461.5 517 c 128,-1,17
 508 482 508 482 531 419 c 128,-1,18
 554 356 554 356 554 273 c 0,19,20
 554 188 554 188 530 124.5 c 128,-1,21
 506 61 506 61 459.5 25.5 c 128,-1,22
 413 -10 413 -10 345 -10 c 0,0,1
308 92 m 0,23,24
 368 92 368 92 398 138 c 128,-1,25
 428 184 428 184 428 273 c 0,26,27
 428 450 428 450 307 450 c 0,28,29
 251 450 251 450 218.5 408 c 128,-1,30
 186 366 186 366 186 274 c 0,31,32
 186 92 186 92 308 92 c 0,23,24
EndSplineSet
Validated: 1
Substitution2: "'smcp' Lowercase to Small Capitals lookup 33 subtable" b.sc
Substitution2: "'aalt' Access All Alternates lookup 0 subtable" b.sc
EndChar

StartChar: c
Encoding: 99 99 70
Width: 600
GlyphClass: 2
Flags: W
AnchorPoint: "Anchor-4" 580 542 basechar 0
AnchorPoint: "Anchor-3" 326 542 basechar 0
AnchorPoint: "Anchor-0" 331 0 basechar 0
LayerCount: 2
Fore
SplineSet
339 -10 m 0,0,1
 208 -10 208 -10 142 57.5 c 128,-1,2
 76 125 76 125 76 265 c 0,3,4
 76 412 76 412 146 482 c 128,-1,5
 216 552 216 552 345 552 c 0,6,7
 388 552 388 552 431 544 c 128,-1,8
 474 536 474 536 514 517 c 1,9,-1
 478 418 l 1,10,11
 440 434 440 434 409 440 c 128,-1,12
 378 446 378 446 352 446 c 0,13,14
 275 446 275 446 238.5 402 c 128,-1,15
 202 358 202 358 202 269 c 0,16,17
 202 177 202 177 240 136.5 c 128,-1,18
 278 96 278 96 352 96 c 0,19,20
 388 96 388 96 426 105.5 c 128,-1,21
 464 115 464 115 501 136 c 1,22,-1
 501 25 l 1,23,24
 463 6 463 6 422.5 -2 c 128,-1,25
 382 -10 382 -10 339 -10 c 0,0,1
EndSplineSet
Validated: 1
Substitution2: "'smcp' Lowercase to Small Capitals lookup 33 subtable" c.sc
Substitution2: "'aalt' Access All Alternates lookup 0 subtable" c.sc
EndChar

StartChar: d
Encoding: 100 100 71
Width: 600
GlyphClass: 2
Flags: W
AnchorPoint: "Anchor-4" 580 760 basechar 0
AnchorPoint: "Anchor-3" 300 760 basechar 0
AnchorPoint: "Anchor-1" 300 271 basechar 0
AnchorPoint: "Anchor-0" 300 0 basechar 0
LayerCount: 2
Fore
SplineSet
255 -10 m 0,0,1
 186 -10 186 -10 139.5 25 c 128,-1,2
 93 60 93 60 69.5 123.5 c 128,-1,3
 46 187 46 187 46 272 c 0,4,5
 46 356 46 356 69.5 419 c 128,-1,6
 93 482 93 482 141.5 517 c 128,-1,7
 190 552 190 552 265 552 c 0,8,9
 319 552 319 552 356 531 c 128,-1,10
 393 510 393 510 417 473 c 1,11,-1
 423 473 l 1,12,13
 414 522 414 522 414 578 c 2,14,-1
 414 760 l 1,15,-1
 536 760 l 1,16,-1
 536 0 l 1,17,-1
 439 0 l 1,18,-1
 417 71 l 1,19,-1
 411 71 l 1,20,21
 387 33 387 33 347.5 11.5 c 128,-1,22
 308 -10 308 -10 255 -10 c 0,0,1
297 92 m 0,23,24
 359 92 359 92 389.5 134 c 128,-1,25
 420 176 420 176 420 252 c 2,26,-1
 420 269 l 2,27,28
 420 321 420 321 409.5 362 c 128,-1,29
 399 403 399 403 373 426.5 c 128,-1,30
 347 450 347 450 301 450 c 0,31,32
 172 450 172 450 172 265 c 0,33,34
 172 176 172 176 202.5 134 c 128,-1,35
 233 92 233 92 297 92 c 0,23,24
EndSplineSet
Validated: 1
Substitution2: "'smcp' Lowercase to Small Capitals lookup 33 subtable" d.sc
Substitution2: "'aalt' Access All Alternates lookup 0 subtable" d.sc
EndChar

StartChar: e
Encoding: 101 101 72
Width: 600
GlyphClass: 2
Flags: W
AnchorPoint: "Anchor-4" 580 542 basechar 0
AnchorPoint: "Anchor-3" 308 542 basechar 0
AnchorPoint: "Anchor-2" 308 10 basechar 0
AnchorPoint: "Anchor-0" 310 0 basechar 0
LayerCount: 2
Fore
SplineSet
346 -10 m 0,0,1
 207 -10 207 -10 130.5 63 c 128,-1,2
 54 136 54 136 54 272 c 0,3,4
 54 358 54 358 84.5 421 c 128,-1,5
 115 484 115 484 172.5 518 c 128,-1,6
 230 552 230 552 310 552 c 0,7,8
 422 552 422 552 484 484.5 c 128,-1,9
 546 417 546 417 546 299 c 2,10,-1
 546 239 l 1,11,-1
 176 239 l 1,12,13
 178 161 178 161 228.5 126.5 c 128,-1,14
 279 92 279 92 353 92 c 0,15,16
 394 92 394 92 437 102.5 c 128,-1,17
 480 113 480 113 527 132 c 1,18,-1
 527 29 l 1,19,20
 482 7 482 7 436 -1.5 c 128,-1,21
 390 -10 390 -10 346 -10 c 0,0,1
179 327 m 1,22,-1
 431 327 l 1,23,24
 430 387 430 387 397.5 421.5 c 128,-1,25
 365 456 365 456 312 456 c 0,26,27
 258 456 258 456 222 422 c 128,-1,28
 186 388 186 388 179 327 c 1,22,-1
EndSplineSet
Validated: 1
Substitution2: "'smcp' Lowercase to Small Capitals lookup 33 subtable" e.sc
Substitution2: "'aalt' Access All Alternates lookup 0 subtable" e.sc
EndChar

StartChar: f
Encoding: 102 102 73
Width: 600
GlyphClass: 2
Flags: W
AnchorPoint: "Anchor-4" 580 765 basechar 0
AnchorPoint: "Anchor-3" 401 762 basechar 0
AnchorPoint: "Anchor-0" 300 0 basechar 0
LayerCount: 2
Fore
SplineSet
224 0 m 1,0,-1
 224 439 l 1,1,-1
 67 439 l 1,2,-1
 67 519 l 1,3,-1
 224 542 l 1,4,-1
 224 587 l 2,5,6
 224 682 224 682 276.5 723.5 c 128,-1,7
 329 765 329 765 427 765 c 0,8,9
 468 765 468 765 506 759 c 128,-1,10
 544 753 544 753 576 743 c 1,11,-1
 545 646 l 1,12,13
 522 654 522 654 494.5 657 c 128,-1,14
 467 660 467 660 447 660 c 0,15,16
 398 660 398 660 373 639.5 c 128,-1,17
 348 619 348 619 348 573 c 2,18,-1
 348 542 l 1,19,-1
 534 542 l 1,20,-1
 534 439 l 1,21,-1
 348 439 l 1,22,-1
 348 0 l 1,23,-1
 224 0 l 1,0,-1
EndSplineSet
Validated: 1
Substitution2: "'smcp' Lowercase to Small Capitals lookup 33 subtable" f.sc
Substitution2: "'aalt' Access All Alternates lookup 0 subtable" f.sc
EndChar

StartChar: g
Encoding: 103 103 74
Width: 600
GlyphClass: 2
Flags: W
AnchorPoint: "Anchor-4" 580 542 basechar 0
AnchorPoint: "Anchor-3" 300 542 basechar 0
AnchorPoint: "Anchor-0" 300 -245 basechar 0
LayerCount: 2
Fore
SplineSet
266 -245 m 0,0,1
 218 -245 218 -245 171 -236.5 c 128,-1,2
 124 -228 124 -228 80 -211 c 1,3,-1
 80 -96 l 1,4,5
 126 -118 126 -118 176.5 -129 c 128,-1,6
 227 -140 227 -140 271 -139 c 0,7,8
 348 -139 348 -139 380.5 -106.5 c 128,-1,9
 413 -74 413 -74 413 -10 c 2,10,-1
 413 4 l 2,11,12
 413 19 413 19 414 33.5 c 128,-1,13
 415 48 415 48 417 65 c 1,14,-1
 413 65 l 1,15,16
 385 24 385 24 347.5 7 c 128,-1,17
 310 -10 310 -10 260 -10 c 0,18,19
 159 -10 159 -10 102.5 64 c 128,-1,20
 46 138 46 138 46 270 c 256,21,22
 46 402 46 402 102 477.5 c 128,-1,23
 158 553 158 553 257 553 c 0,24,25
 308 553 308 553 346 533.5 c 128,-1,26
 384 514 384 514 412 474 c 1,27,-1
 417 474 l 1,28,-1
 440 542 l 1,29,-1
 536 542 l 1,30,-1
 536 -6 l 2,31,32
 536 -122 536 -122 470 -183.5 c 128,-1,33
 404 -245 404 -245 266 -245 c 0,0,1
299 92 m 0,34,35
 360 92 360 92 390 132.5 c 128,-1,36
 420 173 420 173 420 250 c 2,37,-1
 420 269 l 2,38,39
 420 365 420 365 389 407.5 c 128,-1,40
 358 450 358 450 296 450 c 0,41,42
 232 450 232 450 202 403 c 128,-1,43
 172 356 172 356 172 271 c 0,44,45
 172 184 172 184 203 138 c 128,-1,46
 234 92 234 92 299 92 c 0,34,35
EndSplineSet
Validated: 33
Substitution2: "'smcp' Lowercase to Small Capitals lookup 33 subtable" g.sc
Substitution2: "'aalt' Access All Alternates lookup 0 subtable" g.sc
EndChar

StartChar: h
Encoding: 104 104 75
Width: 600
GlyphClass: 2
Flags: W
AnchorPoint: "Anchor-4" 580 760 basechar 0
AnchorPoint: "Anchor-3" 128 760 basechar 0
AnchorPoint: "Anchor-1" 300 271 basechar 0
AnchorPoint: "Anchor-0" 300 0 basechar 0
LayerCount: 2
Fore
SplineSet
64 0 m 1,0,-1
 64 760 l 1,1,-1
 189 760 l 1,2,-1
 189 582 l 2,3,4
 189 555 189 555 187.5 524 c 128,-1,5
 186 493 186 493 185 466 c 1,6,-1
 192 466 l 1,7,8
 218 509 218 509 257 530.5 c 128,-1,9
 296 552 296 552 352 552 c 0,10,11
 440 552 440 552 490.5 502.5 c 128,-1,12
 541 453 541 453 541 354 c 2,13,-1
 541 0 l 1,14,-1
 416 0 l 1,15,-1
 416 324 l 2,16,17
 416 393 416 393 389 421.5 c 128,-1,18
 362 450 362 450 314 450 c 0,19,20
 189 450 189 450 189 265 c 2,21,-1
 189 0 l 1,22,-1
 64 0 l 1,0,-1
EndSplineSet
Validated: 1
Substitution2: "'smcp' Lowercase to Small Capitals lookup 33 subtable" h.sc
Substitution2: "'subs' Subscript lookup 20 subtable" uni2095
AlternateSubs2: "'aalt' Access All Alternates lookup 1 subtable" h.sc uni2095
EndChar

StartChar: i
Encoding: 105 105 76
Width: 600
GlyphClass: 2
Flags: W
AnchorPoint: "Anchor-4" 505 770 basechar 0
AnchorPoint: "Anchor-3" 312 770 basechar 0
AnchorPoint: "Anchor-0" 319 0 basechar 0
LayerCount: 2
Fore
SplineSet
312 617 m 0,0,1
 275 617 275 617 254.5 636.5 c 128,-1,2
 234 656 234 656 234 694 c 256,3,4
 234 732 234 732 255 751 c 128,-1,5
 276 770 276 770 313 770 c 256,6,7
 350 770 350 770 371 751 c 128,-1,8
 392 732 392 732 392 694 c 256,9,10
 392 656 392 656 371 636.5 c 128,-1,11
 350 617 350 617 312 617 c 0,0,1
68 0 m 1,12,-1
 68 79 l 1,13,-1
 253 103 l 1,14,-1
 253 439 l 1,15,-1
 90 455 l 1,16,-1
 90 542 l 1,17,-1
 377 542 l 1,18,-1
 377 103 l 1,19,-1
 546 79 l 1,20,-1
 546 0 l 1,21,-1
 68 0 l 1,12,-1
EndSplineSet
Validated: 1
Substitution2: "'smcp' Lowercase to Small Capitals lookup 33 subtable" i.sc
Substitution2: "Single Substitution lookup 5 subtable" dotlessi
Substitution2: "Single Substitution lookup 4 subtable" dotlessi
AlternateSubs2: "'aalt' Access All Alternates lookup 1 subtable" dotlessi i.sc
EndChar

StartChar: j
Encoding: 106 106 77
Width: 600
GlyphClass: 2
Flags: W
AnchorPoint: "Anchor-4" 580 770 basechar 0
AnchorPoint: "Anchor-3" 340 770 basechar 0
AnchorPoint: "Anchor-0" 217 -245 basechar 0
LayerCount: 2
Fore
SplineSet
344 617 m 0,0,1
 307 617 307 617 286.5 636.5 c 128,-1,2
 266 656 266 656 266 694 c 0,3,4
 266 770 266 770 345 770 c 0,5,6
 382 770 382 770 403 751 c 128,-1,7
 424 732 424 732 424 695 c 0,8,9
 424 657 424 657 403 637 c 128,-1,10
 382 617 382 617 344 617 c 0,0,1
194 -245 m 0,11,12
 160 -245 160 -245 120.5 -240 c 128,-1,13
 81 -235 81 -235 48 -225 c 1,14,-1
 48 -118 l 1,15,16
 80 -128 80 -128 115 -133 c 128,-1,17
 150 -138 150 -138 177 -138 c 0,18,19
 239 -138 239 -138 266 -108 c 128,-1,20
 293 -78 293 -78 293 -8 c 2,21,-1
 293 439 l 1,22,-1
 130 455 l 1,23,-1
 130 542 l 1,24,-1
 417 542 l 1,25,-1
 417 -31 l 2,26,27
 417 -245 417 -245 194 -245 c 0,11,12
EndSplineSet
Validated: 1
Substitution2: "'smcp' Lowercase to Small Capitals lookup 33 subtable" j.sc
Substitution2: "Single Substitution lookup 5 subtable" uni0237
Substitution2: "Single Substitution lookup 4 subtable" uni0237
AlternateSubs2: "'aalt' Access All Alternates lookup 1 subtable" uni0237 j.sc
EndChar

StartChar: k
Encoding: 107 107 78
Width: 600
GlyphClass: 2
Flags: W
AnchorPoint: "Anchor-4" 580 760 basechar 0
AnchorPoint: "Anchor-3" 340 760 basechar 0
AnchorPoint: "Anchor-0" 328 0 basechar 0
LayerCount: 2
Fore
SplineSet
77 0 m 1,0,-1
 77 760 l 1,1,-1
 201 760 l 1,2,-1
 201 403 l 2,3,4
 201 372 201 372 199 340 c 128,-1,5
 197 308 197 308 194 275 c 1,6,-1
 196 275 l 1,7,8
 212 298 212 298 228.5 319.5 c 128,-1,9
 245 341 245 341 264 363 c 2,10,-1
 421 542 l 1,11,-1
 566 542 l 1,12,-1
 361 314 l 1,13,-1
 579 0 l 1,14,-1
 443 0 l 1,15,-1
 282 236 l 1,16,-1
 201 168 l 1,17,-1
 201 0 l 1,18,-1
 77 0 l 1,0,-1
EndSplineSet
Validated: 1
Substitution2: "'smcp' Lowercase to Small Capitals lookup 33 subtable" k.sc
Substitution2: "'subs' Subscript lookup 20 subtable" uni2096
AlternateSubs2: "'aalt' Access All Alternates lookup 1 subtable" k.sc uni2096
EndChar

StartChar: l
Encoding: 108 108 79
Width: 600
GlyphClass: 2
Flags: W
AnchorPoint: "Anchor-4" 496 760 basechar 0
AnchorPoint: "Anchor-3" 300 760 basechar 0
AnchorPoint: "Anchor-1" 318 380 basechar 0
AnchorPoint: "Anchor-0" 318 0 basechar 0
LayerCount: 2
Fore
SplineSet
68 0 m 1,0,-1
 68 79 l 1,1,-1
 254 103 l 1,2,-1
 254 657 l 1,3,-1
 92 681 l 1,4,-1
 92 760 l 1,5,-1
 378 760 l 1,6,-1
 378 103 l 1,7,-1
 546 79 l 1,8,-1
 546 0 l 1,9,-1
 68 0 l 1,0,-1
EndSplineSet
Validated: 1
Substitution2: "'smcp' Lowercase to Small Capitals lookup 33 subtable" l.sc
Substitution2: "'subs' Subscript lookup 20 subtable" uni2097
AlternateSubs2: "'aalt' Access All Alternates lookup 1 subtable" l.sc uni2097
EndChar

StartChar: m
Encoding: 109 109 80
Width: 600
GlyphClass: 2
Flags: W
AnchorPoint: "Anchor-4" 580 542 basechar 0
AnchorPoint: "Anchor-3" 328 542 basechar 0
AnchorPoint: "Anchor-0" 308 0 basechar 0
LayerCount: 2
Fore
SplineSet
38 0 m 1,0,-1
 38 542 l 1,1,-1
 122 542 l 1,2,-1
 137 478 l 1,3,-1
 144 478 l 1,4,5
 160 518 160 518 184 535 c 128,-1,6
 208 552 208 552 244 552 c 0,7,8
 287 552 287 552 309.5 530.5 c 128,-1,9
 332 509 332 509 342 467 c 1,10,-1
 346 467 l 1,11,12
 364 508 364 508 389 530 c 128,-1,13
 414 552 414 552 457 552 c 0,14,15
 520 552 520 552 541.5 502.5 c 128,-1,16
 563 453 563 453 563 353 c 2,17,-1
 563 0 l 1,18,-1
 455 0 l 1,19,-1
 455 366 l 2,20,21
 455 405 455 405 447.5 426.5 c 128,-1,22
 440 448 440 448 412 448 c 0,23,24
 382 448 382 448 368.5 417 c 128,-1,25
 355 386 355 386 355 321 c 2,26,-1
 355 0 l 1,27,-1
 246 0 l 1,28,-1
 246 366 l 2,29,30
 246 406 246 406 237 427 c 128,-1,31
 228 448 228 448 200 448 c 0,32,33
 169 448 169 448 157.5 416.5 c 128,-1,34
 146 385 146 385 146 321 c 2,35,-1
 146 0 l 1,36,-1
 38 0 l 1,0,-1
EndSplineSet
Validated: 1
Substitution2: "'smcp' Lowercase to Small Capitals lookup 33 subtable" m.sc
Substitution2: "'subs' Subscript lookup 20 subtable" uni2098
AlternateSubs2: "'aalt' Access All Alternates lookup 1 subtable" m.sc uni2098
EndChar

StartChar: n
Encoding: 110 110 81
Width: 600
GlyphClass: 2
Flags: W
AnchorPoint: "Anchor-4" 580 542 basechar 0
AnchorPoint: "Anchor-3" 307 542 basechar 0
AnchorPoint: "Anchor-0" 305 0 basechar 0
LayerCount: 2
Fore
SplineSet
64 0 m 1,0,-1
 64 542 l 1,1,-1
 160 542 l 1,2,-1
 180 469 l 1,3,-1
 187 469 l 1,4,5
 211 511 211 511 254.5 531.5 c 128,-1,6
 298 552 298 552 356 552 c 0,7,8
 443 552 443 552 492 503 c 128,-1,9
 541 454 541 454 541 357 c 2,10,-1
 541 0 l 1,11,-1
 416 0 l 1,12,-1
 416 328 l 2,13,14
 416 450 416 450 315 450 c 0,15,16
 247 450 247 450 218 400 c 128,-1,17
 189 350 189 350 189 264 c 2,18,-1
 189 0 l 1,19,-1
 64 0 l 1,0,-1
EndSplineSet
Validated: 1
Substitution2: "'smcp' Lowercase to Small Capitals lookup 33 subtable" n.sc
Substitution2: "'sups' Superscript lookup 21 subtable" nsuperior
Substitution2: "'subs' Subscript lookup 20 subtable" uni2099
AlternateSubs2: "'aalt' Access All Alternates lookup 1 subtable" nsuperior n.sc uni2099
EndChar

StartChar: o
Encoding: 111 111 82
Width: 600
GlyphClass: 2
Flags: W
AnchorPoint: "Anchor-4" 580 542 basechar 0
AnchorPoint: "Anchor-3" 300 542 basechar 0
AnchorPoint: "Anchor-2" 303 10 basechar 0
AnchorPoint: "Anchor-1" 300 271 basechar 0
AnchorPoint: "Anchor-0" 300 0 basechar 0
LayerCount: 2
Fore
SplineSet
300 -10 m 0,0,1
 184 -10 184 -10 115 64 c 128,-1,2
 46 138 46 138 46 271 c 256,3,4
 46 404 46 404 115 478 c 128,-1,5
 184 552 184 552 300 552 c 0,6,7
 376 552 376 552 433 519.5 c 128,-1,8
 490 487 490 487 522 424.5 c 128,-1,9
 554 362 554 362 554 271 c 0,10,11
 554 139 554 139 486 64.5 c 128,-1,12
 418 -10 418 -10 300 -10 c 0,0,1
301 90 m 256,13,14
 366 90 366 90 397 138.5 c 128,-1,15
 428 187 428 187 428 271 c 0,16,17
 428 354 428 354 397.5 403 c 128,-1,18
 367 452 367 452 301 452 c 0,19,20
 236 452 236 452 203.5 403.5 c 128,-1,21
 171 355 171 355 171 271 c 0,22,23
 171 188 171 188 203.5 139 c 128,-1,24
 236 90 236 90 301 90 c 256,13,14
EndSplineSet
Validated: 1
Substitution2: "'smcp' Lowercase to Small Capitals lookup 33 subtable" o.sc
Substitution2: "Single Substitution lookup 30 subtable" ordmasculine
AlternateSubs2: "'aalt' Access All Alternates lookup 1 subtable" ordmasculine o.sc
EndChar

StartChar: p
Encoding: 112 112 83
Width: 600
GlyphClass: 2
Flags: W
AnchorPoint: "Anchor-4" 580 542 basechar 0
AnchorPoint: "Anchor-3" 329 542 basechar 0
AnchorPoint: "Anchor-0" 329 -240 basechar 0
LayerCount: 2
Fore
SplineSet
64 -240 m 1,0,-1
 64 542 l 1,1,-1
 161 542 l 1,2,-1
 181 470 l 1,3,-1
 186 470 l 1,4,5
 238 552 238 552 347 552 c 0,6,7
 416 552 416 552 462 517 c 128,-1,8
 508 482 508 482 531 419 c 128,-1,9
 554 356 554 356 554 272 c 0,10,11
 554 137 554 137 497 63.5 c 128,-1,12
 440 -10 440 -10 344 -10 c 0,13,14
 294 -10 294 -10 253 10 c 128,-1,15
 212 30 212 30 186 63 c 1,16,-1
 180 63 l 1,17,18
 184 35 184 35 185 14.5 c 128,-1,19
 186 -6 186 -6 186 -16 c 2,20,-1
 186 -240 l 1,21,-1
 64 -240 l 1,0,-1
309 92 m 0,22,23
 370 92 370 92 398 136 c 128,-1,24
 426 180 426 180 426 274 c 0,25,26
 426 362 426 362 398 406 c 128,-1,27
 370 450 370 450 308 450 c 0,28,29
 248 450 248 450 217 408 c 128,-1,30
 186 366 186 366 186 290 c 2,31,-1
 186 273 l 2,32,33
 186 184 186 184 215.5 138 c 128,-1,34
 245 92 245 92 309 92 c 0,22,23
EndSplineSet
Validated: 1
Substitution2: "'smcp' Lowercase to Small Capitals lookup 33 subtable" p.sc
Substitution2: "'subs' Subscript lookup 20 subtable" uni209A
AlternateSubs2: "'aalt' Access All Alternates lookup 1 subtable" p.sc uni209A
EndChar

StartChar: q
Encoding: 113 113 84
Width: 600
GlyphClass: 2
Flags: W
AnchorPoint: "Anchor-4" 580 542 basechar 0
AnchorPoint: "Anchor-3" 280 542 basechar 0
AnchorPoint: "Anchor-0" 280 -240 basechar 0
LayerCount: 2
Fore
SplineSet
414 -240 m 1,0,-1
 414 -11 l 2,1,2
 414 6 414 6 415 26.5 c 128,-1,3
 416 47 416 47 418 71 c 1,4,-1
 414 71 l 1,5,6
 392 35 392 35 351 12.5 c 128,-1,7
 310 -10 310 -10 254 -10 c 0,8,9
 186 -10 186 -10 139.5 25 c 128,-1,10
 93 60 93 60 69.5 123 c 128,-1,11
 46 186 46 186 46 270 c 256,12,13
 46 354 46 354 70 417.5 c 128,-1,14
 94 481 94 481 141 516.5 c 128,-1,15
 188 552 188 552 258 552 c 0,16,17
 310 552 310 552 350.5 531 c 128,-1,18
 391 510 391 510 417 471 c 1,19,-1
 422 471 l 1,20,-1
 440 542 l 1,21,-1
 536 542 l 1,22,-1
 536 -240 l 1,23,-1
 414 -240 l 1,0,-1
296 92 m 256,24,25
 360 92 360 92 389 135 c 128,-1,26
 418 178 418 178 418 251 c 2,27,-1
 418 269 l 2,28,29
 418 450 418 450 295 450 c 0,30,31
 232 450 232 450 203 403.5 c 128,-1,32
 174 357 174 357 174 269 c 0,33,34
 174 185 174 185 203 138.5 c 128,-1,35
 232 92 232 92 296 92 c 256,24,25
EndSplineSet
Validated: 1
Substitution2: "'smcp' Lowercase to Small Capitals lookup 33 subtable" q.sc
Substitution2: "'aalt' Access All Alternates lookup 0 subtable" q.sc
EndChar

StartChar: r
Encoding: 114 114 85
Width: 600
GlyphClass: 2
Flags: W
AnchorPoint: "Anchor-4" 580 542 basechar 0
AnchorPoint: "Anchor-3" 334 542 basechar 0
AnchorPoint: "Anchor-0" 264 0 basechar 0
LayerCount: 2
Fore
SplineSet
49 0 m 1,0,-1
 49 79 l 1,1,-1
 199 103 l 1,2,-1
 199 439 l 1,3,-1
 72 455 l 1,4,-1
 72 542 l 1,5,-1
 295 542 l 1,6,-1
 312 448 l 1,7,-1
 318 448 l 1,8,9
 345 496 345 496 382.5 524 c 128,-1,10
 420 552 420 552 479 552 c 0,11,12
 502 552 502 552 528 548 c 128,-1,13
 554 544 554 544 579 533 c 1,14,-1
 546 419 l 1,15,16
 530 426 530 426 508.5 431 c 128,-1,17
 487 436 487 436 464 436 c 0,18,19
 420 436 420 436 388 413 c 128,-1,20
 356 390 356 390 339.5 351 c 128,-1,21
 323 312 323 312 323 265 c 2,22,-1
 323 103 l 1,23,-1
 471 79 l 1,24,-1
 471 0 l 1,25,-1
 49 0 l 1,0,-1
EndSplineSet
Validated: 1
Substitution2: "'smcp' Lowercase to Small Capitals lookup 33 subtable" r.sc
Substitution2: "'aalt' Access All Alternates lookup 0 subtable" r.sc
EndChar

StartChar: s
Encoding: 115 115 86
Width: 600
GlyphClass: 2
Flags: W
AnchorPoint: "Anchor-4" 580 542 basechar 0
AnchorPoint: "Anchor-3" 305 542 basechar 0
AnchorPoint: "Anchor-0" 305 0 basechar 0
LayerCount: 2
Fore
SplineSet
275 -10 m 0,0,1
 225 -10 225 -10 178.5 -2 c 128,-1,2
 132 6 132 6 89 23 c 1,3,-1
 89 138 l 1,4,5
 129 121 129 121 178.5 107 c 128,-1,6
 228 93 228 93 287 93 c 0,7,8
 384 93 384 93 384 149 c 0,9,10
 384 168 384 168 371 180.5 c 128,-1,11
 358 193 358 193 330 205.5 c 128,-1,12
 302 218 302 218 256 236 c 0,13,14
 208 256 208 256 172 275.5 c 128,-1,15
 136 295 136 295 115.5 324 c 128,-1,16
 95 353 95 353 95 399 c 0,17,18
 95 478 95 478 154.5 515 c 128,-1,19
 214 552 214 552 312 552 c 0,20,21
 362 552 362 552 410.5 542.5 c 128,-1,22
 459 533 459 533 507 513 c 1,23,-1
 469 417 l 1,24,25
 384 450 384 450 309 450 c 0,26,27
 220 450 220 450 220 403 c 0,28,29
 220 373 220 373 251 358 c 128,-1,30
 282 343 282 343 344 319 c 0,31,32
 392 300 392 300 429.5 280.5 c 128,-1,33
 467 261 467 261 489 230.5 c 128,-1,34
 511 200 511 200 511 149 c 0,35,36
 511 68 511 68 451 29 c 128,-1,37
 391 -10 391 -10 275 -10 c 0,0,1
EndSplineSet
Validated: 1
Substitution2: "'smcp' Lowercase to Small Capitals lookup 33 subtable" s.sc
Substitution2: "'subs' Subscript lookup 20 subtable" uni209B
AlternateSubs2: "'aalt' Access All Alternates lookup 1 subtable" s.sc uni209B
EndChar

StartChar: t
Encoding: 116 116 87
Width: 600
GlyphClass: 2
Flags: W
AnchorPoint: "Anchor-4" 580 681 basechar 0
AnchorPoint: "Anchor-3" 264 681 basechar 0
AnchorPoint: "Anchor-1" 258 271 basechar 0
AnchorPoint: "Anchor-0" 369 0 basechar 0
LayerCount: 2
Fore
SplineSet
395 -10 m 0,0,1
 297 -10 297 -10 242 33 c 128,-1,2
 187 76 187 76 187 179 c 2,3,-1
 187 439 l 1,4,-1
 54 439 l 1,5,-1
 54 519 l 1,6,-1
 194 543 l 1,7,-1
 216 681 l 1,8,-1
 311 681 l 1,9,-1
 311 542 l 1,10,-1
 518 542 l 1,11,-1
 518 439 l 1,12,-1
 311 439 l 1,13,-1
 311 194 l 2,14,15
 311 135 311 135 339 114 c 128,-1,16
 367 93 367 93 415 93 c 0,17,18
 440 93 440 93 467 97 c 128,-1,19
 494 101 494 101 527 108 c 1,20,-1
 527 10 l 1,21,22
 461 -10 461 -10 395 -10 c 0,0,1
EndSplineSet
Validated: 1
Substitution2: "'smcp' Lowercase to Small Capitals lookup 33 subtable" t.sc
Substitution2: "'subs' Subscript lookup 20 subtable" uni209C
AlternateSubs2: "'aalt' Access All Alternates lookup 1 subtable" t.sc uni209C
EndChar

StartChar: u
Encoding: 117 117 88
Width: 600
GlyphClass: 2
Flags: W
AnchorPoint: "Anchor-4" 580 542 basechar 0
AnchorPoint: "Anchor-3" 300 542 basechar 0
AnchorPoint: "Anchor-2" 540 10 basechar 0
AnchorPoint: "Anchor-0" 300 0 basechar 0
LayerCount: 2
Fore
SplineSet
244 -10 m 0,0,1
 154 -10 154 -10 106.5 40 c 128,-1,2
 59 90 59 90 59 186 c 2,3,-1
 59 542 l 1,4,-1
 184 542 l 1,5,-1
 184 214 l 2,6,7
 184 156 184 156 205.5 124 c 128,-1,8
 227 92 227 92 283 92 c 0,9,10
 334 92 334 92 361.5 114.5 c 128,-1,11
 389 137 389 137 400 178.5 c 128,-1,12
 411 220 411 220 411 278 c 2,13,-1
 411 542 l 1,14,-1
 536 542 l 1,15,-1
 536 0 l 1,16,-1
 440 0 l 1,17,-1
 420 71 l 1,18,-1
 413 71 l 1,19,20
 388 30 388 30 344 10 c 128,-1,21
 300 -10 300 -10 244 -10 c 0,0,1
EndSplineSet
Validated: 1
Substitution2: "'smcp' Lowercase to Small Capitals lookup 33 subtable" u.sc
Substitution2: "'aalt' Access All Alternates lookup 0 subtable" u.sc
EndChar

StartChar: v
Encoding: 118 118 89
Width: 600
GlyphClass: 2
Flags: W
AnchorPoint: "Anchor-4" 580 542 basechar 0
AnchorPoint: "Anchor-3" 300 542 basechar 0
AnchorPoint: "Anchor-0" 300 0 basechar 0
LayerCount: 2
Fore
SplineSet
231 0 m 1,0,-1
 29 542 l 1,1,-1
 161 542 l 1,2,-1
 265 229 l 2,3,4
 275 198 275 198 284 167 c 128,-1,5
 293 136 293 136 300 105 c 1,6,-1
 303 105 l 1,7,8
 310 136 310 136 318 165 c 128,-1,9
 326 194 326 194 337 228 c 2,10,-1
 439 542 l 1,11,-1
 570 542 l 1,12,-1
 368 0 l 1,13,-1
 231 0 l 1,0,-1
EndSplineSet
Validated: 1
Substitution2: "'smcp' Lowercase to Small Capitals lookup 33 subtable" v.sc
Substitution2: "'aalt' Access All Alternates lookup 0 subtable" v.sc
EndChar

StartChar: w
Encoding: 119 119 90
Width: 600
GlyphClass: 2
Flags: W
AnchorPoint: "Anchor-4" 580 542 basechar 0
AnchorPoint: "Anchor-3" 302 542 basechar 0
AnchorPoint: "Anchor-0" 302 0 basechar 0
LayerCount: 2
Fore
SplineSet
88 0 m 1,0,-1
 8 542 l 1,1,-1
 122 542 l 1,2,-1
 152 267 l 2,3,4
 157 226 157 226 159.5 192 c 128,-1,5
 162 158 162 158 167 106 c 1,6,-1
 171 106 l 1,7,8
 176 144 176 144 182.5 183 c 128,-1,9
 189 222 189 222 199 261 c 2,10,-1
 243 454 l 1,11,-1
 358 454 l 1,12,-1
 401 261 l 2,13,14
 410 226 410 226 418 185 c 128,-1,15
 426 144 426 144 432 106 c 1,16,-1
 435 106 l 1,17,18
 440 156 440 156 442.5 191 c 128,-1,19
 445 226 445 226 450 267 c 2,20,-1
 481 542 l 1,21,-1
 593 542 l 1,22,-1
 512 0 l 1,23,-1
 368 0 l 1,24,-1
 327 203 l 2,25,26
 319 239 319 239 313 267.5 c 128,-1,27
 307 296 307 296 302 327 c 1,28,-1
 298 327 l 1,29,30
 293 296 293 296 286.5 267.5 c 128,-1,31
 280 239 280 239 272 203 c 2,32,-1
 229 0 l 1,33,-1
 88 0 l 1,0,-1
EndSplineSet
Validated: 1
Substitution2: "'smcp' Lowercase to Small Capitals lookup 33 subtable" w.sc
Substitution2: "'aalt' Access All Alternates lookup 0 subtable" w.sc
EndChar

StartChar: x
Encoding: 120 120 91
Width: 600
GlyphClass: 2
Flags: W
AnchorPoint: "Anchor-4" 580 542 basechar 0
AnchorPoint: "Anchor-3" 300 542 basechar 0
AnchorPoint: "Anchor-0" 300 0 basechar 0
LayerCount: 2
Fore
SplineSet
29 0 m 1,0,-1
 226 276 l 1,1,-1
 39 542 l 1,2,-1
 185 542 l 1,3,-1
 301 359 l 1,4,-1
 420 542 l 1,5,-1
 567 542 l 1,6,-1
 377 276 l 1,7,-1
 570 0 l 1,8,-1
 424 0 l 1,9,-1
 302 192 l 1,10,-1
 176 0 l 1,11,-1
 29 0 l 1,0,-1
EndSplineSet
Validated: 1
Substitution2: "'smcp' Lowercase to Small Capitals lookup 33 subtable" x.sc
Substitution2: "'aalt' Access All Alternates lookup 0 subtable" x.sc
EndChar

StartChar: y
Encoding: 121 121 92
Width: 600
GlyphClass: 2
Flags: W
AnchorPoint: "Anchor-4" 580 542 basechar 0
AnchorPoint: "Anchor-3" 300 542 basechar 0
AnchorPoint: "Anchor-0" 300 -245 basechar 0
LayerCount: 2
Fore
SplineSet
134 -245 m 0,0,1
 98 -245 98 -245 61 -237 c 1,2,-1
 61 -134 l 1,3,4
 74 -136 74 -136 89 -138 c 128,-1,5
 104 -140 104 -140 116 -140 c 0,6,7
 162 -140 162 -140 188 -116 c 128,-1,8
 214 -92 214 -92 232 -44 c 2,9,-1
 248 1 l 1,10,-1
 29 542 l 1,11,-1
 161 542 l 1,12,-1
 275 228 l 2,13,14
 293 178 293 178 307 115 c 1,15,-1
 310 115 l 1,16,17
 317 146 317 146 325 174 c 128,-1,18
 333 202 333 202 341 228 c 2,19,-1
 438 542 l 1,20,-1
 570 542 l 1,21,-1
 355 -44 l 2,22,23
 319 -143 319 -143 269.5 -194 c 128,-1,24
 220 -245 220 -245 134 -245 c 0,0,1
EndSplineSet
Validated: 1
Substitution2: "'smcp' Lowercase to Small Capitals lookup 33 subtable" y.sc
Substitution2: "'aalt' Access All Alternates lookup 0 subtable" y.sc
EndChar

StartChar: z
Encoding: 122 122 93
Width: 600
GlyphClass: 2
Flags: W
AnchorPoint: "Anchor-4" 580 542 basechar 0
AnchorPoint: "Anchor-3" 309 542 basechar 0
AnchorPoint: "Anchor-0" 309 0 basechar 0
LayerCount: 2
Fore
SplineSet
74 0 m 1,0,-1
 74 78 l 1,1,-1
 366 445 l 1,2,-1
 90 445 l 1,3,-1
 90 542 l 1,4,-1
 517 542 l 1,5,-1
 517 455 l 1,6,-1
 230 100 l 1,7,-1
 526 100 l 1,8,-1
 526 0 l 1,9,-1
 74 0 l 1,0,-1
EndSplineSet
Validated: 1
Substitution2: "'smcp' Lowercase to Small Capitals lookup 33 subtable" z.sc
Substitution2: "'aalt' Access All Alternates lookup 0 subtable" z.sc
EndChar

StartChar: braceleft
Encoding: 123 123 94
Width: 600
Flags: W
LayerCount: 2
Fore
SplineSet
462 -160 m 1,0,1
 351 -160 351 -160 303 -125 c 128,-1,2
 255 -90 255 -90 255 -7 c 2,3,-1
 255 140 l 2,4,5
 255 187 255 187 225.5 208.5 c 128,-1,6
 196 230 196 230 138 230 c 1,7,-1
 138 326 l 1,8,9
 196 327 196 327 225.5 347.5 c 128,-1,10
 255 368 255 368 255 416 c 2,11,-1
 255 563 l 2,12,13
 255 642 255 642 302.5 679 c 128,-1,14
 350 716 350 716 462 716 c 1,15,-1
 462 623 l 1,16,17
 417 622 417 622 391.5 605 c 128,-1,18
 366 588 366 588 366 544 c 2,19,-1
 366 400 l 2,20,21
 366 299 366 299 261 281 c 1,22,-1
 261 275 l 1,23,24
 315 267 315 267 340.5 237.5 c 128,-1,25
 366 208 366 208 366 158 c 2,26,-1
 366 12 l 2,27,28
 366 -32 366 -32 390 -49 c 128,-1,29
 414 -66 414 -66 462 -67 c 1,30,-1
 462 -160 l 1,0,1
EndSplineSet
Validated: 1
Substitution2: "'smcp' Lowercase to Small Capitals lookup 33 subtable" braceleft.sc
Substitution2: "'c2sc' Capitals to Small Capitals lookup 32 subtable" braceleft.sc
Substitution2: "'aalt' Access All Alternates lookup 0 subtable" braceleft.sc
EndChar

StartChar: bar
Encoding: 124 124 95
Width: 600
Flags: W
LayerCount: 2
Fore
SplineSet
252 -240 m 1,0,-1
 252 760 l 1,1,-1
 348 760 l 1,2,-1
 348 -240 l 1,3,-1
 252 -240 l 1,0,-1
EndSplineSet
Validated: 1
EndChar

StartChar: asciitilde
Encoding: 126 126 97
Width: 600
Flags: W
LayerCount: 2
Fore
SplineSet
79 276 m 1,0,-1
 79 376 l 1,1,2
 126 429 126 429 197 429 c 0,3,4
 225 429 225 429 251.5 421.5 c 128,-1,5
 278 414 278 414 316 397 c 0,6,7
 347 384 347 384 369.5 377 c 128,-1,8
 392 370 392 370 412 370 c 0,9,10
 439 370 439 370 468.5 387 c 128,-1,11
 498 404 498 404 521 429 c 1,12,-1
 521 330 l 1,13,14
 474 277 474 277 404 277 c 0,15,16
 376 277 376 277 349 284 c 128,-1,17
 322 291 322 291 284 308 c 0,18,19
 224 335 224 335 188 335 c 0,20,21
 162 335 162 335 132.5 318.5 c 128,-1,22
 103 302 103 302 79 276 c 1,0,-1
EndSplineSet
Validated: 1
EndChar

StartChar: cent
Encoding: 162 162 100
Width: 600
Flags: W
LayerCount: 2
Fore
SplineSet
297 -10 m 1,0,-1
 297 88 l 1,1,2
 194 100 194 100 136.5 166.5 c 128,-1,3
 79 233 79 233 78 362 c 0,4,5
 79 492 79 492 137.5 560.5 c 128,-1,6
 196 629 196 629 297 642 c 1,7,-1
 297 724 l 1,8,-1
 373 724 l 1,9,-1
 373 646 l 1,10,11
 416 644 416 644 456.5 635 c 128,-1,12
 497 626 497 626 522 613 c 1,13,-1
 488 517 l 1,14,15
 460 530 460 530 424 538 c 128,-1,16
 388 546 388 546 356 546 c 0,17,18
 277 546 277 546 237 502 c 128,-1,19
 197 458 197 458 197 363 c 0,20,21
 197 270 197 270 237.5 227.5 c 128,-1,22
 278 185 278 185 354 185 c 0,23,24
 398 185 398 185 438 194.5 c 128,-1,25
 478 204 478 204 510 221 c 1,26,-1
 510 118 l 1,27,28
 484 104 484 104 448 95.5 c 128,-1,29
 412 87 412 87 373 85 c 1,30,-1
 373 -10 l 1,31,-1
 297 -10 l 1,0,-1
EndSplineSet
Validated: 1
EndChar

StartChar: sterling
Encoding: 163 163 101
Width: 600
Flags: W
LayerCount: 2
Fore
SplineSet
84 0 m 1,0,-1
 84 101 l 1,1,2
 122 117 122 117 144.5 145.5 c 128,-1,3
 167 174 167 174 167 232 c 2,4,-1
 167 316 l 1,5,-1
 85 316 l 1,6,-1
 85 405 l 1,7,-1
 167 405 l 1,8,-1
 167 525 l 2,9,10
 167 625 167 625 222 674.5 c 128,-1,11
 277 724 277 724 366 724 c 0,12,13
 412 724 412 724 451.5 713 c 128,-1,14
 491 702 491 702 526 683 c 1,15,-1
 489 589 l 1,16,17
 459 606 459 606 433 613.5 c 128,-1,18
 407 621 407 621 376 621 c 0,19,20
 338 621 338 621 312.5 597.5 c 128,-1,21
 287 574 287 574 287 522 c 2,22,-1
 287 405 l 1,23,-1
 455 405 l 1,24,-1
 455 316 l 1,25,-1
 287 316 l 1,26,-1
 287 233 l 2,27,28
 287 189 287 189 267.5 156 c 128,-1,29
 248 123 248 123 221 107 c 1,30,-1
 534 107 l 1,31,-1
 534 0 l 1,32,-1
 84 0 l 1,0,-1
EndSplineSet
Validated: 1
EndChar

StartChar: currency
Encoding: 164 164 102
Width: 600
Flags: W
LayerCount: 2
Fore
SplineSet
474 133 m 1,0,-1
 407 198 l 1,1,2
 383 184 383 184 356 175.5 c 128,-1,3
 329 167 329 167 300 167 c 0,4,5
 238 167 238 167 191 198 c 1,6,-1
 126 134 l 1,7,-1
 65 194 l 1,8,-1
 131 259 l 1,9,10
 115 283 115 283 106.5 310 c 128,-1,11
 98 337 98 337 98 367 c 0,12,13
 98 425 98 425 131 474 c 1,14,-1
 64 542 l 1,15,-1
 126 602 l 1,16,-1
 191 537 l 1,17,18
 238 569 238 569 300 569 c 0,19,20
 358 569 358 569 407 536 c 1,21,-1
 474 602 l 1,22,-1
 536 543 l 1,23,-1
 469 475 l 1,24,25
 484 452 484 452 493 424.5 c 128,-1,26
 502 397 502 397 502 367 c 256,27,28
 502 337 502 337 493.5 309.5 c 128,-1,29
 485 282 485 282 469 258 c 1,30,-1
 533 193 l 1,31,-1
 474 133 l 1,0,-1
300 256 m 0,32,33
 349 256 349 256 381 286 c 128,-1,34
 413 316 413 316 413 367 c 0,35,36
 413 419 413 419 382 450 c 128,-1,37
 351 481 351 481 300 481 c 0,38,39
 250 481 250 481 219 449 c 128,-1,40
 188 417 188 417 188 367 c 0,41,42
 188 315 188 315 220.5 285.5 c 128,-1,43
 253 256 253 256 300 256 c 0,32,33
EndSplineSet
Validated: 1
EndChar

StartChar: yen
Encoding: 165 165 103
Width: 600
Flags: W
LayerCount: 2
Fore
SplineSet
241 0 m 1,0,-1
 241 118 l 1,1,-1
 97 118 l 1,2,-1
 97 195 l 1,3,-1
 241 195 l 1,4,-1
 241 269 l 1,5,-1
 97 269 l 1,6,-1
 97 347 l 1,7,-1
 214 347 l 1,8,-1
 29 714 l 1,9,-1
 155 714 l 1,10,-1
 300 404 l 1,11,-1
 445 714 l 1,12,-1
 571 714 l 1,13,-1
 383 347 l 1,14,-1
 503 347 l 1,15,-1
 503 269 l 1,16,-1
 358 269 l 1,17,-1
 358 195 l 1,18,-1
 503 195 l 1,19,-1
 503 118 l 1,20,-1
 358 118 l 1,21,-1
 358 0 l 1,22,-1
 241 0 l 1,0,-1
EndSplineSet
Validated: 1
EndChar

StartChar: brokenbar
Encoding: 166 166 104
Width: 600
Flags: W
LayerCount: 2
Fore
SplineSet
251 368 m 1,0,-1
 251 759 l 1,1,-1
 348 759 l 1,2,-1
 348 368 l 1,3,-1
 251 368 l 1,0,-1
251 -234 m 1,4,-1
 251 157 l 1,5,-1
 348 157 l 1,6,-1
 348 -234 l 1,7,-1
 251 -234 l 1,4,-1
EndSplineSet
Validated: 1
EndChar

StartChar: section
Encoding: 167 167 105
Width: 600
Flags: W
LayerCount: 2
Fore
SplineSet
276 -10 m 0,0,1
 222 -10 222 -10 180 -0.5 c 128,-1,2
 138 9 138 9 105 27 c 1,3,-1
 105 118 l 1,4,5
 140 100 140 100 187.5 85.5 c 128,-1,6
 235 71 235 71 276 71 c 0,7,8
 333 71 333 71 356.5 89.5 c 128,-1,9
 380 108 380 108 380 134 c 0,10,11
 380 152 380 152 372 166.5 c 128,-1,12
 364 181 364 181 340 195 c 128,-1,13
 316 209 316 209 269 228 c 0,14,15
 190 261 190 261 149.5 295 c 128,-1,16
 109 329 109 329 109 389 c 0,17,18
 109 436 109 436 131.5 466.5 c 128,-1,19
 154 497 154 497 187 514 c 1,20,21
 152 535 152 535 133 564 c 128,-1,22
 114 593 114 593 114 631 c 0,23,24
 114 692 114 692 167.5 728.5 c 128,-1,25
 221 765 221 765 313 765 c 0,26,27
 364 765 364 765 405 754.5 c 128,-1,28
 446 744 446 744 487 728 c 1,29,-1
 451 647 l 1,30,31
 417 664 417 664 384 673.5 c 128,-1,32
 351 683 351 683 312 683 c 0,33,34
 266 683 266 683 245 669.5 c 128,-1,35
 224 656 224 656 224 631 c 256,36,37
 224 606 224 606 249.5 587.5 c 128,-1,38
 275 569 275 569 335 546 c 0,39,40
 412 516 412 516 453.5 479.5 c 128,-1,41
 495 443 495 443 495 382 c 0,42,43
 495 338 495 338 474.5 307 c 128,-1,44
 454 276 454 276 423 257 c 1,45,46
 491 215 491 215 491 141 c 0,47,48
 491 71 491 71 433.5 30.5 c 128,-1,49
 376 -10 376 -10 276 -10 c 0,0,1
346 294 m 1,50,51
 364 306 364 306 378.5 324.5 c 128,-1,52
 393 343 393 343 393 369 c 0,53,54
 393 402 393 402 366.5 426 c 128,-1,55
 340 450 340 450 264 476 c 1,56,57
 242 468 242 468 226 449.5 c 128,-1,58
 210 431 210 431 210 405 c 0,59,60
 210 374 210 374 236.5 351.5 c 128,-1,61
 263 329 263 329 324 304 c 2,62,-1
 346 294 l 1,50,51
EndSplineSet
Validated: 1
EndChar

StartChar: dieresis
Encoding: 168 168 106
Width: 600
GlyphClass: 2
Flags: W
AnchorPoint: "Anchor-13" 300 652 basemark 0
AnchorPoint: "Anchor-13" 300 542 mark 0
AnchorPoint: "Anchor-8" 300 542 mark 0
AnchorPoint: "Anchor-3" 300 542 mark 0
LayerCount: 2
Fore
SplineSet
417 615 m 256,0,1
 389 615 389 615 370.5 632 c 128,-1,2
 352 649 352 649 352 683 c 0,3,4
 352 718 352 718 370.5 734 c 128,-1,5
 389 750 389 750 417 750 c 256,6,7
 445 750 445 750 464.5 734 c 128,-1,8
 484 718 484 718 484 683 c 0,9,10
 484 649 484 649 464.5 632 c 128,-1,11
 445 615 445 615 417 615 c 256,0,1
185 615 m 0,12,13
 158 615 158 615 139.5 631.5 c 128,-1,14
 121 648 121 648 121 683 c 256,15,16
 121 718 121 718 139.5 734 c 128,-1,17
 158 750 158 750 185 750 c 0,18,19
 213 750 213 750 232.5 734 c 128,-1,20
 252 718 252 718 252 683 c 0,21,22
 252 649 252 649 232.5 632 c 128,-1,23
 213 615 213 615 185 615 c 0,12,13
EndSplineSet
Validated: 1
EndChar

StartChar: copyright
Encoding: 169 169 107
Width: 600
Flags: W
LayerCount: 2
Fore
SplineSet
299 87 m 0,0,1
 214 87 214 87 154.5 123 c 128,-1,2
 95 159 95 159 64 219.5 c 128,-1,3
 33 280 33 280 33 353 c 0,4,5
 33 430 33 430 66 490.5 c 128,-1,6
 99 551 99 551 159.5 585.5 c 128,-1,7
 220 620 220 620 301 620 c 0,8,9
 383 620 383 620 442.5 585 c 128,-1,10
 502 550 502 550 534.5 489 c 128,-1,11
 567 428 567 428 567 352 c 0,12,13
 567 273 567 273 533.5 213.5 c 128,-1,14
 500 154 500 154 439.5 120.5 c 128,-1,15
 379 87 379 87 299 87 c 0,0,1
299 145 m 0,16,17
 360 145 360 145 405.5 171 c 128,-1,18
 451 197 451 197 476.5 244 c 128,-1,19
 502 291 502 291 502 354 c 256,20,21
 502 417 502 417 476.5 463.5 c 128,-1,22
 451 510 451 510 405.5 535.5 c 128,-1,23
 360 561 360 561 300 561 c 0,24,25
 237 561 237 561 191.5 534 c 128,-1,26
 146 507 146 507 122 460 c 128,-1,27
 98 413 98 413 98 354 c 0,28,29
 98 294 98 294 122 247 c 128,-1,30
 146 200 146 200 191 172.5 c 128,-1,31
 236 145 236 145 299 145 c 0,16,17
311 188 m 0,32,33
 237 188 237 188 198.5 232.5 c 128,-1,34
 160 277 160 277 160 352 c 0,35,36
 160 428 160 428 199.5 474 c 128,-1,37
 239 520 239 520 312 520 c 0,38,39
 360 520 360 520 404 498 c 1,40,-1
 381 441 l 1,41,42
 347 460 347 460 314 460 c 0,43,44
 275 460 275 460 253.5 432 c 128,-1,45
 232 404 232 404 232 350 c 0,46,47
 232 300 232 300 251.5 274 c 128,-1,48
 271 248 271 248 314 248 c 0,49,50
 350 248 350 248 392 264 c 1,51,-1
 392 204 l 1,52,53
 373 196 373 196 354 192 c 128,-1,54
 335 188 335 188 311 188 c 0,32,33
EndSplineSet
Validated: 1
EndChar

StartChar: ordfeminine
Encoding: 170 170 108
Width: 600
Flags: W
LayerCount: 2
Fore
SplineSet
256 374 m 0,0,1
 206 374 206 374 176 400 c 128,-1,2
 146 426 146 426 146 476 c 0,3,4
 146 534 146 534 188 558.5 c 128,-1,5
 230 583 230 583 312 587 c 2,6,-1
 363 589 l 1,7,-1
 363 603 l 2,8,9
 363 631 363 631 345 643.5 c 128,-1,10
 327 656 327 656 297 656 c 0,11,12
 250 656 250 656 200 631 c 1,13,-1
 172 689 l 1,14,15
 200 704 200 704 235 713 c 128,-1,16
 270 722 270 722 308 722 c 0,17,18
 378 722 378 722 411.5 690 c 128,-1,19
 445 658 445 658 445 598 c 2,20,-1
 445 380 l 1,21,-1
 388 380 l 1,22,-1
 374 429 l 1,23,24
 353 404 353 404 323.5 389 c 128,-1,25
 294 374 294 374 256 374 c 0,0,1
280 438 m 0,26,27
 319 438 319 438 341 460 c 128,-1,28
 363 482 363 482 363 517 c 2,29,-1
 363 537 l 1,30,-1
 315 534 l 2,31,32
 264 531 264 531 247 516 c 128,-1,33
 230 501 230 501 230 480 c 0,34,35
 230 458 230 458 243.5 448 c 128,-1,36
 257 438 257 438 280 438 c 0,26,27
EndSplineSet
Validated: 1
EndChar

StartChar: guillemotleft
Encoding: 171 171 109
Width: 600
Flags: W
LayerCount: 2
Fore
SplineSet
445 50 m 1,0,-1
 277 263 l 1,1,-1
 277 277 l 1,2,-1
 445 491 l 1,3,-1
 529 442 l 1,4,-1
 404 270 l 1,5,-1
 529 99 l 1,6,-1
 445 50 l 1,0,-1
238 50 m 1,7,-1
 71 263 l 1,8,-1
 71 277 l 1,9,-1
 238 491 l 1,10,-1
 322 441 l 1,11,-1
 196 270 l 1,12,-1
 322 99 l 1,13,-1
 238 50 l 1,7,-1
EndSplineSet
Validated: 1
EndChar

StartChar: logicalnot
Encoding: 172 172 110
Width: 600
Flags: W
LayerCount: 2
Fore
SplineSet
425 123 m 1,0,-1
 425 306 l 1,1,-1
 72 306 l 1,2,-1
 72 399 l 1,3,-1
 518 399 l 1,4,-1
 518 123 l 1,5,-1
 425 123 l 1,0,-1
EndSplineSet
Validated: 1
EndChar

StartChar: registered
Encoding: 174 174 112
Width: 600
Flags: W
LayerCount: 2
Fore
SplineSet
299 88 m 0,0,1
 214 88 214 88 154.5 124 c 128,-1,2
 95 160 95 160 64 220 c 128,-1,3
 33 280 33 280 33 354 c 0,4,5
 33 430 33 430 66 490.5 c 128,-1,6
 99 551 99 551 159.5 585.5 c 128,-1,7
 220 620 220 620 301 620 c 0,8,9
 383 620 383 620 442.5 585 c 128,-1,10
 502 550 502 550 534.5 489 c 128,-1,11
 567 428 567 428 567 352 c 0,12,13
 567 273 567 273 533.5 213.5 c 128,-1,14
 500 154 500 154 439.5 121 c 128,-1,15
 379 88 379 88 299 88 c 0,0,1
299 146 m 0,16,17
 360 146 360 146 405.5 172 c 128,-1,18
 451 198 451 198 476.5 245 c 128,-1,19
 502 292 502 292 502 355 c 256,20,21
 502 418 502 418 476.5 464.5 c 128,-1,22
 451 511 451 511 405.5 536 c 128,-1,23
 360 561 360 561 300 561 c 0,24,25
 237 561 237 561 191.5 534 c 128,-1,26
 146 507 146 507 122 460 c 128,-1,27
 98 413 98 413 98 354 c 0,28,29
 98 294 98 294 122 247 c 128,-1,30
 146 200 146 200 191 173 c 128,-1,31
 236 146 236 146 299 146 c 0,16,17
199 200 m 1,32,-1
 199 513 l 1,33,-1
 293 513 l 2,34,35
 412 513 412 513 412 419 c 0,36,37
 412 384 412 384 397 363.5 c 128,-1,38
 382 343 382 343 361 333 c 1,39,-1
 428 200 l 1,40,-1
 357 200 l 1,41,-1
 302 320 l 1,42,-1
 263 320 l 1,43,-1
 263 200 l 1,44,-1
 199 200 l 1,32,-1
263 368 m 1,45,-1
 290 368 l 2,46,47
 315 368 315 368 329.5 380 c 128,-1,48
 344 392 344 392 344 417 c 0,49,50
 344 461 344 461 291 461 c 2,51,-1
 263 461 l 1,52,-1
 263 368 l 1,45,-1
EndSplineSet
Validated: 1
EndChar

StartChar: overscore
Encoding: 175 175 113
Width: 600
Flags: W
LayerCount: 2
Fore
SplineSet
150 620 m 1,0,-1
 150 709 l 1,1,-1
 451 709 l 1,2,-1
 451 620 l 1,3,-1
 150 620 l 1,0,-1
EndSplineSet
Validated: 1
EndChar

StartChar: degree
Encoding: 176 176 114
Width: 600
Flags: W
LayerCount: 2
Fore
SplineSet
300 414 m 0,0,1
 255 414 255 414 219.5 434.5 c 128,-1,2
 184 455 184 455 164 490 c 128,-1,3
 144 525 144 525 144 569 c 0,4,5
 144 612 144 612 165 647.5 c 128,-1,6
 186 683 186 683 221 703.5 c 128,-1,7
 256 724 256 724 300 724 c 256,8,9
 344 724 344 724 379.5 703.5 c 128,-1,10
 415 683 415 683 436 647.5 c 128,-1,11
 457 612 457 612 457 569 c 0,12,13
 457 525 457 525 437.5 490 c 128,-1,14
 418 455 418 455 383 434.5 c 128,-1,15
 348 414 348 414 300 414 c 0,0,1
301 489 m 256,16,17
 336 489 336 489 357 511.5 c 128,-1,18
 378 534 378 534 378 569 c 0,19,20
 378 605 378 605 355.5 626.5 c 128,-1,21
 333 648 333 648 301 648 c 0,22,23
 267 648 267 648 245 626 c 128,-1,24
 223 604 223 604 223 569 c 256,25,26
 223 534 223 534 244.5 511.5 c 128,-1,27
 266 489 266 489 301 489 c 256,16,17
EndSplineSet
Validated: 1
EndChar

StartChar: plusminus
Encoding: 177 177 115
Width: 600
Flags: W
LayerCount: 2
Fore
SplineSet
253 143 m 1,0,-1
 253 331 l 1,1,-1
 74 331 l 1,2,-1
 74 423 l 1,3,-1
 253 423 l 1,4,-1
 253 612 l 1,5,-1
 347 612 l 1,6,-1
 347 423 l 1,7,-1
 526 423 l 1,8,-1
 526 331 l 1,9,-1
 347 331 l 1,10,-1
 347 143 l 1,11,-1
 253 143 l 1,0,-1
74 0 m 1,12,-1
 74 93 l 1,13,-1
 526 93 l 1,14,-1
 526 0 l 1,15,-1
 74 0 l 1,12,-1
EndSplineSet
Validated: 1
EndChar

StartChar: uni00B2
Encoding: 178 178 116
Width: 600
Flags: W
LayerCount: 2
Fore
SplineSet
154 416 m 1,0,-1
 154 488 l 1,1,-1
 253 584 l 2,2,3
 299 628 299 628 324.5 656.5 c 128,-1,4
 350 685 350 685 350 723 c 0,5,6
 350 752 350 752 334 764.5 c 128,-1,7
 318 777 318 777 292 777 c 256,8,9
 266 777 266 777 244 766 c 128,-1,10
 222 755 222 755 198 734 c 1,11,-1
 154 794 l 1,12,13
 181 820 181 820 218.5 837 c 128,-1,14
 256 854 256 854 303 854 c 0,15,16
 364 854 364 854 401.5 823.5 c 128,-1,17
 439 793 439 793 439 731 c 0,18,19
 439 692 439 692 424 663 c 128,-1,20
 409 634 409 634 381 606 c 128,-1,21
 353 578 353 578 314 541 c 2,22,-1
 264 494 l 1,23,-1
 458 494 l 1,24,-1
 458 416 l 1,25,-1
 154 416 l 1,0,-1
EndSplineSet
Validated: 1
EndChar

StartChar: uni00B3
Encoding: 179 179 117
Width: 600
Flags: W
LayerCount: 2
Fore
SplineSet
281 408 m 0,0,1
 245 408 245 408 213.5 415 c 128,-1,2
 182 422 182 422 153 438 c 1,3,-1
 153 520 l 1,4,5
 183 502 183 502 215.5 492 c 128,-1,6
 248 482 248 482 282 482 c 0,7,8
 320 482 320 482 339 497.5 c 128,-1,9
 358 513 358 513 358 541 c 0,10,11
 358 601 358 601 271 601 c 2,12,-1
 219 601 l 1,13,-1
 219 669 l 1,14,-1
 266 669 l 2,15,16
 310 669 310 669 328.5 686 c 128,-1,17
 347 703 347 703 347 729 c 0,18,19
 347 753 347 753 332 766.5 c 128,-1,20
 317 780 317 780 290 780 c 0,21,22
 266 780 266 780 243 770.5 c 128,-1,23
 220 761 220 761 195 742 c 1,24,-1
 153 801 l 1,25,26
 182 825 182 825 217.5 839 c 128,-1,27
 253 853 253 853 298 853 c 0,28,29
 361 853 361 853 398 823 c 128,-1,30
 435 793 435 793 435 743 c 0,31,32
 435 706 435 706 415.5 680.5 c 128,-1,33
 396 655 396 655 362 642 c 1,34,-1
 362 637 l 1,35,36
 448 619 448 619 448 533 c 0,37,38
 448 477 448 477 405.5 442.5 c 128,-1,39
 363 408 363 408 281 408 c 0,0,1
EndSplineSet
Validated: 1
EndChar

StartChar: acute
Encoding: 180 180 118
Width: 600
Flags: W
LayerCount: 2
Fore
SplineSet
232 606 m 1,0,-1
 232 619 l 1,1,2
 256 650 256 650 283.5 691 c 128,-1,3
 311 732 311 732 329 766 c 1,4,-1
 468 766 l 1,5,-1
 468 757 l 1,6,7
 453 738 453 738 425.5 710 c 128,-1,8
 398 682 398 682 368 653.5 c 128,-1,9
 338 625 338 625 313 606 c 1,10,-1
 232 606 l 1,0,-1
EndSplineSet
Validated: 1
EndChar

StartChar: uni00B5
Encoding: 181 181 119
Width: 600
GlyphClass: 2
Flags: W
AnchorPoint: "Anchor-4" 580 542 basechar 0
AnchorPoint: "Anchor-3" 300 542 basechar 0
AnchorPoint: "Anchor-2" 540 10 basechar 0
AnchorPoint: "Anchor-0" 300 0 basechar 0
LayerCount: 2
Fore
SplineSet
244 -10 m 0,0,1
 211 -10 211 -10 184 -3 c 1,2,-1
 184 -240 l 1,3,-1
 59 -240 l 1,4,-1
 59 542 l 1,5,-1
 184 542 l 1,6,-1
 184 214 l 2,7,8
 184 156 184 156 205.5 124 c 128,-1,9
 227 92 227 92 283 92 c 0,10,11
 334 92 334 92 361.5 114.5 c 128,-1,12
 389 137 389 137 400 178.5 c 128,-1,13
 411 220 411 220 411 278 c 2,14,-1
 411 542 l 1,15,-1
 536 542 l 1,16,-1
 536 0 l 1,17,-1
 440 0 l 1,18,-1
 420 71 l 1,19,-1
 413 71 l 1,20,21
 388 30 388 30 344 10 c 128,-1,22
 300 -10 300 -10 244 -10 c 0,0,1
EndSplineSet
Validated: 1
EndChar

StartChar: paragraph
Encoding: 182 182 120
Width: 600
Flags: W
LayerCount: 2
Fore
SplineSet
324 -127 m 1,0,-1
 324 273 l 1,1,2
 296 264 296 264 252 264 c 0,3,4
 154 264 154 264 99 320 c 128,-1,5
 44 376 44 376 44 509 c 0,6,7
 44 601 44 601 70.5 656 c 128,-1,8
 97 711 97 711 147 735.5 c 128,-1,9
 197 760 197 760 267 760 c 2,10,-1
 546 760 l 1,11,-1
 546 -127 l 1,12,-1
 476 -127 l 1,13,-1
 476 687 l 1,14,-1
 393 687 l 1,15,-1
 393 -127 l 1,16,-1
 324 -127 l 1,0,-1
EndSplineSet
Validated: 1
EndChar

StartChar: cedilla
Encoding: 184 184 122
Width: 600
Flags: W
LayerCount: 2
Fore
SplineSet
263 -240 m 0,0,1
 244 -240 244 -240 228 -238 c 128,-1,2
 212 -236 212 -236 199 -233 c 1,3,-1
 199 -166 l 1,4,5
 210 -170 210 -170 224 -171.5 c 128,-1,6
 238 -173 238 -173 251 -173 c 0,7,8
 278 -173 278 -173 295.5 -164 c 128,-1,9
 313 -155 313 -155 313 -132 c 256,10,11
 313 -109 313 -109 292.5 -97.5 c 128,-1,12
 272 -86 272 -86 232 -82 c 1,13,-1
 271 5 l 1,14,-1
 339 5 l 1,15,-1
 320 -42 l 1,16,17
 356 -50 356 -50 380 -72.5 c 128,-1,18
 404 -95 404 -95 404 -138 c 0,19,20
 404 -184 404 -184 370 -212 c 128,-1,21
 336 -240 336 -240 263 -240 c 0,0,1
EndSplineSet
Validated: 1
EndChar

StartChar: uni00B9
Encoding: 185 185 123
Width: 600
Flags: W
LayerCount: 2
Fore
SplineSet
174 416 m 1,0,-1
 174 475 l 1,1,-1
 276 484 l 1,2,-1
 276 653 l 2,3,4
 276 676 276 676 276 704 c 128,-1,5
 276 732 276 732 278 751 c 1,6,7
 270 745 270 745 259.5 737.5 c 128,-1,8
 249 730 249 730 240 724 c 2,9,-1
 186 691 l 1,10,-1
 146 756 l 1,11,-1
 287 844 l 1,12,-1
 360 844 l 1,13,-1
 360 484 l 1,14,-1
 461 475 l 1,15,-1
 461 416 l 1,16,-1
 174 416 l 1,0,-1
EndSplineSet
Validated: 1
EndChar

StartChar: ordmasculine
Encoding: 186 186 124
Width: 600
Flags: W
LayerCount: 2
Fore
SplineSet
298 374 m 0,0,1
 231 374 231 374 189 419 c 128,-1,2
 147 464 147 464 147 549 c 0,3,4
 147 632 147 632 188.5 677 c 128,-1,5
 230 722 230 722 300 722 c 0,6,7
 366 722 366 722 409 677 c 128,-1,8
 452 632 452 632 452 549 c 0,9,10
 452 464 452 464 410 419 c 128,-1,11
 368 374 368 374 298 374 c 0,0,1
299 442 m 0,12,13
 367 442 367 442 367 549 c 0,14,15
 367 654 367 654 299 654 c 256,16,17
 231 654 231 654 231 549 c 0,18,19
 231 496 231 496 247 469 c 128,-1,20
 263 442 263 442 299 442 c 0,12,13
EndSplineSet
Validated: 1
EndChar

StartChar: AE
Encoding: 198 198 136
Width: 600
GlyphClass: 2
Flags: W
AnchorPoint: "Anchor-3" 329 714 basechar 0
AnchorPoint: "Anchor-0" 300 0 basechar 0
LayerCount: 2
Fore
SplineSet
14 0 m 1,0,-1
 180 714 l 1,1,-1
 560 714 l 1,2,-1
 560 607 l 1,3,-1
 405 607 l 1,4,-1
 405 425 l 1,5,-1
 541 425 l 1,6,-1
 541 318 l 1,7,-1
 405 318 l 1,8,-1
 405 107 l 1,9,-1
 560 107 l 1,10,-1
 560 0 l 1,11,-1
 297 0 l 1,12,-1
 297 192 l 1,13,-1
 172 192 l 1,14,-1
 130 0 l 1,15,-1
 14 0 l 1,0,-1
262 607 m 1,16,-1
 195 298 l 1,17,-1
 297 298 l 1,18,-1
 297 607 l 1,19,-1
 262 607 l 1,16,-1
EndSplineSet
Validated: 1
Substitution2: "'c2sc' Capitals to Small Capitals lookup 32 subtable" ae.sc
Substitution2: "'aalt' Access All Alternates lookup 0 subtable" ae.sc
EndChar

StartChar: Eth
Encoding: 208 208 146
Width: 600
GlyphClass: 2
Flags: W
AnchorPoint: "Anchor-4" 604 714 basechar 0
AnchorPoint: "Anchor-3" 300 714 basechar 0
AnchorPoint: "Anchor-1" 307 357 basechar 0
AnchorPoint: "Anchor-0" 300 0 basechar 0
LayerCount: 2
Fore
SplineSet
58 0 m 1,0,-1
 58 301 l 1,1,-1
 0 301 l 1,2,-1
 0 405 l 1,3,-1
 58 405 l 1,4,-1
 58 714 l 1,5,-1
 261 714 l 2,6,7
 401 714 401 714 484.5 625 c 128,-1,8
 568 536 568 536 568 363 c 0,9,10
 568 186 568 186 482.5 93 c 128,-1,11
 397 0 397 0 247 0 c 2,12,-1
 58 0 l 1,0,-1
181 106 m 1,13,-1
 239 106 l 2,14,15
 343 106 343 106 392.5 170 c 128,-1,16
 442 234 442 234 442 362 c 256,17,18
 442 490 442 490 393 549 c 128,-1,19
 344 608 344 608 253 608 c 2,20,-1
 181 608 l 1,21,-1
 181 405 l 1,22,-1
 293 405 l 1,23,-1
 293 301 l 1,24,-1
 181 301 l 1,25,-1
 181 106 l 1,13,-1
EndSplineSet
Validated: 1
Substitution2: "'c2sc' Capitals to Small Capitals lookup 32 subtable" eth.sc
Substitution2: "'aalt' Access All Alternates lookup 0 subtable" eth.sc
EndChar

StartChar: multiply
Encoding: 215 215 153
Width: 600
Flags: W
LayerCount: 2
Fore
SplineSet
148 135 m 1,0,-1
 83 201 l 1,1,-1
 233 353 l 1,2,-1
 82 504 l 1,3,-1
 148 571 l 1,4,-1
 300 421 l 1,5,-1
 453 571 l 1,6,-1
 519 505 l 1,7,-1
 367 353 l 1,8,-1
 517 201 l 1,9,-1
 452 135 l 1,10,-1
 300 286 l 1,11,-1
 148 135 l 1,0,-1
EndSplineSet
Validated: 1
EndChar

StartChar: Oslash
Encoding: 216 216 154
Width: 600
GlyphClass: 2
Flags: W
AnchorPoint: "Anchor-4" 600 714 basechar 0
AnchorPoint: "Anchor-3" 300 714 basechar 0
AnchorPoint: "Anchor-2" 298 10 basechar 0
AnchorPoint: "Anchor-1" 300 357 basechar 0
AnchorPoint: "Anchor-0" 300 0 basechar 0
LayerCount: 2
Fore
SplineSet
102 -41 m 1,0,-1
 29 4 l 1,1,-1
 91 102 l 1,2,3
 63 149 63 149 49.5 213.5 c 128,-1,4
 36 278 36 278 36 358 c 0,5,6
 36 472 36 472 64 554.5 c 128,-1,7
 92 637 92 637 150 681.5 c 128,-1,8
 208 726 208 726 300 726 c 0,9,10
 394 726 394 726 456 677 c 1,11,-1
 502 750 l 1,12,-1
 574 706 l 1,13,-1
 512 609 l 1,14,15
 539 562 539 562 551.5 498.5 c 128,-1,16
 564 435 564 435 564 358 c 0,17,18
 564 244 564 244 536 161.5 c 128,-1,19
 508 79 508 79 450 34.5 c 128,-1,20
 392 -10 392 -10 300 -10 c 0,21,22
 210 -10 210 -10 150 35 c 1,23,-1
 102 -41 l 1,0,-1
162 358 m 0,24,25
 162 283 162 283 173 230 c 1,26,-1
 391 576 l 1,27,28
 359 618 359 618 301 618 c 0,29,30
 226 618 226 618 194 550.5 c 128,-1,31
 162 483 162 483 162 358 c 0,24,25
300 98 m 0,32,33
 374 98 374 98 406 165 c 128,-1,34
 438 232 438 232 438 359 c 0,35,36
 438 428 438 428 429 477 c 1,37,-1
 213 135 l 1,38,39
 246 98 246 98 300 98 c 0,32,33
EndSplineSet
Validated: 1
Substitution2: "'c2sc' Capitals to Small Capitals lookup 32 subtable" oslash.sc
Substitution2: "'aalt' Access All Alternates lookup 0 subtable" oslash.sc
EndChar

StartChar: Thorn
Encoding: 222 222 160
Width: 600
GlyphClass: 2
Flags: W
AnchorPoint: "Anchor-3" 300 714 basechar 0
AnchorPoint: "Anchor-0" 300 0 basechar 0
LayerCount: 2
Fore
SplineSet
86 0 m 1,0,-1
 86 714 l 1,1,-1
 207 714 l 1,2,-1
 207 590 l 1,3,-1
 310 590 l 2,4,5
 435 590 435 590 494.5 533.5 c 128,-1,6
 554 477 554 477 554 373 c 0,7,8
 554 306 554 306 529 253 c 128,-1,9
 504 200 504 200 448 169 c 128,-1,10
 392 138 392 138 300 138 c 2,11,-1
 207 138 l 1,12,-1
 207 0 l 1,13,-1
 86 0 l 1,0,-1
207 244 m 1,14,-1
 287 244 l 2,15,16
 430 244 430 244 430 368 c 0,17,18
 430 484 430 484 304 484 c 2,19,-1
 207 484 l 1,20,-1
 207 244 l 1,14,-1
EndSplineSet
Validated: 1
Substitution2: "'c2sc' Capitals to Small Capitals lookup 32 subtable" thorn.sc
Substitution2: "'aalt' Access All Alternates lookup 0 subtable" thorn.sc
EndChar

StartChar: germandbls
Encoding: 223 223 161
Width: 600
GlyphClass: 2
Flags: W
AnchorPoint: "Anchor-3" 300 765 basechar 0
AnchorPoint: "Anchor-0" 300 0 basechar 0
LayerCount: 2
Fore
SplineSet
378 -10 m 0,0,1
 339 -10 339 -10 305 -2 c 128,-1,2
 271 6 271 6 243 22 c 1,3,-1
 243 129 l 1,4,5
 268 112 268 112 302.5 100 c 128,-1,6
 337 88 337 88 372 88 c 0,7,8
 450 88 450 88 450 158 c 0,9,10
 450 178 450 178 443 191 c 128,-1,11
 436 204 436 204 417.5 219 c 128,-1,12
 399 234 399 234 366 256 c 0,13,14
 314 292 314 292 291 322 c 128,-1,15
 268 352 268 352 268 392 c 0,16,17
 268 425 268 425 280.5 447 c 128,-1,18
 293 469 293 469 311.5 486 c 128,-1,19
 330 503 330 503 348 518 c 128,-1,20
 366 533 366 533 378.5 551 c 128,-1,21
 391 569 391 569 391 594 c 0,22,23
 391 630 391 630 363.5 646.5 c 128,-1,24
 336 663 336 663 293 663 c 0,25,26
 243 663 243 663 213.5 638 c 128,-1,27
 184 613 184 613 184 559 c 2,28,-1
 184 0 l 1,29,-1
 63 0 l 1,30,-1
 63 565 l 2,31,32
 63 667 63 667 126 716 c 128,-1,33
 189 765 189 765 291 765 c 0,34,35
 356 765 356 765 406 747 c 128,-1,36
 456 729 456 729 484.5 693.5 c 128,-1,37
 513 658 513 658 513 608 c 0,38,39
 513 572 513 572 500.5 546.5 c 128,-1,40
 488 521 488 521 469 501.5 c 128,-1,41
 450 482 450 482 431 466.5 c 128,-1,42
 412 451 412 451 399.5 436.5 c 128,-1,43
 387 422 387 422 387 405 c 0,44,45
 387 384 387 384 409.5 367 c 128,-1,46
 432 350 432 350 470 322 c 0,47,48
 501 300 501 300 524 277.5 c 128,-1,49
 547 255 547 255 560 226.5 c 128,-1,50
 573 198 573 198 573 156 c 0,51,52
 573 74 573 74 521.5 32 c 128,-1,53
 470 -10 470 -10 378 -10 c 0,0,1
EndSplineSet
Validated: 1
Substitution2: "'smcp' Lowercase to Small Capitals lookup 33 subtable" germandbls.sc
Substitution2: "'aalt' Access All Alternates lookup 0 subtable" germandbls.sc
EndChar

StartChar: ae
Encoding: 230 230 168
Width: 600
GlyphClass: 2
Flags: W
AnchorPoint: "Anchor-3" 300 542 basechar 0
AnchorPoint: "Anchor-0" 300 0 basechar 0
LayerCount: 2
Fore
SplineSet
147 -10 m 0,0,1
 86 -10 86 -10 50 31.5 c 128,-1,2
 14 73 14 73 14 154 c 0,3,4
 14 239 14 239 56.5 282 c 128,-1,5
 99 325 99 325 179 327 c 2,6,-1
 247 329 l 1,7,-1
 247 369 l 2,8,9
 247 412 247 412 228.5 432 c 128,-1,10
 210 452 210 452 172 452 c 0,11,12
 130 452 130 452 84 425 c 1,13,-1
 44 510 l 1,14,15
 74 530 74 530 111 541 c 128,-1,16
 148 552 148 552 183 552 c 0,17,18
 270 552 270 552 310 493 c 1,19,20
 355 552 355 552 430 552 c 0,21,22
 508 552 508 552 547 484 c 128,-1,23
 586 416 586 416 586 306 c 2,24,-1
 586 244 l 1,25,-1
 351 244 l 1,26,27
 352 161 352 161 384.5 123.5 c 128,-1,28
 417 86 417 86 467 86 c 0,29,30
 495 86 495 86 518.5 95 c 128,-1,31
 542 104 542 104 567 124 c 1,32,-1
 567 27 l 1,33,34
 542 8 542 8 514.5 -1 c 128,-1,35
 487 -10 487 -10 452 -10 c 0,36,37
 402 -10 402 -10 360 13 c 128,-1,38
 318 36 318 36 293 86 c 1,39,40
 268 37 268 37 233.5 13.5 c 128,-1,41
 199 -10 199 -10 147 -10 c 0,0,1
354 327 m 1,42,-1
 480 327 l 1,43,44
 478 452 478 452 420 452 c 0,45,46
 389 452 389 452 372 419 c 128,-1,47
 355 386 355 386 354 327 c 1,42,-1
175 87 m 0,48,49
 207 87 207 87 226.5 117.5 c 128,-1,50
 246 148 246 148 246 210 c 2,51,-1
 246 254 l 1,52,-1
 209 253 l 2,53,54
 165 252 165 252 144 227.5 c 128,-1,55
 123 203 123 203 123 160 c 0,56,57
 123 122 123 122 137.5 104.5 c 128,-1,58
 152 87 152 87 175 87 c 0,48,49
EndSplineSet
Validated: 1
Substitution2: "'smcp' Lowercase to Small Capitals lookup 33 subtable" ae.sc
Substitution2: "'aalt' Access All Alternates lookup 0 subtable" ae.sc
EndChar

StartChar: eth
Encoding: 240 240 178
Width: 600
GlyphClass: 2
Flags: W
AnchorPoint: "Anchor-4" 580 760 basechar 0
AnchorPoint: "Anchor-3" 300 765 basechar 0
AnchorPoint: "Anchor-1" 300 271 basechar 0
AnchorPoint: "Anchor-0" 300 0 basechar 0
LayerCount: 2
Fore
SplineSet
297 -10 m 0,0,1
 224 -10 224 -10 167 19 c 128,-1,2
 110 48 110 48 78 103 c 128,-1,3
 46 158 46 158 46 236 c 0,4,5
 46 352 46 352 110 416 c 128,-1,6
 174 480 174 480 277 480 c 0,7,8
 328 480 328 480 364 467.5 c 128,-1,9
 400 455 400 455 420 428 c 1,10,-1
 424 430 l 1,11,12
 407 476 407 476 378.5 515.5 c 128,-1,13
 350 555 350 555 314 588 c 1,14,-1
 197 518 l 1,15,-1
 154 585 l 1,16,-1
 248 641 l 1,17,18
 229 655 229 655 209.5 667.5 c 128,-1,19
 190 680 190 680 169 691 c 1,20,-1
 213 765 l 1,21,22
 281 735 281 735 337 694 c 1,23,-1
 451 762 l 1,24,-1
 496 697 l 1,25,-1
 401 640 l 1,26,27
 475 568 475 568 514.5 475.5 c 128,-1,28
 554 383 554 383 554 278 c 0,29,30
 554 138 554 138 485 64 c 128,-1,31
 416 -10 416 -10 297 -10 c 0,0,1
299 83 m 0,32,33
 368 83 368 83 399 126.5 c 128,-1,34
 430 170 430 170 430 256 c 0,35,36
 430 309 430 309 398 348.5 c 128,-1,37
 366 388 366 388 299 388 c 0,38,39
 230 388 230 388 200 349 c 128,-1,40
 170 310 170 310 170 234 c 0,41,42
 170 168 170 168 200.5 125.5 c 128,-1,43
 231 83 231 83 299 83 c 0,32,33
EndSplineSet
Validated: 1
Substitution2: "'smcp' Lowercase to Small Capitals lookup 33 subtable" eth.sc
Substitution2: "'aalt' Access All Alternates lookup 0 subtable" eth.sc
EndChar

StartChar: divide
Encoding: 247 247 185
Width: 600
Flags: W
LayerCount: 2
Fore
SplineSet
300 460 m 256,0,1
 273 460 273 460 255 476.5 c 128,-1,2
 237 493 237 493 237 529 c 0,3,4
 237 566 237 566 254.5 582.5 c 128,-1,5
 272 599 272 599 300 599 c 0,6,7
 327 599 327 599 345 582.5 c 128,-1,8
 363 566 363 566 363 529 c 0,9,10
 363 493 363 493 345 476.5 c 128,-1,11
 327 460 327 460 300 460 c 256,0,1
74 306 m 1,12,-1
 74 399 l 1,13,-1
 526 399 l 1,14,-1
 526 306 l 1,15,-1
 74 306 l 1,12,-1
300 106 m 256,16,17
 273 106 273 106 255 123 c 128,-1,18
 237 140 237 140 237 176 c 0,19,20
 237 214 237 214 254.5 230 c 128,-1,21
 272 246 272 246 300 246 c 0,22,23
 327 246 327 246 345 230 c 128,-1,24
 363 214 363 214 363 176 c 0,25,26
 363 140 363 140 345 123 c 128,-1,27
 327 106 327 106 300 106 c 256,16,17
EndSplineSet
Validated: 1
EndChar

StartChar: oslash
Encoding: 248 248 186
Width: 600
GlyphClass: 2
Flags: W
AnchorPoint: "Anchor-4" 580 542 basechar 0
AnchorPoint: "Anchor-3" 300 542 basechar 0
AnchorPoint: "Anchor-2" 303 10 basechar 0
AnchorPoint: "Anchor-1" 300 271 basechar 0
AnchorPoint: "Anchor-0" 300 0 basechar 0
LayerCount: 2
Fore
SplineSet
141 -35 m 1,0,-1
 74 10 l 1,1,-1
 113 66 l 1,2,3
 81 102 81 102 63.5 153.5 c 128,-1,4
 46 205 46 205 46 271 c 0,5,6
 46 404 46 404 115 478 c 128,-1,7
 184 552 184 552 300 552 c 0,8,9
 373 552 373 552 428 523 c 1,10,-1
 462 572 l 1,11,-1
 530 526 l 1,12,-1
 492 471 l 1,13,14
 522 436 522 436 538 385.5 c 128,-1,15
 554 335 554 335 554 271 c 0,16,17
 554 139 554 139 486 64.5 c 128,-1,18
 418 -10 418 -10 300 -10 c 0,19,20
 231 -10 231 -10 177 17 c 1,21,-1
 141 -35 l 1,0,-1
171 271 m 0,22,23
 171 213 171 213 186 173 c 1,24,-1
 367 434 l 1,25,26
 340 452 340 452 301 452 c 0,27,28
 236 452 236 452 203.5 403.5 c 128,-1,29
 171 355 171 355 171 271 c 0,22,23
301 90 m 0,30,31
 366 90 366 90 397 138.5 c 128,-1,32
 428 187 428 187 428 271 c 0,33,34
 428 324 428 324 416 362 c 1,35,-1
 239 106 l 1,36,37
 265 90 265 90 301 90 c 0,30,31
EndSplineSet
Validated: 1
Substitution2: "'smcp' Lowercase to Small Capitals lookup 33 subtable" oslash.sc
Substitution2: "'aalt' Access All Alternates lookup 0 subtable" oslash.sc
EndChar

StartChar: thorn
Encoding: 254 254 192
Width: 600
GlyphClass: 2
Flags: W
AnchorPoint: "Anchor-3" 326 760 basechar 0
AnchorPoint: "Anchor-0" 326 -240 basechar 0
LayerCount: 2
Fore
SplineSet
64 -240 m 1,0,-1
 64 760 l 1,1,-1
 186 760 l 1,2,-1
 186 558 l 2,3,4
 186 536 186 536 185 514 c 128,-1,5
 184 492 184 492 182 470 c 1,6,-1
 186 470 l 1,7,8
 238 552 238 552 347 552 c 0,9,10
 416 552 416 552 462 517 c 128,-1,11
 508 482 508 482 531 419 c 128,-1,12
 554 356 554 356 554 272 c 0,13,14
 554 137 554 137 497 63.5 c 128,-1,15
 440 -10 440 -10 344 -10 c 0,16,17
 294 -10 294 -10 253 10 c 128,-1,18
 212 30 212 30 186 63 c 1,19,-1
 180 63 l 1,20,21
 184 35 184 35 185 14.5 c 128,-1,22
 186 -6 186 -6 186 -16 c 2,23,-1
 186 -240 l 1,24,-1
 64 -240 l 1,0,-1
309 92 m 0,25,26
 370 92 370 92 398 136 c 128,-1,27
 426 180 426 180 426 274 c 0,28,29
 426 362 426 362 398 406 c 128,-1,30
 370 450 370 450 308 450 c 0,31,32
 248 450 248 450 217 408 c 128,-1,33
 186 366 186 366 186 290 c 2,34,-1
 186 273 l 2,35,36
 186 184 186 184 215.5 138 c 128,-1,37
 245 92 245 92 309 92 c 0,25,26
EndSplineSet
Validated: 1
Substitution2: "'smcp' Lowercase to Small Capitals lookup 33 subtable" thorn.sc
Substitution2: "'aalt' Access All Alternates lookup 0 subtable" thorn.sc
EndChar

StartChar: dcaron
Encoding: 271 271 209
Width: 600
GlyphClass: 2
Flags: W
AnchorPoint: "Anchor-4" 543 760 basechar 0
AnchorPoint: "Anchor-3" 298 760 basechar 0
AnchorPoint: "Anchor-1" 248 271 basechar 0
AnchorPoint: "Anchor-0" 263 0 basechar 0
LayerCount: 2
Fore
SplineSet
224 -10 m 0,0,1
 162 -10 162 -10 120 25 c 128,-1,2
 78 60 78 60 57 123.5 c 128,-1,3
 36 187 36 187 36 272 c 0,4,5
 36 400 36 400 84 476 c 128,-1,6
 132 552 132 552 233 552 c 0,7,8
 284 552 284 552 315 531.5 c 128,-1,9
 346 511 346 511 371 473 c 1,10,-1
 376 473 l 1,11,12
 372 498 372 498 369.5 524 c 128,-1,13
 367 550 367 550 367 579 c 2,14,-1
 367 760 l 1,15,-1
 489 760 l 1,16,-1
 489 0 l 1,17,-1
 393 0 l 1,18,-1
 370 71 l 1,19,-1
 365 71 l 1,20,21
 341 32 341 32 306.5 11 c 128,-1,22
 272 -10 272 -10 224 -10 c 0,0,1
519 600 m 1,23,-1
 519 612 l 1,24,25
 528 641 528 641 537 684.5 c 128,-1,26
 546 728 546 728 550 760 c 1,27,-1
 666 760 l 1,28,-1
 666 750 l 1,29,30
 655 720 655 720 634.5 678.5 c 128,-1,31
 614 637 614 637 589 600 c 1,32,-1
 519 600 l 1,23,-1
265 92 m 0,33,34
 318 92 318 92 346 134 c 128,-1,35
 374 176 374 176 374 252 c 2,36,-1
 374 269 l 2,37,38
 374 350 374 350 351 400 c 128,-1,39
 328 450 328 450 267 450 c 0,40,41
 209 450 209 450 185.5 403 c 128,-1,42
 162 356 162 356 162 273 c 0,43,44
 162 178 162 178 187.5 135 c 128,-1,45
 213 92 213 92 265 92 c 0,33,34
EndSplineSet
Validated: 1
Substitution2: "'smcp' Lowercase to Small Capitals lookup 33 subtable" dcaron.sc
Substitution2: "'aalt' Access All Alternates lookup 0 subtable" dcaron.sc
EndChar

StartChar: dcroat
Encoding: 273 273 211
Width: 600
GlyphClass: 2
Flags: W
AnchorPoint: "Anchor-4" 580 760 basechar 0
AnchorPoint: "Anchor-3" 300 760 basechar 0
AnchorPoint: "Anchor-1" 300 271 basechar 0
AnchorPoint: "Anchor-0" 300 0 basechar 0
LayerCount: 2
Fore
SplineSet
255 -10 m 0,0,1
 151 -10 151 -10 98.5 66 c 128,-1,2
 46 142 46 142 46 268 c 0,3,4
 46 351 46 351 69.5 413 c 128,-1,5
 93 475 93 475 141.5 509.5 c 128,-1,6
 190 544 190 544 265 544 c 0,7,8
 319 544 319 544 356 523 c 128,-1,9
 393 502 393 502 417 465 c 1,10,-1
 423 465 l 1,11,12
 418 491 418 491 416 517 c 128,-1,13
 414 543 414 543 414 576 c 2,14,-1
 414 593 l 1,15,-1
 258 593 l 1,16,-1
 258 676 l 1,17,-1
 414 676 l 1,18,-1
 414 760 l 1,19,-1
 536 760 l 1,20,-1
 536 676 l 1,21,-1
 600 676 l 1,22,-1
 600 593 l 1,23,-1
 536 593 l 1,24,-1
 536 0 l 1,25,-1
 439 0 l 1,26,-1
 417 71 l 1,27,-1
 411 71 l 1,28,29
 387 33 387 33 347.5 11.5 c 128,-1,30
 308 -10 308 -10 255 -10 c 0,0,1
297 92 m 0,31,32
 359 92 359 92 389.5 132.5 c 128,-1,33
 420 173 420 173 420 248 c 2,34,-1
 420 266 l 2,35,36
 420 316 420 316 409.5 356 c 128,-1,37
 399 396 399 396 373 419 c 128,-1,38
 347 442 347 442 301 442 c 0,39,40
 172 442 172 442 172 261 c 0,41,42
 172 175 172 175 202.5 133.5 c 128,-1,43
 233 92 233 92 297 92 c 0,31,32
EndSplineSet
Validated: 1
Substitution2: "'smcp' Lowercase to Small Capitals lookup 33 subtable" dcroat.sc
Substitution2: "'aalt' Access All Alternates lookup 0 subtable" dcroat.sc
EndChar

StartChar: eogonek
Encoding: 281 281 219
Width: 600
GlyphClass: 2
Flags: W
AnchorPoint: "Anchor-4" 580 542 basechar 0
AnchorPoint: "Anchor-3" 300 542 basechar 0
AnchorPoint: "Anchor-2" 308 10 basechar 0
AnchorPoint: "Anchor-0" 320 -231 basechar 0
LayerCount: 2
Fore
SplineSet
346 -10 m 0,0,1
 207 -10 207 -10 130.5 63 c 128,-1,2
 54 136 54 136 54 272 c 0,3,4
 54 358 54 358 84.5 421 c 128,-1,5
 115 484 115 484 172.5 518 c 128,-1,6
 230 552 230 552 310 552 c 0,7,8
 422 552 422 552 484 484.5 c 128,-1,9
 546 417 546 417 546 299 c 2,10,-1
 546 239 l 1,11,-1
 176 239 l 1,12,13
 178 161 178 161 228.5 126.5 c 128,-1,14
 279 92 279 92 353 92 c 0,15,16
 394 92 394 92 437 102.5 c 128,-1,17
 480 113 480 113 527 132 c 1,18,-1
 527 29 l 1,19,20
 480 -2 480 -2 453 -35 c 128,-1,21
 426 -68 426 -68 426 -105 c 0,22,23
 426 -154 426 -154 472 -154 c 0,24,25
 483 -154 483 -154 495 -151.5 c 128,-1,26
 507 -149 507 -149 515 -146 c 1,27,-1
 515 -220 l 1,28,29
 502 -224 502 -224 486 -227.5 c 128,-1,30
 470 -231 470 -231 451 -231 c 0,31,32
 393 -231 393 -231 364.5 -201.5 c 128,-1,33
 336 -172 336 -172 336 -126 c 0,34,35
 336 -89 336 -89 352.5 -60 c 128,-1,36
 369 -31 369 -31 394 -8 c 1,37,38
 370 -10 370 -10 346 -10 c 0,0,1
179 327 m 1,39,-1
 431 327 l 1,40,41
 430 387 430 387 397.5 421.5 c 128,-1,42
 365 456 365 456 312 456 c 0,43,44
 258 456 258 456 222 422 c 128,-1,45
 186 388 186 388 179 327 c 1,39,-1
EndSplineSet
Validated: 1
Substitution2: "'smcp' Lowercase to Small Capitals lookup 33 subtable" eogonek.sc
Substitution2: "'locl' Localized Forms in Latin lookup 11 subtable" eogonek.loclNAV
Ligature2: "'ccmp' Glyph Composition/Decomposition lookup 6 subtable" e uni0328
AlternateSubs2: "'aalt' Access All Alternates lookup 1 subtable" eogonek.loclNAV eogonek.sc
EndChar

StartChar: Hbar
Encoding: 294 294 232
Width: 600
GlyphClass: 2
Flags: W
AnchorPoint: "Anchor-3" 300 714 basechar 0
AnchorPoint: "Anchor-1" 300 357 basechar 0
AnchorPoint: "Anchor-0" 300 0 basechar 0
LayerCount: 2
Fore
SplineSet
62 0 m 1,0,-1
 62 522 l 1,1,-1
 0 522 l 1,2,-1
 0 609 l 1,3,-1
 62 609 l 1,4,-1
 62 714 l 1,5,-1
 186 714 l 1,6,-1
 186 609 l 1,7,-1
 414 609 l 1,8,-1
 414 714 l 1,9,-1
 539 714 l 1,10,-1
 539 609 l 1,11,-1
 600 609 l 1,12,-1
 600 522 l 1,13,-1
 539 522 l 1,14,-1
 539 0 l 1,15,-1
 414 0 l 1,16,-1
 414 319 l 1,17,-1
 186 319 l 1,18,-1
 186 0 l 1,19,-1
 62 0 l 1,0,-1
186 427 m 1,20,-1
 414 427 l 1,21,-1
 414 522 l 1,22,-1
 186 522 l 1,23,-1
 186 427 l 1,20,-1
EndSplineSet
Validated: 1
Substitution2: "'c2sc' Capitals to Small Capitals lookup 32 subtable" hbar.sc
Substitution2: "'aalt' Access All Alternates lookup 0 subtable" hbar.sc
EndChar

StartChar: hbar
Encoding: 295 295 233
Width: 600
GlyphClass: 2
Flags: W
AnchorPoint: "Anchor-3" 128 760 basechar 0
AnchorPoint: "Anchor-1" 300 271 basechar 0
AnchorPoint: "Anchor-0" 300 0 basechar 0
LayerCount: 2
Fore
SplineSet
64 0 m 1,0,-1
 64 593 l 1,1,-1
 0 593 l 1,2,-1
 0 676 l 1,3,-1
 64 676 l 1,4,-1
 64 760 l 1,5,-1
 189 760 l 1,6,-1
 189 676 l 1,7,-1
 347 676 l 1,8,-1
 347 593 l 1,9,-1
 189 593 l 1,10,-1
 189 576 l 2,11,12
 189 548 189 548 187.5 517 c 128,-1,13
 186 486 186 486 185 460 c 1,14,-1
 192 460 l 1,15,16
 218 503 218 503 257 524.5 c 128,-1,17
 296 546 296 546 352 546 c 0,18,19
 440 546 440 546 490.5 496.5 c 128,-1,20
 541 447 541 447 541 348 c 2,21,-1
 541 0 l 1,22,-1
 416 0 l 1,23,-1
 416 318 l 2,24,25
 416 387 416 387 389 415.5 c 128,-1,26
 362 444 362 444 314 444 c 0,27,28
 189 444 189 444 189 259 c 2,29,-1
 189 0 l 1,30,-1
 64 0 l 1,0,-1
EndSplineSet
Validated: 1
Substitution2: "'smcp' Lowercase to Small Capitals lookup 33 subtable" hbar.sc
Substitution2: "'aalt' Access All Alternates lookup 0 subtable" hbar.sc
EndChar

StartChar: IJ
Encoding: 306 306 243
Width: 600
GlyphClass: 2
LigCaretCntFixed: 1
Flags: W
AnchorPoint: "Anchor-3" 300 714 basechar 0
AnchorPoint: "Anchor-0" 300 0 basechar 0
LayerCount: 2
Fore
SplineSet
259 -10 m 0,0,1
 218 -10 218 -10 172 -4 c 128,-1,2
 126 2 126 2 92 14 c 1,3,-1
 92 123 l 1,4,5
 132 113 132 113 173 106.5 c 128,-1,6
 214 100 214 100 249 100 c 0,7,8
 318 100 318 100 352.5 132 c 128,-1,9
 387 164 387 164 387 239 c 2,10,-1
 387 714 l 1,11,-1
 509 714 l 1,12,-1
 509 235 l 2,13,14
 509 116 509 116 448.5 53 c 128,-1,15
 388 -10 388 -10 259 -10 c 0,0,1
91 210 m 1,16,-1
 91 714 l 1,17,-1
 211 714 l 1,18,-1
 211 210 l 1,19,-1
 91 210 l 1,16,-1
EndSplineSet
Validated: 1
Substitution2: "'c2sc' Capitals to Small Capitals lookup 32 subtable" ij.sc
Substitution2: "'aalt' Access All Alternates lookup 0 subtable" ij.sc
LCarets2: 1 0
EndChar

StartChar: ij
Encoding: 307 307 244
Width: 600
GlyphClass: 2
LigCaretCntFixed: 1
Flags: W
AnchorPoint: "Anchor-3" 300 770 basechar 0
AnchorPoint: "Anchor-0" 306 -245 basechar 0
LayerCount: 2
Fore
SplineSet
162 617 m 0,0,1
 126 617 126 617 105 636.5 c 128,-1,2
 84 656 84 656 84 694 c 256,3,4
 84 732 84 732 105 751 c 128,-1,5
 126 770 126 770 164 770 c 0,6,7
 201 770 201 770 221.5 751 c 128,-1,8
 242 732 242 732 242 695 c 0,9,10
 242 657 242 657 221 637 c 128,-1,11
 200 617 200 617 162 617 c 0,0,1
436 617 m 0,12,13
 399 617 399 617 378.5 636.5 c 128,-1,14
 358 656 358 656 358 694 c 0,15,16
 358 770 358 770 437 770 c 0,17,18
 474 770 474 770 495 751 c 128,-1,19
 516 732 516 732 516 695 c 0,20,21
 516 657 516 657 495 637 c 128,-1,22
 474 617 474 617 436 617 c 0,12,13
274 -245 m 0,23,24
 240 -245 240 -245 199 -240 c 128,-1,25
 158 -235 158 -235 124 -225 c 1,26,-1
 124 -118 l 1,27,28
 156 -128 156 -128 192.5 -133 c 128,-1,29
 229 -138 229 -138 257 -138 c 0,30,31
 321 -138 321 -138 348.5 -108 c 128,-1,32
 376 -78 376 -78 376 -8 c 2,33,-1
 376 542 l 1,34,-1
 501 542 l 1,35,-1
 501 -31 l 2,36,37
 501 -139 501 -139 443.5 -192 c 128,-1,38
 386 -245 386 -245 274 -245 c 0,23,24
100 0 m 1,39,-1
 100 542 l 1,40,-1
 224 542 l 1,41,-1
 224 0 l 1,42,-1
 100 0 l 1,39,-1
EndSplineSet
Validated: 1
Substitution2: "'smcp' Lowercase to Small Capitals lookup 33 subtable" ij.sc
Substitution2: "'aalt' Access All Alternates lookup 0 subtable" ij.sc
LCarets2: 1 0
EndChar

StartChar: kgreenlandic
Encoding: 312 312 249
Width: 600
GlyphClass: 2
Flags: W
AnchorPoint: "Anchor-3" 300 542 basechar 0
AnchorPoint: "Anchor-0" 300 0 basechar 0
LayerCount: 2
Fore
SplineSet
77 0 m 1,0,-1
 77 542 l 1,1,-1
 201 542 l 1,2,-1
 201 403 l 2,3,4
 201 372 201 372 199 340 c 128,-1,5
 197 308 197 308 194 275 c 1,6,-1
 196 275 l 1,7,8
 212 298 212 298 228.5 319.5 c 128,-1,9
 245 341 245 341 264 363 c 2,10,-1
 421 542 l 1,11,-1
 566 542 l 1,12,-1
 361 314 l 1,13,-1
 579 0 l 1,14,-1
 443 0 l 1,15,-1
 282 236 l 1,16,-1
 201 168 l 1,17,-1
 201 0 l 1,18,-1
 77 0 l 1,0,-1
EndSplineSet
Validated: 1
EndChar

StartChar: Lslash
Encoding: 321 321 258
Width: 600
GlyphClass: 2
Flags: W
AnchorPoint: "Anchor-4" 491 714 basechar 0
AnchorPoint: "Anchor-3" 204 714 basechar 0
AnchorPoint: "Anchor-1" 340 357 basechar 0
AnchorPoint: "Anchor-0" 361 0 basechar 0
LayerCount: 2
Fore
SplineSet
139 0 m 1,0,-1
 139 246 l 1,1,-1
 91 217 l 1,2,-1
 45 297 l 1,3,-1
 139 354 l 1,4,-1
 139 714 l 1,5,-1
 264 714 l 1,6,-1
 264 429 l 1,7,-1
 356 484 l 1,8,-1
 403 403 l 1,9,-1
 264 320 l 1,10,-1
 264 111 l 1,11,-1
 564 111 l 1,12,-1
 564 0 l 1,13,-1
 139 0 l 1,0,-1
EndSplineSet
Validated: 1
Substitution2: "'c2sc' Capitals to Small Capitals lookup 32 subtable" lslash.sc
Substitution2: "'aalt' Access All Alternates lookup 0 subtable" lslash.sc
EndChar

StartChar: lslash
Encoding: 322 322 259
Width: 600
GlyphClass: 2
Flags: W
AnchorPoint: "Anchor-4" 496 760 basechar 0
AnchorPoint: "Anchor-3" 300 760 basechar 0
AnchorPoint: "Anchor-1" 318 380 basechar 0
AnchorPoint: "Anchor-0" 300 0 basechar 0
LayerCount: 2
Fore
SplineSet
68 0 m 1,0,-1
 68 79 l 1,1,-1
 254 103 l 1,2,-1
 254 270 l 1,3,-1
 173 220 l 1,4,-1
 127 299 l 1,5,-1
 254 377 l 1,6,-1
 254 657 l 1,7,-1
 92 681 l 1,8,-1
 92 760 l 1,9,-1
 378 760 l 1,10,-1
 378 454 l 1,11,-1
 450 498 l 1,12,-1
 498 419 l 1,13,-1
 378 346 l 1,14,-1
 378 103 l 1,15,-1
 546 79 l 1,16,-1
 546 0 l 1,17,-1
 68 0 l 1,0,-1
EndSplineSet
Validated: 1
Substitution2: "'smcp' Lowercase to Small Capitals lookup 33 subtable" lslash.sc
Substitution2: "'aalt' Access All Alternates lookup 0 subtable" lslash.sc
EndChar

StartChar: napostrophe
Encoding: 329 329 266
Width: 600
GlyphClass: 2
Flags: W
AnchorPoint: "Anchor-3" 310 542 basechar 0
AnchorPoint: "Anchor-0" 310 0 basechar 0
LayerCount: 2
Fore
SplineSet
-90 469 m 1,0,1
 -74 536 -74 536 -61 599.5 c 128,-1,2
 -48 663 -48 663 -41 714 c 1,3,-1
 83 714 l 1,4,-1
 90 703 l 1,5,6
 77 653 77 653 54.5 593 c 128,-1,7
 32 533 32 533 4 469 c 1,8,-1
 -90 469 l 1,0,1
76 0 m 1,9,-1
 76 542 l 1,10,-1
 172 542 l 1,11,-1
 192 469 l 1,12,-1
 199 469 l 1,13,14
 222 511 222 511 263.5 531.5 c 128,-1,15
 305 552 305 552 361 552 c 0,16,17
 446 552 446 552 493.5 503 c 128,-1,18
 541 454 541 454 541 357 c 2,19,-1
 541 0 l 1,20,-1
 416 0 l 1,21,-1
 416 328 l 2,22,23
 416 450 416 450 320 450 c 0,24,25
 257 450 257 450 229 400.5 c 128,-1,26
 201 351 201 351 201 264 c 2,27,-1
 201 0 l 1,28,-1
 76 0 l 1,9,-1
EndSplineSet
Validated: 1
EndChar

StartChar: Eng
Encoding: 330 330 267
Width: 600
GlyphClass: 2
Flags: W
AnchorPoint: "Anchor-4" 600 714 basechar 0
AnchorPoint: "Anchor-3" 305 714 basechar 0
AnchorPoint: "Anchor-0" 305 -201 basechar 0
LayerCount: 2
Fore
SplineSet
54 0 m 1,0,-1
 54 714 l 1,1,-1
 222 714 l 1,2,-1
 437 131 l 1,3,-1
 440 131 l 1,4,5
 436 197 436 197 434 252.5 c 128,-1,6
 432 308 432 308 432 348 c 2,7,-1
 432 714 l 1,8,-1
 546 714 l 1,9,-1
 546 0 l 1,10,-1
 546 0 l 1,11,12
 545 -104 545 -104 487.5 -152.5 c 128,-1,13
 430 -201 430 -201 335 -201 c 0,14,15
 307 -201 307 -201 285.5 -197.5 c 128,-1,16
 264 -194 264 -194 249 -189 c 1,17,-1
 249 -96 l 1,18,19
 266 -100 266 -100 285.5 -103 c 128,-1,20
 305 -106 305 -106 326 -106 c 0,21,22
 377 -106 377 -106 408.5 -82 c 128,-1,23
 440 -58 440 -58 440 0 c 1,24,-1
 381 0 l 1,25,-1
 160 596 l 1,26,-1
 156 596 l 1,27,28
 160 530 160 530 164 471 c 128,-1,29
 168 412 168 412 168 372 c 2,30,-1
 168 0 l 1,31,-1
 54 0 l 1,0,-1
EndSplineSet
Validated: 5
Substitution2: "'c2sc' Capitals to Small Capitals lookup 32 subtable" eng.sc
AlternateSubs2: "'aalt' Access All Alternates lookup 1 subtable" Eng.alt1 Eng.alt2 Eng.alt3 eng.sc
EndChar

StartChar: eng
Encoding: 331 331 268
Width: 600
GlyphClass: 2
Flags: W
AnchorPoint: "Anchor-4" 580 542 basechar 0
AnchorPoint: "Anchor-3" 307 542 basechar 0
AnchorPoint: "Anchor-0" 307 -240 basechar 0
LayerCount: 2
Fore
SplineSet
64 0 m 1,0,-1
 64 542 l 1,1,-1
 160 542 l 1,2,-1
 180 469 l 1,3,-1
 187 469 l 1,4,5
 211 511 211 511 254.5 531.5 c 128,-1,6
 298 552 298 552 356 552 c 0,7,8
 443 552 443 552 492 503 c 128,-1,9
 541 454 541 454 541 357 c 2,10,-1
 541 -68 l 2,11,12
 541 -143 541 -143 501.5 -191.5 c 128,-1,13
 462 -240 462 -240 376 -240 c 0,14,15
 353 -240 353 -240 331 -236.5 c 128,-1,16
 309 -233 309 -233 295 -228 c 1,17,-1
 295 -131 l 1,18,19
 309 -136 309 -136 323 -138.5 c 128,-1,20
 337 -141 337 -141 351 -141 c 0,21,22
 379 -141 379 -141 397.5 -124 c 128,-1,23
 416 -107 416 -107 416 -57 c 2,24,-1
 416 328 l 2,25,26
 416 450 416 450 315 450 c 0,27,28
 247 450 247 450 218 400 c 128,-1,29
 189 350 189 350 189 264 c 2,30,-1
 189 0 l 1,31,-1
 64 0 l 1,0,-1
EndSplineSet
Validated: 1
Substitution2: "'smcp' Lowercase to Small Capitals lookup 33 subtable" eng.sc
Substitution2: "'aalt' Access All Alternates lookup 0 subtable" eng.sc
EndChar

StartChar: OE
Encoding: 338 338 275
Width: 600
GlyphClass: 2
Flags: W
AnchorPoint: "Anchor-3" 300 714 basechar 0
AnchorPoint: "Anchor-0" 300 0 basechar 0
LayerCount: 2
Fore
SplineSet
247 -10 m 0,0,1
 170 -10 170 -10 123.5 35.5 c 128,-1,2
 77 81 77 81 55.5 163.5 c 128,-1,3
 34 246 34 246 34 359 c 0,4,5
 34 470 34 470 56.5 552 c 128,-1,6
 79 634 79 634 127.5 679 c 128,-1,7
 176 724 176 724 254 724 c 0,8,9
 269 724 269 724 288 722.5 c 128,-1,10
 307 721 307 721 328 714 c 1,11,-1
 576 714 l 1,12,-1
 576 607 l 1,13,-1
 426 607 l 1,14,-1
 426 425 l 1,15,-1
 558 425 l 1,16,-1
 558 318 l 1,17,-1
 426 318 l 1,18,-1
 426 107 l 1,19,-1
 576 107 l 1,20,-1
 576 0 l 1,21,-1
 321 0 l 1,22,23
 288 -10 288 -10 247 -10 c 0,0,1
259 99 m 0,24,25
 286 99 286 99 308 111 c 1,26,-1
 308 604 l 1,27,28
 299 611 299 611 286 613.5 c 128,-1,29
 273 616 273 616 260 616 c 0,30,31
 206 616 206 616 181.5 549 c 128,-1,32
 157 482 157 482 157 358 c 0,33,34
 157 233 157 233 179 166 c 128,-1,35
 201 99 201 99 259 99 c 0,24,25
EndSplineSet
Validated: 1
Substitution2: "'c2sc' Capitals to Small Capitals lookup 32 subtable" oe.sc
Substitution2: "'aalt' Access All Alternates lookup 0 subtable" oe.sc
EndChar

StartChar: oe
Encoding: 339 339 276
Width: 600
GlyphClass: 2
Flags: W
AnchorPoint: "Anchor-3" 300 542 basechar 0
AnchorPoint: "Anchor-0" 300 0 basechar 0
LayerCount: 2
Fore
SplineSet
191 -10 m 256,0,1
 106 -10 106 -10 63 67 c 128,-1,2
 20 144 20 144 20 275 c 0,3,4
 20 404 20 404 62.5 478 c 128,-1,5
 105 552 105 552 191 552 c 0,6,7
 235 552 235 552 265.5 531 c 128,-1,8
 296 510 296 510 317 468 c 1,9,10
 357 551 357 551 437 551 c 0,11,12
 488 551 488 551 521 520.5 c 128,-1,13
 554 490 554 490 570 435 c 128,-1,14
 586 380 586 380 586 309 c 2,15,-1
 586 244 l 1,16,-1
 366 244 l 1,17,18
 367 151 367 151 393 114 c 128,-1,19
 419 77 419 77 462 77 c 0,20,21
 510 77 510 77 570 116 c 1,22,-1
 570 26 l 1,23,24
 513 -10 513 -10 448 -10 c 0,25,26
 404 -10 404 -10 372.5 10 c 128,-1,27
 341 30 341 30 318 76 c 1,28,29
 276 -10 276 -10 191 -10 c 256,0,1
366 324 m 1,30,-1
 491 324 l 1,31,32
 491 387 491 387 478 426 c 128,-1,33
 465 465 465 465 434 465 c 0,34,35
 408 465 408 465 388 432 c 128,-1,36
 368 399 368 399 366 324 c 1,30,-1
193 81 m 0,37,38
 263 81 263 81 263 271 c 256,39,40
 263 461 263 461 192 461 c 0,41,42
 155 461 155 461 139 413.5 c 128,-1,43
 123 366 123 366 123 272 c 0,44,45
 123 174 123 174 140 127.5 c 128,-1,46
 157 81 157 81 193 81 c 0,37,38
EndSplineSet
Validated: 1
Substitution2: "'smcp' Lowercase to Small Capitals lookup 33 subtable" oe.sc
Substitution2: "'aalt' Access All Alternates lookup 0 subtable" oe.sc
EndChar

StartChar: Tbar
Encoding: 358 358 295
Width: 600
GlyphClass: 2
Flags: W
AnchorPoint: "Anchor-4" 580 714 basechar 0
AnchorPoint: "Anchor-3" 300 714 basechar 0
AnchorPoint: "Anchor-1" 300 357 basechar 0
AnchorPoint: "Anchor-0" 300 0 basechar 0
LayerCount: 2
Fore
SplineSet
238 0 m 1,0,-1
 238 306 l 1,1,-1
 105 306 l 1,2,-1
 105 408 l 1,3,-1
 238 408 l 1,4,-1
 238 606 l 1,5,-1
 36 606 l 1,6,-1
 36 714 l 1,7,-1
 564 714 l 1,8,-1
 564 606 l 1,9,-1
 362 606 l 1,10,-1
 362 408 l 1,11,-1
 495 408 l 1,12,-1
 495 306 l 1,13,-1
 362 306 l 1,14,-1
 362 0 l 1,15,-1
 238 0 l 1,0,-1
EndSplineSet
Validated: 1
Substitution2: "'c2sc' Capitals to Small Capitals lookup 32 subtable" tbar.sc
Substitution2: "'aalt' Access All Alternates lookup 0 subtable" tbar.sc
EndChar

StartChar: tbar
Encoding: 359 359 296
Width: 600
GlyphClass: 2
Flags: W
AnchorPoint: "Anchor-4" 580 681 basechar 0
AnchorPoint: "Anchor-3" 264 681 basechar 0
AnchorPoint: "Anchor-1" 258 271 basechar 0
AnchorPoint: "Anchor-0" 324 0 basechar 0
LayerCount: 2
Fore
SplineSet
54 259 m 1,0,-1
 54 343 l 1,1,-1
 187 343 l 1,2,-1
 187 439 l 1,3,-1
 54 439 l 1,4,-1
 54 519 l 1,5,-1
 194 543 l 1,6,-1
 216 681 l 1,7,-1
 311 681 l 1,8,-1
 311 542 l 1,9,-1
 518 542 l 1,10,-1
 518 439 l 1,11,-1
 311 439 l 1,12,-1
 311 343 l 1,13,-1
 527 343 l 1,14,-1
 527 259 l 1,15,-1
 311 259 l 1,16,-1
 311 194 l 2,17,18
 311 135 311 135 339 114 c 128,-1,19
 367 93 367 93 415 93 c 0,20,21
 440 93 440 93 467 97 c 128,-1,22
 494 101 494 101 527 108 c 1,23,-1
 527 10 l 1,24,25
 461 -10 461 -10 395 -10 c 0,26,27
 297 -10 297 -10 242 33 c 128,-1,28
 187 76 187 76 187 179 c 2,29,-1
 187 259 l 1,30,-1
 54 259 l 1,0,-1
EndSplineSet
Validated: 1
Substitution2: "'smcp' Lowercase to Small Capitals lookup 33 subtable" tbar.sc
Substitution2: "'aalt' Access All Alternates lookup 0 subtable" tbar.sc
EndChar

StartChar: Uogonek
Encoding: 370 370 307
Width: 600
GlyphClass: 2
Flags: W
AnchorPoint: "Anchor-4" 580 714 basechar 0
AnchorPoint: "Anchor-3" 300 714 basechar 0
AnchorPoint: "Anchor-2" 540 10 basechar 0
AnchorPoint: "Anchor-0" 330 -231 basechar 0
LayerCount: 2
Fore
SplineSet
335 -231 m 0,0,1
 278 -231 278 -231 249.5 -202 c 128,-1,2
 221 -173 221 -173 221 -128 c 0,3,4
 221 -94 221 -94 239 -64 c 128,-1,5
 257 -34 257 -34 290 -10 c 1,6,7
 169 -8 169 -8 111.5 60.5 c 128,-1,8
 54 129 54 129 54 247 c 2,9,-1
 54 714 l 1,10,-1
 179 714 l 1,11,-1
 179 265 l 2,12,13
 179 180 179 180 207 139 c 128,-1,14
 235 98 235 98 300 98 c 0,15,16
 369 98 369 98 395 141 c 128,-1,17
 421 184 421 184 421 266 c 2,18,-1
 421 714 l 1,19,-1
 546 714 l 1,20,-1
 546 247 l 2,21,22
 546 165 546 165 516.5 104.5 c 128,-1,23
 487 44 487 44 424 15 c 1,24,25
 369 -18 369 -18 340.5 -48.5 c 128,-1,26
 312 -79 312 -79 312 -111 c 0,27,28
 312 -154 312 -154 358 -154 c 0,29,30
 368 -154 368 -154 380 -151.5 c 128,-1,31
 392 -149 392 -149 400 -146 c 1,32,-1
 400 -220 l 1,33,34
 387 -224 387 -224 370.5 -227.5 c 128,-1,35
 354 -231 354 -231 335 -231 c 0,0,1
EndSplineSet
Validated: 1
Substitution2: "'c2sc' Capitals to Small Capitals lookup 32 subtable" uogonek.sc
Substitution2: "'locl' Localized Forms in Latin lookup 11 subtable" Uogonek.loclNAV
Ligature2: "'ccmp' Glyph Composition/Decomposition lookup 6 subtable" U uni0328
AlternateSubs2: "'aalt' Access All Alternates lookup 1 subtable" Uogonek.loclNAV uogonek.sc
EndChar

StartChar: longs
Encoding: 383 383 320
Width: 600
GlyphClass: 2
Flags: W
AnchorPoint: "Anchor-3" 389 765 basechar 0
AnchorPoint: "Anchor-0" 300 0 basechar 0
LayerCount: 2
Fore
SplineSet
207 0 m 1,0,-1
 207 582 l 2,1,2
 207 651 207 651 231 691 c 128,-1,3
 255 731 255 731 299.5 748 c 128,-1,4
 344 765 344 765 403 765 c 0,5,6
 446 765 446 765 478 758.5 c 128,-1,7
 510 752 510 752 532 744 c 1,8,-1
 502 648 l 1,9,10
 486 653 486 653 462.5 658 c 128,-1,11
 439 663 439 663 416 663 c 0,12,13
 371 663 371 663 350.5 640.5 c 128,-1,14
 330 618 330 618 330 569 c 2,15,-1
 330 0 l 1,16,-1
 207 0 l 1,0,-1
EndSplineSet
Validated: 1
EndChar

StartChar: florin
Encoding: 402 402 321
Width: 600
GlyphClass: 2
Flags: W
AnchorPoint: "Anchor-3" 378 724 basechar 0
AnchorPoint: "Anchor-0" 277 -243 basechar 0
LayerCount: 2
Fore
SplineSet
185 -243 m 0,0,1
 160 -243 160 -243 134.5 -239.5 c 128,-1,2
 109 -236 109 -236 94 -232 c 1,3,-1
 94 -135 l 1,4,5
 109 -140 109 -140 127.5 -142 c 128,-1,6
 146 -144 146 -144 160 -144 c 0,7,8
 192 -144 192 -144 208 -125 c 128,-1,9
 224 -106 224 -106 224 -56 c 2,10,-1
 224 396 l 1,11,-1
 120 396 l 1,12,-1
 120 459 l 1,13,-1
 224 491 l 1,14,-1
 224 538 l 2,15,16
 224 642 224 642 273.5 683 c 128,-1,17
 323 724 323 724 412 724 c 0,18,19
 452 724 452 724 482 717.5 c 128,-1,20
 512 711 512 711 536 702 c 1,21,-1
 508 611 l 1,22,23
 493 617 493 617 472.5 621 c 128,-1,24
 452 625 452 625 430 625 c 0,25,26
 385 625 385 625 364.5 605 c 128,-1,27
 344 585 344 585 344 539 c 2,28,-1
 344 490 l 1,29,-1
 474 490 l 1,30,-1
 474 396 l 1,31,-1
 345 396 l 1,32,-1
 345 -58 l 2,33,34
 345 -151 345 -151 306.5 -197 c 128,-1,35
 268 -243 268 -243 185 -243 c 0,0,1
EndSplineSet
Validated: 1
EndChar

StartChar: circumflex
Encoding: 710 710 330
Width: 600
Flags: W
LayerCount: 2
Fore
SplineSet
124 606 m 1,0,-1
 124 618 l 1,1,2
 142 638 142 638 164 664 c 128,-1,3
 186 690 186 690 206.5 717 c 128,-1,4
 227 744 227 744 239 766 c 1,5,-1
 365 766 l 1,6,7
 377 744 377 744 397 717.5 c 128,-1,8
 417 691 417 691 439.5 664.5 c 128,-1,9
 462 638 462 638 480 618 c 1,10,-1
 480 606 l 1,11,-1
 401 606 l 1,12,13
 378 622 378 622 352 645.5 c 128,-1,14
 326 669 326 669 301 695 c 1,15,16
 276 669 276 669 250.5 645.5 c 128,-1,17
 225 622 225 622 202 606 c 1,18,-1
 124 606 l 1,0,-1
EndSplineSet
Validated: 1
EndChar

StartChar: caron
Encoding: 711 711 331
Width: 600
GlyphClass: 2
Flags: W
AnchorPoint: "Anchor-13" 299 763 basemark 0
AnchorPoint: "Anchor-13" 299 528 mark 0
AnchorPoint: "Anchor-8" 299 528 mark 0
AnchorPoint: "Anchor-3" 299 528 mark 0
LayerCount: 2
Fore
SplineSet
237 606 m 1,0,1
 224 628 224 628 203.5 655 c 128,-1,2
 183 682 183 682 161 708 c 128,-1,3
 139 734 139 734 122 753 c 1,4,-1
 122 766 l 1,5,-1
 200 766 l 1,6,7
 223 750 223 750 249 728 c 128,-1,8
 275 706 275 706 299 680 c 1,9,10
 324 707 324 707 349.5 728.5 c 128,-1,11
 375 750 375 750 399 766 c 1,12,-1
 478 766 l 1,13,-1
 478 753 l 1,14,15
 460 734 460 734 438 708 c 128,-1,16
 416 682 416 682 395 655 c 128,-1,17
 374 628 374 628 362 606 c 1,18,-1
 237 606 l 1,0,1
EndSplineSet
Validated: 1
EndChar

StartChar: breve
Encoding: 728 728 333
Width: 600
GlyphClass: 2
Flags: W
AnchorPoint: "Anchor-13" 300 765 basemark 0
AnchorPoint: "Anchor-13" 300 542 mark 0
AnchorPoint: "Anchor-8" 300 542 mark 0
AnchorPoint: "Anchor-3" 300 542 mark 0
LayerCount: 2
Fore
SplineSet
299 606 m 0,0,1
 227 606 227 606 184 647 c 128,-1,2
 141 688 141 688 139 758 c 1,3,-1
 212 758 l 1,4,5
 218 718 218 718 244 703.5 c 128,-1,6
 270 689 270 689 302 689 c 0,7,8
 333 689 333 689 359.5 703 c 128,-1,9
 386 717 386 717 391 758 c 1,10,-1
 465 758 l 1,11,12
 464 690 464 690 419 648 c 128,-1,13
 374 606 374 606 299 606 c 0,0,1
EndSplineSet
Validated: 1
EndChar

StartChar: dotaccent
Encoding: 729 729 334
Width: 600
Flags: W
LayerCount: 2
Fore
SplineSet
299 617 m 256,0,1
 262 617 262 617 241.5 636.5 c 128,-1,2
 221 656 221 656 221 694 c 0,3,4
 221 770 221 770 300 770 c 0,5,6
 338 770 338 770 358.5 751 c 128,-1,7
 379 732 379 732 379 694 c 256,8,9
 379 656 379 656 357.5 636.5 c 128,-1,10
 336 617 336 617 299 617 c 256,0,1
EndSplineSet
Validated: 1
EndChar

StartChar: ring
Encoding: 730 730 335
Width: 600
Flags: W
LayerCount: 2
Fore
SplineSet
298 606 m 0,0,1
 247 606 247 606 215.5 636 c 128,-1,2
 184 666 184 666 184 718 c 0,3,4
 184 769 184 769 215.5 799 c 128,-1,5
 247 829 247 829 298 829 c 0,6,7
 348 829 348 829 382 798.5 c 128,-1,8
 416 768 416 768 416 719 c 0,9,10
 416 666 416 666 383 636 c 128,-1,11
 350 606 350 606 298 606 c 0,0,1
299 669 m 0,12,13
 320 669 320 669 334 682 c 128,-1,14
 348 695 348 695 348 718 c 0,15,16
 348 740 348 740 334.5 753.5 c 128,-1,17
 321 767 321 767 299 767 c 0,18,19
 278 767 278 767 264 753.5 c 128,-1,20
 250 740 250 740 250 718 c 0,21,22
 250 669 250 669 299 669 c 0,12,13
EndSplineSet
Validated: 1
EndChar

StartChar: ogonek
Encoding: 731 731 336
Width: 600
Flags: W
LayerCount: 2
Fore
SplineSet
328 -231 m 0,0,1
 272 -231 272 -231 243.5 -203 c 128,-1,2
 215 -175 215 -175 215 -130 c 0,3,4
 215 -86 215 -86 243 -48.5 c 128,-1,5
 271 -11 271 -11 311 16 c 1,6,-1
 371 0 l 1,7,8
 338 -32 338 -32 322 -57.5 c 128,-1,9
 306 -83 306 -83 306 -110 c 0,10,11
 306 -154 306 -154 350 -154 c 0,12,13
 363 -154 363 -154 375 -151.5 c 128,-1,14
 387 -149 387 -149 395 -146 c 1,15,-1
 395 -220 l 1,16,17
 382 -224 382 -224 365.5 -227.5 c 128,-1,18
 349 -231 349 -231 328 -231 c 0,0,1
EndSplineSet
Validated: 1
EndChar

StartChar: tilde
Encoding: 732 732 337
Width: 600
Flags: W
LayerCount: 2
Fore
SplineSet
114 605 m 1,0,1
 118 666 118 666 145.5 706.5 c 128,-1,2
 173 747 173 747 224 747 c 0,3,4
 252 747 252 747 278.5 733.5 c 128,-1,5
 305 720 305 720 329.5 707 c 128,-1,6
 354 694 354 694 377 694 c 0,7,8
 396 694 396 694 406 707.5 c 128,-1,9
 416 721 416 721 423 748 c 1,10,-1
 486 748 l 1,11,12
 482 679 482 679 451.5 642.5 c 128,-1,13
 421 606 421 606 377 606 c 0,14,15
 349 606 349 606 322.5 619.5 c 128,-1,16
 296 633 296 633 271 646.5 c 128,-1,17
 246 660 246 660 224 660 c 0,18,19
 203 660 203 660 193 647 c 128,-1,20
 183 634 183 634 178 605 c 1,21,-1
 114 605 l 1,0,1
EndSplineSet
Validated: 1
EndChar

StartChar: hungarumlaut
Encoding: 733 733 338
Width: 600
Flags: W
LayerCount: 2
Fore
SplineSet
308 606 m 1,0,-1
 308 619 l 1,1,2
 330 653 330 653 355 695 c 128,-1,3
 380 737 380 737 394 766 c 1,4,-1
 513 766 l 1,5,-1
 513 757 l 1,6,7
 503 738 503 738 478 709.5 c 128,-1,8
 453 681 453 681 424 652.5 c 128,-1,9
 395 624 395 624 372 606 c 1,10,-1
 308 606 l 1,0,-1
130 606 m 1,11,-1
 130 619 l 1,12,13
 152 654 152 654 176.5 695.5 c 128,-1,14
 201 737 201 737 216 766 c 1,15,-1
 336 766 l 1,16,-1
 336 757 l 1,17,18
 326 738 326 738 301 710 c 128,-1,19
 276 682 276 682 247 653.5 c 128,-1,20
 218 625 218 625 193 606 c 1,21,-1
 130 606 l 1,11,-1
EndSplineSet
Validated: 1
EndChar

StartChar: tonos
Encoding: 900 900 339
Width: 600
GlyphClass: 2
Flags: W
AnchorPoint: "Anchor-13" 307 760 basemark 0
AnchorPoint: "Anchor-13" 300 542 mark 0
AnchorPoint: "Anchor-8" 300 542 mark 0
AnchorPoint: "Anchor-3" 300 542 mark 0
LayerCount: 2
Fore
SplineSet
264 606 m 1,0,-1
 264 621 l 1,1,2
 270 644 270 644 276 676 c 128,-1,3
 282 708 282 708 287.5 741 c 128,-1,4
 293 774 293 774 296 800 c 1,5,-1
 415 800 l 1,6,-1
 415 788 l 1,7,8
 403 752 403 752 381.5 701.5 c 128,-1,9
 360 651 360 651 335 606 c 1,10,-1
 264 606 l 1,0,-1
EndSplineSet
Validated: 1
EndChar

StartChar: dieresistonos
Encoding: 901 901 340
Width: 600
GlyphClass: 2
Flags: W
AnchorPoint: "Anchor-13" 301 838 basemark 0
AnchorPoint: "Anchor-13" 300 542 mark 0
AnchorPoint: "Anchor-8" 300 542 mark 0
AnchorPoint: "Anchor-3" 300 542 mark 0
LayerCount: 2
Fore
SplineSet
256 678 m 1,0,-1
 256 691 l 1,1,2
 266 720 266 720 277 762.5 c 128,-1,3
 288 805 288 805 293 838 c 1,4,-1
 407 838 l 1,5,-1
 407 828 l 1,6,7
 391 796 391 796 365.5 756 c 128,-1,8
 340 716 340 716 312 678 c 1,9,-1
 256 678 l 1,0,-1
176 625 m 0,10,11
 151 625 151 625 135.5 639.5 c 128,-1,12
 120 654 120 654 120 684 c 0,13,14
 120 715 120 715 135.5 728.5 c 128,-1,15
 151 742 151 742 176 742 c 0,16,17
 200 742 200 742 216 728.5 c 128,-1,18
 232 715 232 715 232 684 c 0,19,20
 232 654 232 654 216 639.5 c 128,-1,21
 200 625 200 625 176 625 c 0,10,11
422 625 m 0,22,23
 397 625 397 625 381.5 639.5 c 128,-1,24
 366 654 366 654 366 684 c 0,25,26
 366 715 366 715 381.5 728.5 c 128,-1,27
 397 742 397 742 422 742 c 0,28,29
 446 742 446 742 462.5 728.5 c 128,-1,30
 479 715 479 715 479 684 c 0,31,32
 479 654 479 654 462.5 639.5 c 128,-1,33
 446 625 446 625 422 625 c 0,22,23
EndSplineSet
Validated: 1
EndChar

StartChar: Epsilontonos
Encoding: 904 904 343
Width: 600
GlyphClass: 2
Flags: W
AnchorPoint: "Anchor-3" 332 714 basechar 0
AnchorPoint: "Anchor-0" 341 0 basechar 0
LayerCount: 2
Fore
SplineSet
-47 606 m 1,0,-1
 -47 621 l 1,1,2
 -41 644 -41 644 -34.5 676 c 128,-1,3
 -28 708 -28 708 -23 741 c 128,-1,4
 -18 774 -18 774 -15 800 c 1,5,-1
 104 800 l 1,6,-1
 104 788 l 1,7,8
 92 752 92 752 70.5 701.5 c 128,-1,9
 49 651 49 651 24 606 c 1,10,-1
 -47 606 l 1,0,-1
130 0 m 1,11,-1
 130 714 l 1,12,-1
 524 714 l 1,13,-1
 524 606 l 1,14,-1
 251 606 l 1,15,-1
 251 425 l 1,16,-1
 508 425 l 1,17,-1
 508 317 l 1,18,-1
 251 317 l 1,19,-1
 251 108 l 1,20,-1
 524 108 l 1,21,-1
 524 0 l 1,22,-1
 130 0 l 1,11,-1
EndSplineSet
Validated: 1
EndChar

StartChar: Etatonos
Encoding: 905 905 344
Width: 600
GlyphClass: 2
Flags: W
AnchorPoint: "Anchor-3" 326 714 basechar 0
AnchorPoint: "Anchor-1" 326 377 basechar 0
AnchorPoint: "Anchor-0" 326 0 basechar 0
LayerCount: 2
Fore
SplineSet
-55 606 m 1,0,-1
 -55 621 l 1,1,2
 -49 644 -49 644 -42.5 676 c 128,-1,3
 -36 708 -36 708 -31 741 c 128,-1,4
 -26 774 -26 774 -23 800 c 1,5,-1
 96 800 l 1,6,-1
 96 788 l 1,7,8
 84 752 84 752 62.5 701.5 c 128,-1,9
 41 651 41 651 16 606 c 1,10,-1
 -55 606 l 1,0,-1
101 0 m 1,11,-1
 101 714 l 1,12,-1
 225 714 l 1,13,-1
 225 427 l 1,14,-1
 421 427 l 1,15,-1
 421 714 l 1,16,-1
 546 714 l 1,17,-1
 546 0 l 1,18,-1
 421 0 l 1,19,-1
 421 319 l 1,20,-1
 225 319 l 1,21,-1
 225 0 l 1,22,-1
 101 0 l 1,11,-1
EndSplineSet
Validated: 1
EndChar

StartChar: Upsilontonos
Encoding: 910 910 347
Width: 600
GlyphClass: 2
Flags: W
AnchorPoint: "Anchor-3" 354 714 basechar 0
AnchorPoint: "Anchor-0" 354 0 basechar 0
LayerCount: 2
Fore
SplineSet
-33 606 m 1,0,-1
 -33 621 l 1,1,2
 -27 644 -27 644 -20.5 676 c 128,-1,3
 -14 708 -14 708 -9 741 c 128,-1,4
 -4 774 -4 774 -1 800 c 1,5,-1
 118 800 l 1,6,-1
 118 788 l 1,7,8
 106 752 106 752 84.5 701.5 c 128,-1,9
 63 651 63 651 38 606 c 1,10,-1
 -33 606 l 1,0,-1
293 0 m 1,11,-1
 293 277 l 1,12,-1
 119 714 l 1,13,-1
 252 714 l 1,14,-1
 355 393 l 1,15,-1
 457 714 l 1,16,-1
 588 714 l 1,17,-1
 415 277 l 1,18,-1
 415 0 l 1,19,-1
 293 0 l 1,11,-1
EndSplineSet
Validated: 1
EndChar

StartChar: Gamma
Encoding: 915 915 352
Width: 600
GlyphClass: 2
Flags: W
AnchorPoint: "Anchor-3" 334 714 basechar 0
AnchorPoint: "Anchor-0" 334 0 basechar 0
LayerCount: 2
Fore
SplineSet
99 0 m 1,0,-1
 99 714 l 1,1,-1
 524 714 l 1,2,-1
 524 608 l 1,3,-1
 224 608 l 1,4,-1
 224 0 l 1,5,-1
 99 0 l 1,0,-1
EndSplineSet
Validated: 1
EndChar

StartChar: uni0394
Encoding: 916 916 353
Width: 600
GlyphClass: 2
Flags: W
AnchorPoint: "Anchor-3" 300 714 basechar 0
AnchorPoint: "Anchor-0" 300 0 basechar 0
LayerCount: 2
Fore
SplineSet
14 0 m 1,0,-1
 14 73 l 1,1,-1
 232 716 l 1,2,-1
 368 716 l 1,3,-1
 586 72 l 1,4,-1
 586 0 l 1,5,-1
 14 0 l 1,0,-1
143 105 m 1,6,-1
 457 105 l 1,7,-1
 336 479 l 2,8,9
 330 496 330 496 322.5 520 c 128,-1,10
 315 544 315 544 308.5 566.5 c 128,-1,11
 302 589 302 589 299 603 c 1,12,13
 296 589 296 589 290 566.5 c 128,-1,14
 284 544 284 544 277 520.5 c 128,-1,15
 270 497 270 497 264 481 c 2,16,-1
 143 105 l 1,6,-1
EndSplineSet
Validated: 1
EndChar

StartChar: Theta
Encoding: 920 920 357
Width: 600
GlyphClass: 2
Flags: W
AnchorPoint: "Anchor-4" 600 714 basechar 0
AnchorPoint: "Anchor-3" 300 714 basechar 0
AnchorPoint: "Anchor-2" 298 10 basechar 0
AnchorPoint: "Anchor-1" 300 357 basechar 0
AnchorPoint: "Anchor-0" 300 0 basechar 0
LayerCount: 2
Fore
SplineSet
300 -10 m 256,0,1
 208 -10 208 -10 149.5 34.5 c 128,-1,2
 91 79 91 79 63.5 161.5 c 128,-1,3
 36 244 36 244 36 358 c 256,4,5
 36 472 36 472 64 554.5 c 128,-1,6
 92 637 92 637 150 681.5 c 128,-1,7
 208 726 208 726 300 726 c 256,8,9
 392 726 392 726 450.5 681.5 c 128,-1,10
 509 637 509 637 536.5 554.5 c 128,-1,11
 564 472 564 472 564 358 c 256,12,13
 564 244 564 244 536 161.5 c 128,-1,14
 508 79 508 79 450 34.5 c 128,-1,15
 392 -10 392 -10 300 -10 c 256,0,1
300 98 m 256,16,17
 374 98 374 98 406 165 c 128,-1,18
 438 232 438 232 438 359 c 0,19,20
 438 484 438 484 406.5 551 c 128,-1,21
 375 618 375 618 301 618 c 0,22,23
 226 618 226 618 194 550.5 c 128,-1,24
 162 483 162 483 162 358 c 0,25,26
 162 232 162 232 194 165 c 128,-1,27
 226 98 226 98 300 98 c 256,16,17
213 311 m 1,28,-1
 213 415 l 1,29,-1
 388 415 l 1,30,-1
 388 311 l 1,31,-1
 213 311 l 1,28,-1
EndSplineSet
Validated: 1
EndChar

StartChar: Lambda
Encoding: 923 923 360
Width: 600
GlyphClass: 2
Flags: W
AnchorPoint: "Anchor-3" 300 714 basechar 0
AnchorPoint: "Anchor-0" 300 0 basechar 0
LayerCount: 2
Fore
SplineSet
14 0 m 1,0,-1
 232 714 l 1,1,-1
 366 714 l 1,2,-1
 586 0 l 1,3,-1
 458 0 l 1,4,-1
 339 438 l 2,5,6
 333 460 333 460 325.5 489.5 c 128,-1,7
 318 519 318 519 311 548.5 c 128,-1,8
 304 578 304 578 299 600 c 1,9,10
 294 578 294 578 288 548.5 c 128,-1,11
 282 519 282 519 275 489.5 c 128,-1,12
 268 460 268 460 262 438 c 2,13,-1
 141 0 l 1,14,-1
 14 0 l 1,0,-1
EndSplineSet
Validated: 1
EndChar

StartChar: Xi
Encoding: 926 926 363
Width: 600
GlyphClass: 2
Flags: W
AnchorPoint: "Anchor-3" 300 714 basechar 0
AnchorPoint: "Anchor-0" 300 0 basechar 0
LayerCount: 2
Fore
SplineSet
74 609 m 1,0,-1
 74 714 l 1,1,-1
 526 714 l 1,2,-1
 526 609 l 1,3,-1
 74 609 l 1,0,-1
111 320 m 1,4,-1
 111 424 l 1,5,-1
 489 424 l 1,6,-1
 489 320 l 1,7,-1
 111 320 l 1,4,-1
54 0 m 1,8,-1
 54 105 l 1,9,-1
 546 105 l 1,10,-1
 546 0 l 1,11,-1
 54 0 l 1,8,-1
EndSplineSet
Validated: 1
EndChar

StartChar: Pi
Encoding: 928 928 365
Width: 600
GlyphClass: 2
Flags: W
AnchorPoint: "Anchor-3" 300 714 basechar 0
AnchorPoint: "Anchor-0" 300 0 basechar 0
LayerCount: 2
Fore
SplineSet
54 0 m 1,0,-1
 54 714 l 1,1,-1
 546 714 l 1,2,-1
 546 0 l 1,3,-1
 422 0 l 1,4,-1
 422 609 l 1,5,-1
 179 609 l 1,6,-1
 179 0 l 1,7,-1
 54 0 l 1,0,-1
EndSplineSet
Validated: 1
EndChar

StartChar: Sigma
Encoding: 931 931 367
Width: 600
GlyphClass: 2
Flags: W
AnchorPoint: "Anchor-3" 300 714 basechar 0
AnchorPoint: "Anchor-0" 300 0 basechar 0
LayerCount: 2
Fore
SplineSet
86 0 m 1,0,-1
 86 100 l 1,1,-1
 293 374 l 1,2,-1
 92 616 l 1,3,-1
 92 714 l 1,4,-1
 492 714 l 1,5,-1
 492 609 l 1,6,-1
 321 609 l 2,7,8
 300 609 300 609 275 610 c 128,-1,9
 250 611 250 611 230 613 c 1,10,-1
 433 375 l 1,11,-1
 219 101 l 1,12,13
 250 103 250 103 280 104 c 128,-1,14
 310 105 310 105 342 105 c 2,15,-1
 521 105 l 1,16,-1
 521 0 l 1,17,-1
 86 0 l 1,0,-1
EndSplineSet
Validated: 1
EndChar

StartChar: Phi
Encoding: 934 934 370
Width: 600
GlyphClass: 2
Flags: W
AnchorPoint: "Anchor-3" 300 714 basechar 0
AnchorPoint: "Anchor-0" 300 0 basechar 0
LayerCount: 2
Fore
SplineSet
248 -10 m 1,0,-1
 248 100 l 1,1,2
 189 101 189 101 148 124 c 128,-1,3
 107 147 107 147 82 185.5 c 128,-1,4
 57 224 57 224 45.5 272 c 128,-1,5
 34 320 34 320 34 371 c 0,6,7
 34 442 34 442 55 501.5 c 128,-1,8
 76 561 76 561 123 597.5 c 128,-1,9
 170 634 170 634 248 636 c 1,10,-1
 248 724 l 1,11,-1
 355 724 l 1,12,-1
 355 636 l 1,13,14
 432 634 432 634 478.5 597 c 128,-1,15
 525 560 525 560 545.5 501 c 128,-1,16
 566 442 566 442 566 372 c 0,17,18
 566 300 566 300 544.5 239 c 128,-1,19
 523 178 523 178 476.5 140 c 128,-1,20
 430 102 430 102 355 100 c 1,21,-1
 355 -10 l 1,22,-1
 248 -10 l 1,0,-1
248 198 m 1,23,-1
 248 537 l 1,24,25
 208 536 208 536 185.5 514 c 128,-1,26
 163 492 163 492 153.5 455 c 128,-1,27
 144 418 144 418 144 372 c 0,28,29
 144 296 144 296 167.5 248 c 128,-1,30
 191 200 191 200 248 198 c 1,23,-1
355 198 m 1,31,32
 409 200 409 200 432.5 248.5 c 128,-1,33
 456 297 456 297 456 372 c 0,34,35
 456 442 456 442 433.5 488.5 c 128,-1,36
 411 535 411 535 355 537 c 1,37,-1
 355 198 l 1,31,32
EndSplineSet
Validated: 1
EndChar

StartChar: Psi
Encoding: 936 936 372
Width: 600
GlyphClass: 2
Flags: W
AnchorPoint: "Anchor-3" 300 714 basechar 0
AnchorPoint: "Anchor-0" 300 0 basechar 0
LayerCount: 2
Fore
SplineSet
245 0 m 1,0,-1
 245 213 l 1,1,2
 164 213 164 213 118 244 c 128,-1,3
 72 275 72 275 53 334 c 128,-1,4
 34 393 34 393 34 476 c 2,5,-1
 34 714 l 1,6,-1
 146 714 l 1,7,-1
 146 480 l 2,8,9
 146 388 146 388 168 351.5 c 128,-1,10
 190 315 190 315 245 315 c 1,11,-1
 245 714 l 1,12,-1
 354 714 l 1,13,-1
 354 315 l 1,14,15
 386 315 386 315 408 328.5 c 128,-1,16
 430 342 430 342 442 377 c 128,-1,17
 454 412 454 412 454 478 c 2,18,-1
 454 714 l 1,19,-1
 566 714 l 1,20,-1
 566 473 l 2,21,22
 566 349 566 349 518.5 281 c 128,-1,23
 471 213 471 213 354 213 c 1,24,-1
 354 0 l 1,25,-1
 245 0 l 1,0,-1
EndSplineSet
Validated: 1
EndChar

StartChar: uni03A9
Encoding: 937 937 373
Width: 600
GlyphClass: 2
Flags: W
AnchorPoint: "Anchor-3" 299 714 basechar 0
AnchorPoint: "Anchor-0" 300 0 basechar 0
LayerCount: 2
Fore
SplineSet
17 0 m 1,0,-1
 17 98 l 1,1,-1
 153 98 l 1,2,3
 104 142 104 142 73.5 222 c 128,-1,4
 43 302 43 302 43 408 c 0,5,6
 43 562 43 562 110.5 643.5 c 128,-1,7
 178 725 178 725 300 725 c 0,8,9
 421 725 421 725 488 644.5 c 128,-1,10
 555 564 555 564 555 407 c 0,11,12
 555 300 555 300 524.5 220.5 c 128,-1,13
 494 141 494 141 444 98 c 1,14,-1
 583 98 l 1,15,-1
 583 0 l 1,16,-1
 342 0 l 1,17,-1
 342 99 l 1,18,19
 393 146 393 146 415.5 218 c 128,-1,20
 438 290 438 290 438 385 c 0,21,22
 438 502 438 502 405.5 561 c 128,-1,23
 373 620 373 620 301 620 c 0,24,25
 230 620 230 620 196.5 563 c 128,-1,26
 163 506 163 506 163 384 c 0,27,28
 163 290 163 290 184.5 217 c 128,-1,29
 206 144 206 144 256 99 c 1,30,-1
 256 0 l 1,31,-1
 17 0 l 1,0,-1
EndSplineSet
Validated: 1
EndChar

StartChar: alpha
Encoding: 945 945 381
Width: 600
GlyphClass: 2
Flags: W
AnchorPoint: "Anchor-3" 300 542 basechar 0
AnchorPoint: "Anchor-0" 292 0 basechar 0
LayerCount: 2
Fore
SplineSet
244 -10 m 0,0,1
 154 -10 154 -10 100 60.5 c 128,-1,2
 46 131 46 131 46 269 c 256,3,4
 46 407 46 407 101 479 c 128,-1,5
 156 551 156 551 253 551 c 0,6,7
 304 551 304 551 337 530.5 c 128,-1,8
 370 510 370 510 396 469 c 1,9,-1
 402 469 l 1,10,11
 406 486 406 486 414.5 506.5 c 128,-1,12
 423 527 423 527 435 542 c 1,13,-1
 534 542 l 1,14,15
 526 520 526 520 519 484.5 c 128,-1,16
 512 449 512 449 507.5 407.5 c 128,-1,17
 503 366 503 366 503 325 c 2,18,-1
 503 149 l 2,19,20
 503 117 503 117 515.5 104.5 c 128,-1,21
 528 92 528 92 544 92 c 0,22,23
 552 92 552 92 561 94 c 128,-1,24
 570 96 570 96 574 97 c 1,25,-1
 574 3 l 1,26,27
 566 -2 566 -2 547.5 -6 c 128,-1,28
 529 -10 529 -10 511 -10 c 0,29,30
 468 -10 468 -10 440 7.5 c 128,-1,31
 412 25 412 25 398 72 c 1,32,-1
 389 72 l 1,33,34
 367 40 367 40 334 15 c 128,-1,35
 301 -10 301 -10 244 -10 c 0,0,1
277 89 m 0,36,37
 336 89 336 89 361 132 c 128,-1,38
 386 175 386 175 388 264 c 2,39,-1
 388 270 l 2,40,41
 388 356 388 356 363.5 404 c 128,-1,42
 339 452 339 452 276 452 c 0,43,44
 222 452 222 452 196.5 405.5 c 128,-1,45
 171 359 171 359 171 270 c 0,46,47
 171 177 171 177 197.5 133 c 128,-1,48
 224 89 224 89 277 89 c 0,36,37
EndSplineSet
Validated: 1
EndChar

StartChar: beta
Encoding: 946 946 382
Width: 600
GlyphClass: 2
Flags: W
AnchorPoint: "Anchor-4" 580 765 basechar 0
AnchorPoint: "Anchor-3" 300 765 basechar 0
AnchorPoint: "Anchor-0" 355 0 basechar 0
LayerCount: 2
Fore
SplineSet
64 -240 m 1,0,-1
 64 535 l 2,1,2
 64 616 64 616 95.5 666.5 c 128,-1,3
 127 717 127 717 180.5 741 c 128,-1,4
 234 765 234 765 302 765 c 0,5,6
 368 765 368 765 419 743.5 c 128,-1,7
 470 722 470 722 499.5 679.5 c 128,-1,8
 529 637 529 637 529 573 c 0,9,10
 529 501 529 501 490.5 459 c 128,-1,11
 452 417 452 417 382 405 c 1,12,-1
 382 402 l 1,13,14
 470 392 470 392 517.5 345 c 128,-1,15
 565 298 565 298 565 207 c 0,16,17
 565 104 565 104 500.5 47 c 128,-1,18
 436 -10 436 -10 328 -10 c 0,19,20
 276 -10 276 -10 244 -0.5 c 128,-1,21
 212 9 212 9 187 24 c 1,22,-1
 187 -240 l 1,23,-1
 64 -240 l 1,0,-1
302 88 m 0,24,25
 374 88 374 88 407 122 c 128,-1,26
 440 156 440 156 440 218 c 0,27,28
 440 287 440 287 398 316.5 c 128,-1,29
 356 346 356 346 292 346 c 2,30,-1
 249 346 l 1,31,-1
 249 444 l 1,32,-1
 283 444 l 2,33,34
 346 444 346 444 376 476.5 c 128,-1,35
 406 509 406 509 406 561 c 0,36,37
 406 615 406 615 376.5 641.5 c 128,-1,38
 347 668 347 668 299 668 c 0,39,40
 268 668 268 668 243 655.5 c 128,-1,41
 218 643 218 643 202.5 612 c 128,-1,42
 187 581 187 581 187 525 c 2,43,-1
 187 126 l 1,44,45
 208 110 208 110 236 99 c 128,-1,46
 264 88 264 88 302 88 c 0,24,25
EndSplineSet
Validated: 1
EndChar

StartChar: gamma
Encoding: 947 947 383
Width: 600
GlyphClass: 2
Flags: W
AnchorPoint: "Anchor-4" 580 542 basechar 0
AnchorPoint: "Anchor-3" 309 542 basechar 0
AnchorPoint: "Anchor-0" 307 -240 basechar 0
LayerCount: 2
Fore
SplineSet
192 -240 m 1,0,1
 192 -212 192 -212 198.5 -170 c 128,-1,2
 205 -128 205 -128 216 -81.5 c 128,-1,3
 227 -35 227 -35 241 6 c 1,4,-1
 29 542 l 1,5,-1
 157 542 l 1,6,-1
 251 283 l 2,7,8
 260 256 260 256 271 221.5 c 128,-1,9
 282 187 282 187 290.5 155.5 c 128,-1,10
 299 124 299 124 302 107 c 1,11,-1
 306 107 l 1,12,13
 308 122 308 122 315.5 152 c 128,-1,14
 323 182 323 182 332.5 215.5 c 128,-1,15
 342 249 342 249 352 277 c 2,16,-1
 444 542 l 1,17,-1
 570 542 l 1,18,-1
 371 11 l 2,19,20
 356 -30 356 -30 345 -75 c 128,-1,21
 334 -120 334 -120 328 -163 c 128,-1,22
 322 -206 322 -206 322 -240 c 1,23,-1
 192 -240 l 1,0,1
EndSplineSet
Validated: 1
EndChar

StartChar: delta
Encoding: 948 948 384
Width: 600
GlyphClass: 2
Flags: W
AnchorPoint: "Anchor-3" 337 763 basechar 0
AnchorPoint: "Anchor-0" 306 0 basechar 0
LayerCount: 2
Fore
SplineSet
298 -10 m 0,0,1
 224 -10 224 -10 167.5 16 c 128,-1,2
 111 42 111 42 78.5 92 c 128,-1,3
 46 142 46 142 46 213 c 0,4,5
 46 280 46 280 71.5 327.5 c 128,-1,6
 97 375 97 375 141.5 405 c 128,-1,7
 186 435 186 435 242 452 c 1,8,9
 192 482 192 482 157.5 522 c 128,-1,10
 123 562 123 562 123 617 c 0,11,12
 123 688 123 688 180.5 725.5 c 128,-1,13
 238 763 238 763 328 763 c 0,14,15
 392 763 392 763 443 747.5 c 128,-1,16
 494 732 494 732 541 709 c 1,17,-1
 491 620 l 1,18,19
 451 640 451 640 408.5 654.5 c 128,-1,20
 366 669 366 669 323 669 c 0,21,22
 279 669 279 669 260.5 651.5 c 128,-1,23
 242 634 242 634 242 611 c 0,24,25
 242 578 242 578 277 552 c 128,-1,26
 312 526 312 526 375 492 c 0,27,28
 464 444 464 444 509 386 c 128,-1,29
 554 328 554 328 554 243 c 0,30,31
 554 116 554 116 484 53 c 128,-1,32
 414 -10 414 -10 298 -10 c 0,0,1
298 89 m 0,33,34
 360 89 360 89 394.5 127.5 c 128,-1,35
 429 166 429 166 429 237 c 0,36,37
 429 297 429 297 399.5 335.5 c 128,-1,38
 370 374 370 374 322 401 c 1,39,40
 288 392 288 392 253.5 371 c 128,-1,41
 219 350 219 350 195.5 313 c 128,-1,42
 172 276 172 276 172 218 c 0,43,44
 172 161 172 161 205.5 125 c 128,-1,45
 239 89 239 89 298 89 c 0,33,34
EndSplineSet
Validated: 1
EndChar

StartChar: epsilon
Encoding: 949 949 385
Width: 600
GlyphClass: 2
Flags: W
AnchorPoint: "Anchor-3" 300 542 basechar 0
AnchorPoint: "Anchor-0" 326 0 basechar 0
LayerCount: 2
Fore
SplineSet
336 -10 m 0,0,1
 206 -10 206 -10 146.5 34 c 128,-1,2
 87 78 87 78 87 149 c 0,3,4
 87 209 87 209 123 238 c 128,-1,5
 159 267 159 267 214 280 c 1,6,-1
 214 285 l 1,7,8
 165 298 165 298 138.5 329 c 128,-1,9
 112 360 112 360 112 409 c 256,10,11
 112 458 112 458 141.5 489.5 c 128,-1,12
 171 521 171 521 221.5 536.5 c 128,-1,13
 272 552 272 552 336 552 c 0,14,15
 393 552 393 552 443.5 541 c 128,-1,16
 494 530 494 530 535 512 c 1,17,-1
 494 421 l 1,18,19
 460 436 460 436 423 447 c 128,-1,20
 386 458 386 458 338 458 c 0,21,22
 224 458 224 458 224 396 c 0,23,24
 224 358 224 358 260 342.5 c 128,-1,25
 296 327 296 327 366 327 c 2,26,-1
 433 327 l 1,27,-1
 433 237 l 1,28,-1
 355 237 l 2,29,30
 278 237 278 237 243.5 217.5 c 128,-1,31
 209 198 209 198 209 160 c 0,32,33
 209 86 209 86 344 86 c 0,34,35
 402 86 402 86 450.5 99 c 128,-1,36
 499 112 499 112 533 128 c 1,37,-1
 533 28 l 1,38,39
 498 11 498 11 449 0.5 c 128,-1,40
 400 -10 400 -10 336 -10 c 0,0,1
EndSplineSet
Validated: 1
EndChar

StartChar: zeta
Encoding: 950 950 386
Width: 600
GlyphClass: 2
Flags: W
AnchorPoint: "Anchor-3" 339 760 basechar 0
AnchorPoint: "Anchor-0" 337 -189 basechar 0
LayerCount: 2
Fore
SplineSet
345 -189 m 1,0,1
 372 -153 372 -153 392 -120.5 c 128,-1,2
 412 -88 412 -88 412 -57 c 0,3,4
 412 -32 412 -32 392 -20 c 128,-1,5
 372 -8 372 -8 310 4 c 0,6,7
 253 16 253 16 206.5 39.5 c 128,-1,8
 160 63 160 63 132.5 107.5 c 128,-1,9
 105 152 105 152 105 226 c 0,10,11
 105 318 105 318 144.5 394.5 c 128,-1,12
 184 471 184 471 249 539.5 c 128,-1,13
 314 608 314 608 391 673 c 1,14,15
 374 670 374 670 336.5 668.5 c 128,-1,16
 299 667 299 667 266 667 c 2,17,-1
 133 667 l 1,18,-1
 133 760 l 1,19,-1
 531 760 l 1,20,-1
 531 681 l 1,21,22
 430 597 430 597 370 529.5 c 128,-1,23
 310 462 310 462 280 408 c 128,-1,24
 250 354 250 354 240.5 311.5 c 128,-1,25
 231 269 231 269 231 236 c 0,26,27
 231 182 231 182 248 155.5 c 128,-1,28
 265 129 265 129 298.5 116.5 c 128,-1,29
 332 104 332 104 382 94 c 0,30,31
 463 77 463 77 497.5 47.5 c 128,-1,32
 532 18 532 18 532 -28 c 0,33,34
 532 -72 532 -72 512 -114 c 128,-1,35
 492 -156 492 -156 467 -189 c 1,36,-1
 345 -189 l 1,0,1
EndSplineSet
Validated: 1
EndChar

StartChar: eta
Encoding: 951 951 387
Width: 600
GlyphClass: 2
Flags: W
AnchorPoint: "Anchor-4" 580 542 basechar 0
AnchorPoint: "Anchor-3" 300 542 basechar 0
AnchorPoint: "Anchor-0" 300 -242 basechar 0
LayerCount: 2
Fore
SplineSet
64 0 m 1,0,-1
 64 542 l 1,1,-1
 160 542 l 1,2,-1
 180 469 l 1,3,-1
 187 469 l 1,4,5
 211 511 211 511 254.5 531.5 c 128,-1,6
 298 552 298 552 356 552 c 0,7,8
 443 552 443 552 492 503 c 128,-1,9
 541 454 541 454 541 357 c 2,10,-1
 541 -242 l 1,11,-1
 416 -242 l 1,12,-1
 416 328 l 2,13,14
 416 450 416 450 315 450 c 0,15,16
 247 450 247 450 218 400 c 128,-1,17
 189 350 189 350 189 264 c 2,18,-1
 189 0 l 1,19,-1
 64 0 l 1,0,-1
EndSplineSet
Validated: 1
EndChar

StartChar: theta
Encoding: 952 952 388
Width: 600
GlyphClass: 2
Flags: W
AnchorPoint: "Anchor-4" 580 765 basechar 0
AnchorPoint: "Anchor-3" 301 765 basechar 0
AnchorPoint: "Anchor-0" 299 0 basechar 0
LayerCount: 2
Fore
SplineSet
299 -10 m 0,0,1
 173 -10 173 -10 112 93 c 128,-1,2
 51 196 51 196 51 378 c 0,3,4
 51 500 51 500 75.5 586.5 c 128,-1,5
 100 673 100 673 155 719 c 128,-1,6
 210 765 210 765 299 765 c 0,7,8
 425 765 425 765 486.5 663.5 c 128,-1,9
 548 562 548 562 548 378 c 0,10,11
 548 256 548 256 523 169.5 c 128,-1,12
 498 83 498 83 443 36.5 c 128,-1,13
 388 -10 388 -10 299 -10 c 0,0,1
177 431 m 1,14,-1
 423 431 l 1,15,16
 418 551 418 551 389 612 c 128,-1,17
 360 673 360 673 299 673 c 256,18,19
 238 673 238 673 209.5 612 c 128,-1,20
 181 551 181 551 177 431 c 1,14,-1
299 82 m 0,21,22
 362 82 362 82 391.5 146 c 128,-1,23
 421 210 421 210 423 337 c 1,24,-1
 176 337 l 1,25,26
 178 211 178 211 206 146.5 c 128,-1,27
 234 82 234 82 299 82 c 0,21,22
EndSplineSet
Validated: 1
EndChar

StartChar: iota
Encoding: 953 953 389
Width: 600
GlyphClass: 2
Flags: W
AnchorPoint: "Anchor-3" 293 542 basechar 0
AnchorPoint: "Anchor-0" 393 0 basechar 0
LayerCount: 2
Fore
SplineSet
400 -10 m 0,0,1
 352 -10 352 -10 314 5 c 128,-1,2
 276 20 276 20 254 58 c 128,-1,3
 232 96 232 96 232 165 c 2,4,-1
 232 542 l 1,5,-1
 354 542 l 1,6,-1
 354 165 l 2,7,8
 354 88 354 88 424 88 c 0,9,10
 447 88 447 88 470.5 92.5 c 128,-1,11
 494 97 494 97 513 103 c 1,12,-1
 513 11 l 1,13,14
 494 2 494 2 463.5 -4 c 128,-1,15
 433 -10 433 -10 400 -10 c 0,0,1
EndSplineSet
Validated: 1
EndChar

StartChar: lambda
Encoding: 955 955 391
Width: 600
GlyphClass: 2
Flags: W
AnchorPoint: "Anchor-3" 301 766 basechar 0
AnchorPoint: "Anchor-0" 299 0 basechar 0
LayerCount: 2
Fore
SplineSet
507 -10 m 0,0,1
 457 -10 457 -10 431 16.5 c 128,-1,2
 405 43 405 43 390 88 c 2,3,-1
 337 252 l 2,4,5
 326 284 326 284 315 322 c 128,-1,6
 304 360 304 360 300 386 c 1,7,-1
 296 386 l 1,8,9
 288 354 288 354 276 318.5 c 128,-1,10
 264 283 264 283 253 256 c 2,11,-1
 154 0 l 1,12,-1
 27 0 l 1,13,-1
 246 520 l 1,14,-1
 224 579 l 2,15,16
 206 628 206 628 184 646 c 128,-1,17
 162 664 162 664 124 664 c 0,18,19
 105 664 105 664 91.5 662 c 128,-1,20
 78 660 78 660 68 658 c 1,21,-1
 68 758 l 1,22,23
 82 761 82 761 103 763.5 c 128,-1,24
 124 766 124 766 145 766 c 0,25,26
 202 766 202 766 238.5 747 c 128,-1,27
 275 728 275 728 299.5 689.5 c 128,-1,28
 324 651 324 651 342 594 c 2,29,-1
 483 165 l 2,30,31
 498 117 498 117 515 101.5 c 128,-1,32
 532 86 532 86 551 86 c 0,33,34
 566 86 566 86 583 91 c 1,35,-1
 583 4 l 1,36,37
 571 -2 571 -2 549 -6 c 128,-1,38
 527 -10 527 -10 507 -10 c 0,0,1
EndSplineSet
Validated: 1
EndChar

StartChar: uni03BC
Encoding: 956 956 392
Width: 600
GlyphClass: 2
Flags: W
AnchorPoint: "Anchor-4" 580 542 basechar 0
AnchorPoint: "Anchor-3" 300 542 basechar 0
AnchorPoint: "Anchor-2" 540 10 basechar 0
AnchorPoint: "Anchor-0" 300 -240 basechar 0
LayerCount: 2
Fore
SplineSet
244 -10 m 0,0,1
 211 -10 211 -10 184 -3 c 1,2,-1
 184 -240 l 1,3,-1
 59 -240 l 1,4,-1
 59 542 l 1,5,-1
 184 542 l 1,6,-1
 184 214 l 2,7,8
 184 156 184 156 205.5 124 c 128,-1,9
 227 92 227 92 283 92 c 0,10,11
 334 92 334 92 361.5 114.5 c 128,-1,12
 389 137 389 137 400 178.5 c 128,-1,13
 411 220 411 220 411 278 c 2,14,-1
 411 542 l 1,15,-1
 536 542 l 1,16,-1
 536 0 l 1,17,-1
 440 0 l 1,18,-1
 420 71 l 1,19,-1
 413 71 l 1,20,21
 388 30 388 30 344 10 c 128,-1,22
 300 -10 300 -10 244 -10 c 0,0,1
EndSplineSet
Validated: 1
EndChar

StartChar: nu
Encoding: 957 957 393
Width: 600
GlyphClass: 2
Flags: W
AnchorPoint: "Anchor-3" 305 542 basechar 0
AnchorPoint: "Anchor-0" 309 0 basechar 0
LayerCount: 2
Fore
SplineSet
229 0 m 1,0,-1
 48 542 l 1,1,-1
 173 542 l 1,2,-1
 264 245 l 2,3,4
 270 226 270 226 277 200 c 128,-1,5
 284 174 284 174 291 148.5 c 128,-1,6
 298 123 298 123 303 106 c 1,7,-1
 307 106 l 1,8,9
 369 190 369 190 393.5 294.5 c 128,-1,10
 418 399 418 399 418 542 c 1,11,-1
 541 542 l 1,12,13
 541 436 541 436 524 344 c 128,-1,14
 507 252 507 252 464.5 168 c 128,-1,15
 422 84 422 84 346 0 c 1,16,-1
 229 0 l 1,0,-1
EndSplineSet
Validated: 1
EndChar

StartChar: xi
Encoding: 958 958 394
Width: 600
GlyphClass: 2
Flags: W
AnchorPoint: "Anchor-3" 339 760 basechar 0
AnchorPoint: "Anchor-0" 337 -189 basechar 0
LayerCount: 2
Fore
SplineSet
348 -189 m 1,0,1
 374 -154 374 -154 394 -119 c 128,-1,2
 414 -84 414 -84 414 -56 c 0,3,4
 414 -27 414 -27 388 -16.5 c 128,-1,5
 362 -6 362 -6 311 4 c 0,6,7
 288 9 288 9 253.5 19.5 c 128,-1,8
 219 30 219 30 184.5 51 c 128,-1,9
 150 72 150 72 127 109.5 c 128,-1,10
 104 147 104 147 104 206 c 0,11,12
 104 282 104 282 144 327.5 c 128,-1,13
 184 373 184 373 243 395 c 1,14,-1
 243 400 l 1,15,16
 193 414 193 414 164.5 445 c 128,-1,17
 136 476 136 476 136 529 c 0,18,19
 136 590 136 590 173.5 623 c 128,-1,20
 211 656 211 656 277 673 c 1,21,22
 256 671 256 671 225 669 c 128,-1,23
 194 667 194 667 165 667 c 2,24,-1
 133 667 l 1,25,-1
 133 760 l 1,26,-1
 506 760 l 1,27,-1
 506 672 l 1,28,-1
 474 672 l 2,29,30
 418 672 418 672 368.5 657 c 128,-1,31
 319 642 319 642 288 611 c 128,-1,32
 257 580 257 580 257 532 c 0,33,34
 257 488 257 488 289.5 464.5 c 128,-1,35
 322 441 322 441 404 441 c 2,36,-1
 486 441 l 1,37,-1
 486 354 l 1,38,-1
 402 354 l 2,39,40
 315 354 315 354 272.5 318 c 128,-1,41
 230 282 230 282 230 217 c 0,42,43
 230 173 230 173 248.5 150.5 c 128,-1,44
 267 128 267 128 301.5 116 c 128,-1,45
 336 104 336 104 384 93 c 0,46,47
 459 75 459 75 495.5 49 c 128,-1,48
 532 23 532 23 532 -29 c 0,49,50
 532 -72 532 -72 512 -114 c 128,-1,51
 492 -156 492 -156 468 -189 c 1,52,-1
 348 -189 l 1,0,1
EndSplineSet
Validated: 1
EndChar

StartChar: pi
Encoding: 960 960 396
Width: 600
GlyphClass: 2
Flags: W
AnchorPoint: "Anchor-3" 299 542 basechar 0
AnchorPoint: "Anchor-0" 299 0 basechar 0
LayerCount: 2
Fore
SplineSet
483 -10 m 0,0,1
 424 -10 424 -10 389.5 25.5 c 128,-1,2
 355 61 355 61 355 136 c 2,3,-1
 355 446 l 1,4,-1
 240 446 l 1,5,-1
 240 0 l 1,6,-1
 122 0 l 1,7,-1
 122 446 l 1,8,-1
 19 446 l 1,9,-1
 19 499 l 1,10,-1
 100 542 l 1,11,-1
 581 542 l 1,12,-1
 581 446 l 1,13,-1
 473 446 l 1,14,-1
 473 142 l 2,15,16
 473 113 473 113 486 100.5 c 128,-1,17
 499 88 499 88 521 88 c 0,18,19
 550 88 550 88 574 101 c 1,20,-1
 574 11 l 1,21,22
 561 3 561 3 536.5 -3.5 c 128,-1,23
 512 -10 512 -10 483 -10 c 0,0,1
EndSplineSet
Validated: 1
EndChar

StartChar: rho
Encoding: 961 961 397
Width: 600
GlyphClass: 2
Flags: W
AnchorPoint: "Anchor-3" 312 542 basechar 0
AnchorPoint: "Anchor-0" 300 -240 basechar 0
LayerCount: 2
Fore
SplineSet
64 -240 m 1,0,-1
 64 274 l 2,1,2
 64 410 64 410 130.5 481 c 128,-1,3
 197 552 197 552 314 552 c 0,4,5
 384 552 384 552 438 519 c 128,-1,6
 492 486 492 486 523 423.5 c 128,-1,7
 554 361 554 361 554 271 c 0,8,9
 554 135 554 135 493 62.5 c 128,-1,10
 432 -10 432 -10 328 -10 c 0,11,12
 288 -10 288 -10 252 1 c 128,-1,13
 216 12 216 12 188 31 c 1,14,-1
 181 31 l 1,15,16
 185 12 185 12 186.5 -22.5 c 128,-1,17
 188 -57 188 -57 188 -101 c 2,18,-1
 188 -240 l 1,19,-1
 64 -240 l 1,0,-1
310 89 m 0,20,21
 373 89 373 89 401 133.5 c 128,-1,22
 429 178 429 178 429 271 c 0,23,24
 429 365 429 365 401 408.5 c 128,-1,25
 373 452 373 452 311 452 c 0,26,27
 248 452 248 452 218 409.5 c 128,-1,28
 188 367 188 367 188 278 c 2,29,-1
 188 134 l 1,30,31
 238 89 238 89 310 89 c 0,20,21
EndSplineSet
Validated: 1
EndChar

StartChar: sigma1
Encoding: 962 962 398
Width: 600
GlyphClass: 2
Flags: W
AnchorPoint: "Anchor-3" 353 542 basechar 0
AnchorPoint: "Anchor-0" 341 -193 basechar 0
LayerCount: 2
Fore
SplineSet
333 -189 m 1,0,1
 359 -153 359 -153 379.5 -112.5 c 128,-1,2
 400 -72 400 -72 400 -46 c 0,3,4
 400 -21 400 -21 376 -11.5 c 128,-1,5
 352 -2 352 -2 296 11 c 0,6,7
 230 26 230 26 180.5 53 c 128,-1,8
 131 80 131 80 103.5 131 c 128,-1,9
 76 182 76 182 76 268 c 0,10,11
 76 367 76 367 111 429.5 c 128,-1,12
 146 492 146 492 208.5 522 c 128,-1,13
 271 552 271 552 353 552 c 0,14,15
 447 552 447 552 517 517 c 1,16,-1
 481 422 l 1,17,18
 449 437 449 437 417.5 443.5 c 128,-1,19
 386 450 386 450 357 450 c 0,20,21
 273 450 273 450 237 401 c 128,-1,22
 201 352 201 352 201 264 c 0,23,24
 201 204 201 204 218.5 173.5 c 128,-1,25
 236 143 236 143 273 128.5 c 128,-1,26
 310 114 310 114 368 100 c 0,27,28
 443 83 443 83 480 55 c 128,-1,29
 517 27 517 27 517 -26 c 0,30,31
 517 -69 517 -69 497 -112.5 c 128,-1,32
 477 -156 477 -156 453 -189 c 1,33,-1
 333 -189 l 1,0,1
EndSplineSet
Validated: 1
EndChar

StartChar: sigma
Encoding: 963 963 399
Width: 600
GlyphClass: 2
Flags: W
AnchorPoint: "Anchor-3" 294 542 basechar 0
AnchorPoint: "Anchor-0" 294 0 basechar 0
LayerCount: 2
Fore
SplineSet
294 -10 m 0,0,1
 180 -10 180 -10 113 59.5 c 128,-1,2
 46 129 46 129 46 263 c 0,3,4
 46 362 46 362 81 423.5 c 128,-1,5
 116 485 116 485 180 513.5 c 128,-1,6
 244 542 244 542 332 542 c 2,7,-1
 586 542 l 1,8,-1
 586 449 l 1,9,-1
 463 449 l 1,10,11
 538 379 538 379 538 255 c 0,12,13
 538 134 538 134 475.5 62 c 128,-1,14
 413 -10 413 -10 294 -10 c 0,0,1
293 89 m 0,15,16
 356 89 356 89 384.5 134 c 128,-1,17
 413 179 413 179 413 253 c 0,18,19
 413 312 413 312 397.5 361 c 128,-1,20
 382 410 382 410 354 449 c 1,21,-1
 327 449 l 2,22,23
 248 449 248 449 210 407.5 c 128,-1,24
 172 366 172 366 172 265 c 0,25,26
 172 186 172 186 200 137.5 c 128,-1,27
 228 89 228 89 293 89 c 0,15,16
EndSplineSet
Validated: 1
EndChar

StartChar: tau
Encoding: 964 964 400
Width: 600
GlyphClass: 2
Flags: W
AnchorPoint: "Anchor-3" 309 542 basechar 0
AnchorPoint: "Anchor-0" 349 0 basechar 0
LayerCount: 2
Fore
SplineSet
385 -10 m 0,0,1
 336 -10 336 -10 296 5 c 128,-1,2
 256 20 256 20 232.5 57.5 c 128,-1,3
 209 95 209 95 209 164 c 2,4,-1
 209 446 l 1,5,-1
 62 446 l 1,6,-1
 62 498 l 1,7,-1
 143 542 l 1,8,-1
 532 542 l 1,9,-1
 532 446 l 1,10,-1
 331 446 l 1,11,-1
 331 168 l 2,12,13
 331 125 331 125 353 106 c 128,-1,14
 375 87 375 87 410 87 c 0,15,16
 433 87 433 87 456.5 91.5 c 128,-1,17
 480 96 480 96 500 102 c 1,18,-1
 500 11 l 1,19,20
 481 2 481 2 450.5 -4 c 128,-1,21
 420 -10 420 -10 385 -10 c 0,0,1
EndSplineSet
Validated: 1
EndChar

StartChar: upsilon
Encoding: 965 965 401
Width: 600
GlyphClass: 2
Flags: W
AnchorPoint: "Anchor-3" 300 542 basechar 0
AnchorPoint: "Anchor-0" 303 0 basechar 0
LayerCount: 2
Fore
SplineSet
299 -9 m 0,0,1
 208 -9 208 -9 156.5 24.5 c 128,-1,2
 105 58 105 58 84.5 116 c 128,-1,3
 64 174 64 174 64 246 c 2,4,-1
 64 542 l 1,5,-1
 187 542 l 1,6,-1
 187 245 l 2,7,8
 187 167 187 167 215.5 128 c 128,-1,9
 244 89 244 89 305 89 c 0,10,11
 371 89 371 89 403 138 c 128,-1,12
 435 187 435 187 435 298 c 0,13,14
 435 365 435 365 426.5 421.5 c 128,-1,15
 418 478 418 478 402 542 c 1,16,-1
 525 542 l 1,17,18
 541 479 541 479 549.5 422.5 c 128,-1,19
 558 366 558 366 558 294 c 0,20,21
 558 138 558 138 492 64.5 c 128,-1,22
 426 -9 426 -9 299 -9 c 0,0,1
EndSplineSet
Validated: 1
EndChar

StartChar: phi
Encoding: 966 966 402
Width: 600
GlyphClass: 2
Flags: W
AnchorPoint: "Anchor-3" 297 542 basechar 0
AnchorPoint: "Anchor-0" 297 -240 basechar 0
LayerCount: 2
Fore
SplineSet
243 -240 m 1,0,-1
 243 -7 l 1,1,2
 151 1 151 1 98.5 71.5 c 128,-1,3
 46 142 46 142 46 268 c 0,4,5
 46 428 46 428 139 549 c 1,6,-1
 219 499 l 1,7,8
 187 450 187 450 171 392 c 128,-1,9
 155 334 155 334 153 270 c 0,10,11
 153 185 153 185 176 140.5 c 128,-1,12
 199 96 199 96 243 85 c 1,13,-1
 243 358 l 2,14,15
 243 454 243 454 279.5 502.5 c 128,-1,16
 316 551 316 551 383 551 c 0,17,18
 443 551 443 551 480.5 516.5 c 128,-1,19
 518 482 518 482 536 423 c 128,-1,20
 554 364 554 364 554 291 c 0,21,22
 554 163 554 163 502 83.5 c 128,-1,23
 450 4 450 4 350 -7 c 1,24,-1
 350 -240 l 1,25,-1
 243 -240 l 1,0,-1
350 85 m 1,26,27
 394 92 394 92 420 142.5 c 128,-1,28
 446 193 446 193 446 298 c 0,29,30
 446 370 446 370 432 414.5 c 128,-1,31
 418 459 418 459 389 459 c 0,32,33
 366 459 366 459 358 432.5 c 128,-1,34
 350 406 350 406 350 359 c 2,35,-1
 350 85 l 1,26,27
EndSplineSet
Validated: 1
EndChar

StartChar: chi
Encoding: 967 967 403
Width: 600
GlyphClass: 2
Flags: W
AnchorPoint: "Anchor-4" 580 542 basechar 0
AnchorPoint: "Anchor-3" 306 542 basechar 0
AnchorPoint: "Anchor-0" 306 -245 basechar 0
LayerCount: 2
Fore
SplineSet
493 -245 m 0,0,1
 444 -245 444 -245 414 -228.5 c 128,-1,2
 384 -212 384 -212 367 -181.5 c 128,-1,3
 350 -151 350 -151 339 -110 c 2,4,-1
 295 64 l 1,5,-1
 156 -240 l 1,6,-1
 29 -240 l 1,7,-1
 244 185 l 1,8,-1
 193 372 l 2,9,10
 182 412 182 412 162 429 c 128,-1,11
 142 446 142 446 117 446 c 0,12,13
 110 446 110 446 97.5 444 c 128,-1,14
 85 442 85 442 73 438 c 1,15,-1
 73 535 l 1,16,17
 91 540 91 540 109.5 543.5 c 128,-1,18
 128 547 128 547 153 547 c 0,19,20
 213 547 213 547 242.5 517 c 128,-1,21
 272 487 272 487 292 412 c 2,22,-1
 324 289 l 1,23,-1
 436 542 l 1,24,-1
 561 542 l 1,25,-1
 371 168 l 1,26,-1
 439 -71 l 2,27,28
 450 -111 450 -111 470.5 -127 c 128,-1,29
 491 -143 491 -143 525 -143 c 0,30,31
 534 -143 534 -143 545.5 -142 c 128,-1,32
 557 -141 557 -141 570 -138 c 1,33,-1
 570 -233 l 1,34,35
 554 -238 554 -238 535 -241.5 c 128,-1,36
 516 -245 516 -245 493 -245 c 0,0,1
EndSplineSet
Validated: 1
EndChar

StartChar: psi
Encoding: 968 968 404
Width: 600
GlyphClass: 2
Flags: W
AnchorPoint: "Anchor-3" 306 759 basechar 0
AnchorPoint: "Anchor-0" 306 -240 basechar 0
LayerCount: 2
Fore
SplineSet
253 -240 m 1,0,-1
 253 -9 l 1,1,2
 162 -5 162 -5 113 57.5 c 128,-1,3
 64 120 64 120 64 251 c 2,4,-1
 64 542 l 1,5,-1
 172 542 l 1,6,-1
 172 257 l 2,7,8
 172 174 172 174 191 132.5 c 128,-1,9
 210 91 210 91 253 86 c 1,10,-1
 253 759 l 1,11,-1
 357 759 l 1,12,-1
 357 86 l 1,13,14
 405 92 405 92 425.5 139 c 128,-1,15
 446 186 446 186 446 286 c 0,16,17
 446 348 446 348 438 411.5 c 128,-1,18
 430 475 430 475 414 542 c 1,19,-1
 519 542 l 1,20,21
 538 468 538 468 546 406.5 c 128,-1,22
 554 345 554 345 554 286 c 0,23,24
 554 144 554 144 503.5 70.5 c 128,-1,25
 453 -3 453 -3 357 -9 c 1,26,-1
 357 -240 l 1,27,-1
 253 -240 l 1,0,-1
EndSplineSet
Validated: 1
EndChar

StartChar: omega
Encoding: 969 969 405
Width: 600
GlyphClass: 2
Flags: W
AnchorPoint: "Anchor-3" 300 542 basechar 0
AnchorPoint: "Anchor-0" 300 0 basechar 0
LayerCount: 2
Fore
SplineSet
193 -10 m 0,0,1
 122 -10 122 -10 84 60.5 c 128,-1,2
 46 131 46 131 46 267 c 0,3,4
 46 340 46 340 57.5 406 c 128,-1,5
 69 472 69 472 92 542 c 1,6,-1
 200 542 l 1,7,8
 175 474 175 474 164.5 408 c 128,-1,9
 154 342 154 342 154 261 c 0,10,11
 154 173 154 173 166.5 131.5 c 128,-1,12
 179 90 179 90 205 90 c 0,13,14
 228 90 228 90 238 123.5 c 128,-1,15
 248 157 248 157 248 229 c 2,16,-1
 248 362 l 1,17,-1
 351 362 l 1,18,-1
 351 229 l 2,19,20
 351 156 351 156 361.5 123 c 128,-1,21
 372 90 372 90 394 90 c 0,22,23
 447 90 447 90 447 260 c 0,24,25
 447 334 447 334 436.5 404 c 128,-1,26
 426 474 426 474 400 542 c 1,27,-1
 509 542 l 1,28,29
 532 474 532 474 543 406.5 c 128,-1,30
 554 339 554 339 554 269 c 0,31,32
 554 132 554 132 514.5 61 c 128,-1,33
 475 -10 475 -10 406 -10 c 0,34,35
 365 -10 365 -10 338.5 15 c 128,-1,36
 312 40 312 40 302 86 c 1,37,-1
 298 86 l 1,38,39
 276 -10 276 -10 193 -10 c 0,0,1
EndSplineSet
Validated: 1
EndChar

StartChar: afii10051
Encoding: 1026 1026 412
Width: 600
GlyphClass: 2
Flags: W
AnchorPoint: "Anchor-3" 195 714 basechar 0
AnchorPoint: "Anchor-0" 300 0 basechar 0
LayerCount: 2
Fore
SplineSet
365 -9 m 0,0,1
 342 -9 342 -9 326 -5.5 c 128,-1,2
 310 -2 310 -2 293 6 c 1,3,-1
 293 110 l 1,4,5
 308 103 308 103 321.5 98.5 c 128,-1,6
 335 94 335 94 353 94 c 0,7,8
 370 94 370 94 386.5 100.5 c 128,-1,9
 403 107 403 107 413.5 125.5 c 128,-1,10
 424 144 424 144 424 181 c 2,11,-1
 424 252 l 2,12,13
 424 301 424 301 397 322 c 128,-1,14
 370 343 370 343 307 343 c 2,15,-1
 230 343 l 1,16,-1
 230 0 l 1,17,-1
 107 0 l 1,18,-1
 107 610 l 1,19,-1
 0 610 l 1,20,-1
 0 714 l 1,21,-1
 405 714 l 1,22,-1
 405 610 l 1,23,-1
 230 610 l 1,24,-1
 230 448 l 1,25,-1
 314 448 l 2,26,27
 424 448 424 448 482.5 399 c 128,-1,28
 541 350 541 350 541 259 c 2,29,-1
 541 174 l 2,30,31
 541 88 541 88 492.5 39.5 c 128,-1,32
 444 -9 444 -9 365 -9 c 0,0,1
EndSplineSet
Validated: 1
EndChar

StartChar: afii10053
Encoding: 1028 1028 414
Width: 600
GlyphClass: 2
Flags: W
AnchorPoint: "Anchor-3" 375 714 basechar 0
AnchorPoint: "Anchor-0" 369 0 basechar 0
LayerCount: 2
Fore
SplineSet
367 -10 m 0,0,1
 260 -10 260 -10 186 34 c 128,-1,2
 112 78 112 78 74 158.5 c 128,-1,3
 36 239 36 239 36 350 c 256,4,5
 36 461 36 461 74.5 545 c 128,-1,6
 113 629 113 629 187.5 676.5 c 128,-1,7
 262 724 262 724 372 724 c 0,8,9
 473 724 473 724 561 681 c 1,10,-1
 526 583 l 1,11,12
 490 602 490 602 452.5 612.5 c 128,-1,13
 415 623 415 623 374 623 c 0,14,15
 306 623 306 623 261.5 596 c 128,-1,16
 217 569 217 569 192.5 522.5 c 128,-1,17
 168 476 168 476 160 418 c 1,18,-1
 466 418 l 1,19,-1
 466 320 l 1,20,-1
 159 320 l 1,21,22
 162 254 162 254 186 203 c 128,-1,23
 210 152 210 152 258 122.5 c 128,-1,24
 306 93 306 93 380 93 c 0,25,26
 424 93 424 93 463 103 c 128,-1,27
 502 113 502 113 538 129 c 1,28,-1
 538 24 l 1,29,30
 501 7 501 7 457 -1.5 c 128,-1,31
 413 -10 413 -10 367 -10 c 0,0,1
EndSplineSet
Validated: 1
EndChar

StartChar: afii10058
Encoding: 1033 1033 419
Width: 600
GlyphClass: 2
Flags: W
AnchorPoint: "Anchor-3" 254 714 basechar 0
AnchorPoint: "Anchor-0" 300 0 basechar 0
LayerCount: 2
Fore
SplineSet
64 -9 m 0,0,1
 46 -9 46 -9 33 -6.5 c 128,-1,2
 20 -4 20 -4 10 0 c 1,3,-1
 10 92 l 1,4,5
 17 88 17 88 24 86 c 128,-1,6
 31 84 31 84 41 84 c 0,7,8
 62 84 62 84 73 107 c 128,-1,9
 84 130 84 130 91 185 c 0,10,11
 95 216 95 216 100 292.5 c 128,-1,12
 105 369 105 369 110.5 477.5 c 128,-1,13
 116 586 116 586 121 714 c 1,14,-1
 384 714 l 1,15,-1
 384 428 l 1,16,-1
 408 428 l 2,17,18
 508 428 508 428 552 374 c 128,-1,19
 596 320 596 320 596 217 c 0,20,21
 596 113 596 113 548.5 56.5 c 128,-1,22
 501 0 501 0 407 0 c 2,23,-1
 284 0 l 1,24,-1
 284 610 l 1,25,-1
 215 610 l 1,26,27
 208 446 208 446 200 323 c 128,-1,28
 192 200 192 200 184 139 c 0,29,30
 173 65 173 65 145 28 c 128,-1,31
 117 -9 117 -9 64 -9 c 0,0,1
384 97 m 1,32,-1
 414 97 l 2,33,34
 456 97 456 97 474.5 126.5 c 128,-1,35
 493 156 493 156 493 215 c 0,36,37
 493 275 493 275 475 303 c 128,-1,38
 457 331 457 331 412 331 c 2,39,-1
 384 331 l 1,40,-1
 384 97 l 1,32,-1
EndSplineSet
Validated: 1
EndChar

StartChar: afii10059
Encoding: 1034 1034 420
Width: 600
GlyphClass: 2
Flags: W
AnchorPoint: "Anchor-3" 211 714 basechar 0
AnchorPoint: "Anchor-0" 300 0 basechar 0
LayerCount: 2
Fore
SplineSet
44 0 m 1,0,-1
 44 714 l 1,1,-1
 157 714 l 1,2,-1
 157 429 l 1,3,-1
 264 429 l 1,4,-1
 264 714 l 1,5,-1
 378 714 l 1,6,-1
 378 430 l 1,7,-1
 397 430 l 2,8,9
 498 430 498 430 547 376 c 128,-1,10
 596 322 596 322 596 219 c 0,11,12
 596 115 596 115 546.5 57.5 c 128,-1,13
 497 0 497 0 403 0 c 2,14,-1
 264 0 l 1,15,-1
 264 332 l 1,16,-1
 157 332 l 1,17,-1
 157 0 l 1,18,-1
 44 0 l 1,0,-1
378 97 m 1,19,-1
 399 97 l 2,20,21
 483 97 483 97 483 217 c 0,22,23
 483 277 483 277 461.5 304.5 c 128,-1,24
 440 332 440 332 396 332 c 2,25,-1
 378 332 l 1,26,-1
 378 97 l 1,19,-1
EndSplineSet
Validated: 1
EndChar

StartChar: afii10060
Encoding: 1035 1035 421
Width: 600
GlyphClass: 2
Flags: W
AnchorPoint: "Anchor-3" 210 714 basechar 0
AnchorPoint: "Anchor-0" 327 0 basechar 0
LayerCount: 2
Fore
SplineSet
107 0 m 1,0,-1
 107 609 l 1,1,-1
 0 609 l 1,2,-1
 0 714 l 1,3,-1
 407 714 l 1,4,-1
 407 609 l 1,5,-1
 231 609 l 1,6,-1
 231 448 l 1,7,-1
 321 448 l 2,8,9
 408 448 408 448 456 425 c 128,-1,10
 504 402 504 402 522.5 360 c 128,-1,11
 541 318 541 318 541 261 c 2,12,-1
 541 0 l 1,13,-1
 417 0 l 1,14,-1
 417 244 l 2,15,16
 417 272 417 272 410 294.5 c 128,-1,17
 403 317 403 317 381 330 c 128,-1,18
 359 343 359 343 313 343 c 2,19,-1
 231 343 l 1,20,-1
 231 0 l 1,21,-1
 107 0 l 1,0,-1
EndSplineSet
Validated: 1
EndChar

StartChar: afii10145
Encoding: 1039 1039 424
Width: 600
GlyphClass: 2
Flags: W
AnchorPoint: "Anchor-3" 300 714 basechar 0
AnchorPoint: "Anchor-0" 300 -202 basechar 0
LayerCount: 2
Fore
SplineSet
245 -202 m 1,0,-1
 245 0 l 1,1,-1
 54 0 l 1,2,-1
 54 714 l 1,3,-1
 178 714 l 1,4,-1
 178 104 l 1,5,-1
 423 104 l 1,6,-1
 423 714 l 1,7,-1
 546 714 l 1,8,-1
 546 0 l 1,9,-1
 355 0 l 1,10,-1
 355 -202 l 1,11,-1
 245 -202 l 1,0,-1
EndSplineSet
Validated: 1
EndChar

StartChar: afii10018
Encoding: 1041 1041 426
Width: 600
GlyphClass: 2
Flags: W
AnchorPoint: "Anchor-3" 300 714 basechar 0
AnchorPoint: "Anchor-0" 300 0 basechar 0
LayerCount: 2
Fore
SplineSet
86 0 m 1,0,-1
 86 714 l 1,1,-1
 507 714 l 1,2,-1
 507 610 l 1,3,-1
 209 610 l 1,4,-1
 209 428 l 1,5,-1
 296 428 l 2,6,7
 388 428 388 428 445 401.5 c 128,-1,8
 502 375 502 375 528 327.5 c 128,-1,9
 554 280 554 280 554 217 c 0,10,11
 554 114 554 114 492.5 57 c 128,-1,12
 431 0 431 0 298 0 c 2,13,-1
 86 0 l 1,0,-1
209 103 m 1,14,-1
 292 103 l 2,15,16
 360 103 360 103 394.5 130 c 128,-1,17
 429 157 429 157 429 217 c 0,18,19
 429 279 429 279 392 302.5 c 128,-1,20
 355 326 355 326 282 326 c 2,21,-1
 209 326 l 1,22,-1
 209 103 l 1,14,-1
EndSplineSet
Validated: 1
EndChar

StartChar: afii10021
Encoding: 1044 1044 429
Width: 600
GlyphClass: 2
Flags: W
AnchorPoint: "Anchor-3" 354 714 basechar 0
AnchorPoint: "Anchor-0" 300 -200 basechar 0
LayerCount: 2
Fore
SplineSet
14 -200 m 1,0,-1
 14 105 l 1,1,-1
 67 105 l 1,2,3
 116 229 116 229 152 379.5 c 128,-1,4
 188 530 188 530 200 714 c 1,5,-1
 506 714 l 1,6,-1
 506 105 l 1,7,-1
 576 105 l 1,8,-1
 576 -200 l 1,9,-1
 464 -200 l 1,10,-1
 464 0 l 1,11,-1
 126 0 l 1,12,-1
 126 -200 l 1,13,-1
 14 -200 l 1,0,-1
197 105 m 1,14,-1
 390 105 l 1,15,-1
 390 609 l 1,16,-1
 302 609 l 1,17,18
 296 532 296 532 281.5 443 c 128,-1,19
 267 354 267 354 245 266.5 c 128,-1,20
 223 179 223 179 197 105 c 1,14,-1
EndSplineSet
Validated: 1
EndChar

StartChar: afii10024
Encoding: 1046 1046 431
Width: 600
GlyphClass: 2
Flags: W
AnchorPoint: "Anchor-3" 300 714 basechar 0
AnchorPoint: "Anchor-0" 300 0 basechar 0
LayerCount: 2
Fore
SplineSet
7 0 m 1,0,-1
 142 368 l 1,1,-1
 13 714 l 1,2,-1
 130 714 l 1,3,-1
 246 368 l 1,4,-1
 246 714 l 1,5,-1
 356 714 l 1,6,-1
 356 368 l 1,7,-1
 471 714 l 1,8,-1
 586 714 l 1,9,-1
 460 368 l 1,10,-1
 593 0 l 1,11,-1
 475 0 l 1,12,-1
 356 362 l 1,13,-1
 356 0 l 1,14,-1
 246 0 l 1,15,-1
 246 362 l 1,16,-1
 126 0 l 1,17,-1
 7 0 l 1,0,-1
EndSplineSet
Validated: 1
EndChar

StartChar: afii10025
Encoding: 1047 1047 432
Width: 600
GlyphClass: 2
Flags: W
AnchorPoint: "Anchor-3" 294 714 basechar 0
AnchorPoint: "Anchor-0" 300 0 basechar 0
LayerCount: 2
Fore
SplineSet
268 -10 m 0,0,1
 206 -10 206 -10 151.5 1 c 128,-1,2
 97 12 97 12 57 30 c 1,3,-1
 57 142 l 1,4,5
 98 121 98 121 151.5 107.5 c 128,-1,6
 205 94 205 94 259 94 c 0,7,8
 348 94 348 94 387 122.5 c 128,-1,9
 426 151 426 151 426 206 c 0,10,11
 426 266 426 266 382 293.5 c 128,-1,12
 338 321 338 321 240 321 c 2,13,-1
 145 321 l 1,14,-1
 145 420 l 1,15,-1
 236 420 l 2,16,17
 334 420 334 420 371.5 448 c 128,-1,18
 409 476 409 476 409 528 c 0,19,20
 409 574 409 574 380 598.5 c 128,-1,21
 351 623 351 623 286 623 c 0,22,23
 230 623 230 623 188 605.5 c 128,-1,24
 146 588 146 588 112 565 c 1,25,-1
 57 649 l 1,26,27
 104 681 104 681 159.5 702.5 c 128,-1,28
 215 724 215 724 295 724 c 0,29,30
 418 724 418 724 474.5 673 c 128,-1,31
 531 622 531 622 531 543 c 0,32,33
 531 472 531 472 492.5 431 c 128,-1,34
 454 390 454 390 381 377 c 1,35,-1
 381 373 l 1,36,37
 469 363 469 363 509.5 318.5 c 128,-1,38
 550 274 550 274 550 198 c 0,39,40
 550 137 550 137 520.5 90 c 128,-1,41
 491 43 491 43 428.5 16.5 c 128,-1,42
 366 -10 366 -10 268 -10 c 0,0,1
EndSplineSet
Validated: 1
EndChar

StartChar: afii10026
Encoding: 1048 1048 433
Width: 600
GlyphClass: 2
Flags: W
AnchorPoint: "Anchor-3" 300 714 basechar 0
AnchorPoint: "Anchor-0" 280 0 basechar 0
LayerCount: 2
Fore
SplineSet
54 0 m 1,0,-1
 54 714 l 1,1,-1
 167 714 l 1,2,-1
 167 342 l 2,3,4
 167 311 167 311 166 273 c 128,-1,5
 165 235 165 235 163.5 202.5 c 128,-1,6
 162 170 162 170 161 154 c 1,7,-1
 164 154 l 1,8,-1
 393 714 l 1,9,-1
 546 714 l 1,10,-1
 546 0 l 1,11,-1
 433 0 l 1,12,-1
 433 372 l 2,13,14
 433 406 433 406 434.5 445 c 128,-1,15
 436 484 436 484 438 517 c 128,-1,16
 440 550 440 550 442 565 c 1,17,-1
 438 565 l 1,18,-1
 207 0 l 1,19,-1
 54 0 l 1,0,-1
EndSplineSet
Validated: 1
EndChar

StartChar: afii10028
Encoding: 1050 1050 435
Width: 600
GlyphClass: 2
Flags: W
AnchorPoint: "Anchor-3" 300 714 basechar 0
AnchorPoint: "Anchor-0" 298 0 basechar 0
LayerCount: 2
Fore
SplineSet
54 0 m 1,0,-1
 54 714 l 1,1,-1
 178 714 l 1,2,-1
 178 369 l 1,3,-1
 409 714 l 1,4,-1
 547 714 l 1,5,-1
 308 370 l 1,6,-1
 560 0 l 1,7,-1
 414 0 l 1,8,-1
 178 363 l 1,9,-1
 178 0 l 1,10,-1
 54 0 l 1,0,-1
EndSplineSet
Validated: 1
EndChar

StartChar: afii10029
Encoding: 1051 1051 436
Width: 600
GlyphClass: 2
Flags: W
AnchorPoint: "Anchor-3" 380 714 basechar 0
AnchorPoint: "Anchor-0" 300 0 basechar 0
LayerCount: 2
Fore
SplineSet
80 -10 m 0,0,1
 44 -10 44 -10 14 1 c 1,2,-1
 14 103 l 1,3,4
 39 93 39 93 61 93 c 0,5,6
 95 93 95 93 113 128.5 c 128,-1,7
 131 164 131 164 142 242 c 0,8,9
 148 286 148 286 154 348.5 c 128,-1,10
 160 411 160 411 167 500.5 c 128,-1,11
 174 590 174 590 185 714 c 1,12,-1
 546 714 l 1,13,-1
 546 0 l 1,14,-1
 422 0 l 1,15,-1
 422 609 l 1,16,-1
 292 609 l 1,17,18
 282 479 282 479 273 368.5 c 128,-1,19
 264 258 264 258 253 189 c 0,20,21
 236 92 236 92 198 41 c 128,-1,22
 160 -10 160 -10 80 -10 c 0,0,1
EndSplineSet
Validated: 1
EndChar

StartChar: afii10033
Encoding: 1055 1055 440
Width: 600
GlyphClass: 2
Flags: W
AnchorPoint: "Anchor-3" 300 714 basechar 0
AnchorPoint: "Anchor-0" 300 0 basechar 0
LayerCount: 2
Fore
SplineSet
54 0 m 1,0,-1
 54 714 l 1,1,-1
 546 714 l 1,2,-1
 546 0 l 1,3,-1
 423 0 l 1,4,-1
 423 610 l 1,5,-1
 178 610 l 1,6,-1
 178 0 l 1,7,-1
 54 0 l 1,0,-1
EndSplineSet
Validated: 1
EndChar

StartChar: afii10037
Encoding: 1059 1059 444
Width: 600
GlyphClass: 2
Flags: W
AnchorPoint: "Anchor-3" 300 714 basechar 0
AnchorPoint: "Anchor-0" 200 0 basechar 0
LayerCount: 2
Fore
SplineSet
143 -10 m 0,0,1
 88 -10 88 -10 43 4 c 1,2,-1
 43 114 l 1,3,4
 64 105 64 105 88.5 101 c 128,-1,5
 113 97 113 97 136 97 c 0,6,7
 183 97 183 97 207 122 c 128,-1,8
 231 147 231 147 250 197 c 1,9,-1
 26 714 l 1,10,-1
 157 714 l 1,11,-1
 286 384 l 2,12,13
 293 367 293 367 300 344.5 c 128,-1,14
 307 322 307 322 312 299 c 1,15,-1
 317 299 l 1,16,17
 320 322 320 322 326 343 c 128,-1,18
 332 364 332 364 338 384 c 2,19,-1
 446 714 l 1,20,-1
 574 714 l 1,21,-1
 386 206 l 2,22,23
 360 135 360 135 329.5 87 c 128,-1,24
 299 39 299 39 254.5 14.5 c 128,-1,25
 210 -10 210 -10 143 -10 c 0,0,1
EndSplineSet
Validated: 1
EndChar

StartChar: afii10038
Encoding: 1060 1060 445
Width: 600
GlyphClass: 2
Flags: W
AnchorPoint: "Anchor-3" 300 714 basechar 0
AnchorPoint: "Anchor-0" 300 0 basechar 0
LayerCount: 2
Fore
SplineSet
243 -10 m 1,0,-1
 243 100 l 1,1,2
 182 102 182 102 140 125.5 c 128,-1,3
 98 149 98 149 73 187.5 c 128,-1,4
 48 226 48 226 37 274 c 128,-1,5
 26 322 26 322 26 372 c 0,6,7
 26 439 26 439 46.5 498.5 c 128,-1,8
 67 558 67 558 114.5 596 c 128,-1,9
 162 634 162 634 243 636 c 1,10,-1
 243 724 l 1,11,-1
 357 724 l 1,12,-1
 357 636 l 1,13,14
 438 634 438 634 485.5 596.5 c 128,-1,15
 533 559 533 559 553.5 499.5 c 128,-1,16
 574 440 574 440 574 373 c 0,17,18
 574 325 574 325 563.5 277 c 128,-1,19
 553 229 553 229 528 190 c 128,-1,20
 503 151 503 151 461.5 126.5 c 128,-1,21
 420 102 420 102 357 100 c 1,22,-1
 357 -10 l 1,23,-1
 243 -10 l 1,0,-1
243 198 m 1,24,-1
 243 537 l 1,25,26
 188 534 188 534 166 489 c 128,-1,27
 144 444 144 444 144 372 c 0,28,29
 144 292 144 292 167.5 246.5 c 128,-1,30
 191 201 191 201 243 198 c 1,24,-1
357 198 m 1,31,32
 409 201 409 201 432.5 247.5 c 128,-1,33
 456 294 456 294 456 371 c 0,34,35
 456 445 456 445 434 489.5 c 128,-1,36
 412 534 412 534 357 537 c 1,37,-1
 357 198 l 1,31,32
EndSplineSet
Validated: 1
EndChar

StartChar: afii10040
Encoding: 1062 1062 447
Width: 600
GlyphClass: 2
Flags: W
AnchorPoint: "Anchor-3" 300 714 basechar 0
AnchorPoint: "Anchor-0" 300 -202 basechar 0
LayerCount: 2
Fore
SplineSet
54 0 m 1,0,-1
 54 714 l 1,1,-1
 178 714 l 1,2,-1
 178 104 l 1,3,-1
 423 104 l 1,4,-1
 423 714 l 1,5,-1
 546 714 l 1,6,-1
 546 102 l 1,7,-1
 600 102 l 1,8,-1
 600 -200 l 1,9,-1
 481 -200 l 1,10,-1
 481 0 l 1,11,-1
 54 0 l 1,0,-1
EndSplineSet
Validated: 1
EndChar

StartChar: afii10041
Encoding: 1063 1063 448
Width: 600
GlyphClass: 2
Flags: W
AnchorPoint: "Anchor-3" 300 714 basechar 0
AnchorPoint: "Anchor-0" 300 0 basechar 0
LayerCount: 2
Fore
SplineSet
422 0 m 1,0,-1
 422 280 l 1,1,2
 380 261 380 261 338 250 c 128,-1,3
 296 239 296 239 244 239 c 0,4,5
 154 239 154 239 104 287 c 128,-1,6
 54 335 54 335 54 424 c 2,7,-1
 54 714 l 1,8,-1
 178 714 l 1,9,-1
 178 454 l 2,10,11
 178 398 178 398 202.5 371 c 128,-1,12
 227 344 227 344 280 344 c 0,13,14
 319 344 319 344 353.5 353.5 c 128,-1,15
 388 363 388 363 422 378 c 1,16,-1
 422 714 l 1,17,-1
 546 714 l 1,18,-1
 546 0 l 1,19,-1
 422 0 l 1,0,-1
EndSplineSet
Validated: 1
EndChar

StartChar: afii10042
Encoding: 1064 1064 449
Width: 600
GlyphClass: 2
Flags: W
AnchorPoint: "Anchor-3" 300 714 basechar 0
AnchorPoint: "Anchor-0" 300 0 basechar 0
LayerCount: 2
Fore
SplineSet
44 0 m 1,0,-1
 44 714 l 1,1,-1
 154 714 l 1,2,-1
 154 99 l 1,3,-1
 245 99 l 1,4,-1
 245 714 l 1,5,-1
 355 714 l 1,6,-1
 355 99 l 1,7,-1
 446 99 l 1,8,-1
 446 714 l 1,9,-1
 556 714 l 1,10,-1
 556 0 l 1,11,-1
 44 0 l 1,0,-1
EndSplineSet
Validated: 1
EndChar

StartChar: afii10043
Encoding: 1065 1065 450
Width: 600
GlyphClass: 2
Flags: W
AnchorPoint: "Anchor-3" 300 714 basechar 0
AnchorPoint: "Anchor-0" 300 -202 basechar 0
LayerCount: 2
Fore
SplineSet
44 0 m 1,0,-1
 44 714 l 1,1,-1
 154 714 l 1,2,-1
 154 99 l 1,3,-1
 245 99 l 1,4,-1
 245 714 l 1,5,-1
 355 714 l 1,6,-1
 355 99 l 1,7,-1
 446 99 l 1,8,-1
 446 714 l 1,9,-1
 556 714 l 1,10,-1
 556 99 l 1,11,-1
 600 99 l 1,12,-1
 600 -202 l 1,13,-1
 490 -202 l 1,14,-1
 490 0 l 1,15,-1
 44 0 l 1,0,-1
EndSplineSet
Validated: 1
EndChar

StartChar: afii10044
Encoding: 1066 1066 451
Width: 600
GlyphClass: 2
Flags: W
AnchorPoint: "Anchor-3" 300 714 basechar 0
AnchorPoint: "Anchor-0" 300 0 basechar 0
LayerCount: 2
Fore
SplineSet
106 0 m 1,0,-1
 106 609 l 1,1,-1
 0 609 l 1,2,-1
 0 714 l 1,3,-1
 229 714 l 1,4,-1
 229 428 l 1,5,-1
 318 428 l 2,6,7
 452 428 452 428 513 369.5 c 128,-1,8
 574 311 574 311 574 217 c 0,9,10
 574 116 574 116 512 58 c 128,-1,11
 450 0 450 0 319 0 c 2,12,-1
 106 0 l 1,0,-1
229 103 m 1,13,-1
 313 103 l 2,14,15
 378 103 378 103 413.5 130 c 128,-1,16
 449 157 449 157 449 217 c 0,17,18
 449 279 449 279 411 302.5 c 128,-1,19
 373 326 373 326 303 326 c 2,20,-1
 229 326 l 1,21,-1
 229 103 l 1,13,-1
EndSplineSet
Validated: 1
EndChar

StartChar: afii10045
Encoding: 1067 1067 452
Width: 600
GlyphClass: 2
Flags: W
AnchorPoint: "Anchor-3" 300 714 basechar 0
AnchorPoint: "Anchor-0" 300 0 basechar 0
LayerCount: 2
Fore
SplineSet
44 0 m 1,0,-1
 44 714 l 1,1,-1
 157 714 l 1,2,-1
 157 430 l 1,3,-1
 194 430 l 2,4,5
 298 430 298 430 348.5 376 c 128,-1,6
 399 322 399 322 399 219 c 0,7,8
 399 115 399 115 348 57.5 c 128,-1,9
 297 0 297 0 200 0 c 2,10,-1
 44 0 l 1,0,-1
442 0 m 1,11,-1
 442 714 l 1,12,-1
 556 714 l 1,13,-1
 556 0 l 1,14,-1
 442 0 l 1,11,-1
157 97 m 1,15,-1
 196 97 l 2,16,17
 286 97 286 97 286 217 c 0,18,19
 286 277 286 277 263 304.5 c 128,-1,20
 240 332 240 332 193 332 c 2,21,-1
 157 332 l 1,22,-1
 157 97 l 1,15,-1
EndSplineSet
Validated: 1
EndChar

StartChar: afii10046
Encoding: 1068 1068 453
Width: 600
GlyphClass: 2
Flags: W
AnchorPoint: "Anchor-3" 300 714 basechar 0
AnchorPoint: "Anchor-0" 300 0 basechar 0
LayerCount: 2
Fore
SplineSet
86 0 m 1,0,-1
 86 714 l 1,1,-1
 209 714 l 1,2,-1
 209 428 l 1,3,-1
 298 428 l 2,4,5
 432 428 432 428 493 369.5 c 128,-1,6
 554 311 554 311 554 217 c 0,7,8
 554 116 554 116 492 58 c 128,-1,9
 430 0 430 0 299 0 c 2,10,-1
 86 0 l 1,0,-1
209 103 m 1,11,-1
 293 103 l 2,12,13
 358 103 358 103 393.5 130 c 128,-1,14
 429 157 429 157 429 217 c 0,15,16
 429 279 429 279 391 302.5 c 128,-1,17
 353 326 353 326 283 326 c 2,18,-1
 209 326 l 1,19,-1
 209 103 l 1,11,-1
EndSplineSet
Validated: 1
EndChar

StartChar: afii10048
Encoding: 1070 1070 455
Width: 600
GlyphClass: 2
Flags: W
AnchorPoint: "Anchor-3" 300 714 basechar 0
AnchorPoint: "Anchor-0" 300 0 basechar 0
LayerCount: 2
Fore
SplineSet
49 0 m 1,0,-1
 49 714 l 1,1,-1
 153 714 l 1,2,-1
 153 421 l 1,3,-1
 229 421 l 1,4,5
 234 578 234 578 272 651.5 c 128,-1,6
 310 725 310 725 397 725 c 0,7,8
 488 725 488 725 525 638 c 128,-1,9
 562 551 562 551 562 360 c 0,10,11
 562 237 562 237 547.5 154.5 c 128,-1,12
 533 72 533 72 496.5 31 c 128,-1,13
 460 -10 460 -10 396 -10 c 0,14,15
 303 -10 303 -10 267 73.5 c 128,-1,16
 231 157 231 157 228 323 c 1,17,-1
 153 323 l 1,18,-1
 153 0 l 1,19,-1
 49 0 l 1,0,-1
395 91 m 0,20,21
 432 91 432 91 444.5 158.5 c 128,-1,22
 457 226 457 226 457 359 c 256,23,24
 457 492 457 492 444.5 558 c 128,-1,25
 432 624 432 624 396 624 c 0,26,27
 358 624 358 624 346 557 c 128,-1,28
 334 490 334 490 334 360 c 0,29,30
 334 224 334 224 346.5 157.5 c 128,-1,31
 359 91 359 91 395 91 c 0,20,21
EndSplineSet
Validated: 1
EndChar

StartChar: afii10066
Encoding: 1073 1073 458
Width: 600
GlyphClass: 2
Flags: W
AnchorPoint: "Anchor-3" 300 765 basechar 0
AnchorPoint: "Anchor-0" 300 0 basechar 0
LayerCount: 2
Fore
SplineSet
301 -10 m 0,0,1
 182 -10 182 -10 114 76 c 128,-1,2
 46 162 46 162 46 333 c 0,3,4
 46 502 46 502 106.5 599 c 128,-1,5
 167 696 167 696 308 728 c 0,6,7
 354 738 354 738 412 748 c 128,-1,8
 470 758 470 758 528 765 c 1,9,-1
 543 659 l 1,10,11
 509 655 509 655 469 649.5 c 128,-1,12
 429 644 429 644 391 638 c 128,-1,13
 353 632 353 632 325 626 c 0,14,15
 274 614 274 614 241.5 592 c 128,-1,16
 209 570 209 570 191.5 529 c 128,-1,17
 174 488 174 488 170 421 c 1,18,-1
 177 421 l 1,19,20
 196 451 196 451 239 478 c 128,-1,21
 282 505 282 505 345 505 c 0,22,23
 442 505 442 505 497 442 c 128,-1,24
 552 379 552 379 552 263 c 0,25,26
 552 129 552 129 483 59.5 c 128,-1,27
 414 -10 414 -10 301 -10 c 0,0,1
308 89 m 0,28,29
 363 89 363 89 395.5 126.5 c 128,-1,30
 428 164 428 164 428 253 c 0,31,32
 428 327 428 327 402.5 369.5 c 128,-1,33
 377 412 377 412 319 412 c 0,34,35
 282 412 282 412 251 395.5 c 128,-1,36
 220 379 220 379 198.5 357.5 c 128,-1,37
 177 336 177 336 169 319 c 1,38,39
 169 256 169 256 181.5 204 c 128,-1,40
 194 152 194 152 224.5 120.5 c 128,-1,41
 255 89 255 89 308 89 c 0,28,29
EndSplineSet
Validated: 1
Substitution2: "'locl' Localized Forms in Cyrillic lookup 19 subtable" afii10066.loclSRB
Substitution2: "'aalt' Access All Alternates lookup 0 subtable" afii10066.loclSRB
EndChar

StartChar: afii10067
Encoding: 1074 1074 459
Width: 600
GlyphClass: 2
Flags: W
AnchorPoint: "Anchor-3" 300 542 basechar 0
AnchorPoint: "Anchor-0" 300 0 basechar 0
LayerCount: 2
Fore
SplineSet
111 0 m 1,0,-1
 111 543 l 1,1,-1
 319 543 l 2,2,3
 376 543 376 543 421 529.5 c 128,-1,4
 466 516 466 516 492 485 c 128,-1,5
 518 454 518 454 518 404 c 0,6,7
 518 357 518 357 493 327 c 128,-1,8
 468 297 468 297 422 287 c 1,9,-1
 422 283 l 1,10,11
 472 276 472 276 503 244 c 128,-1,12
 534 212 534 212 534 160 c 0,13,14
 534 90 534 90 483.5 45 c 128,-1,15
 433 0 433 0 320 0 c 2,16,-1
 111 0 l 1,0,-1
225 325 m 1,17,-1
 301 325 l 2,18,19
 402 325 402 325 402 392 c 0,20,21
 402 453 402 453 313 453 c 2,22,-1
 225 453 l 1,23,-1
 225 325 l 1,17,-1
225 88 m 1,24,-1
 311 88 l 2,25,26
 360 88 360 88 388 106 c 128,-1,27
 416 124 416 124 416 167 c 0,28,29
 416 204 416 204 389 221 c 128,-1,30
 362 238 362 238 310 238 c 2,31,-1
 225 238 l 1,32,-1
 225 88 l 1,24,-1
EndSplineSet
Validated: 1
EndChar

StartChar: afii10068
Encoding: 1075 1075 460
Width: 600
GlyphClass: 2
Flags: W
AnchorPoint: "Anchor-3" 330 542 basechar 0
AnchorPoint: "Anchor-0" 300 0 basechar 0
LayerCount: 2
Fore
SplineSet
157 0 m 1,0,-1
 157 543 l 1,1,-1
 508 543 l 1,2,-1
 508 448 l 1,3,-1
 278 448 l 1,4,-1
 278 0 l 1,5,-1
 157 0 l 1,0,-1
EndSplineSet
Validated: 1
EndChar

StartChar: afii10069
Encoding: 1076 1076 461
Width: 600
GlyphClass: 2
Flags: W
AnchorPoint: "Anchor-3" 340 542 basechar 0
AnchorPoint: "Anchor-0" 300 -192 basechar 0
LayerCount: 2
Fore
SplineSet
39 -192 m 1,0,-1
 39 94 l 1,1,-1
 84 94 l 1,2,3
 117 152 117 152 139.5 225.5 c 128,-1,4
 162 299 162 299 175 380 c 128,-1,5
 188 461 188 461 192 543 c 1,6,-1
 486 543 l 1,7,-1
 486 94 l 1,8,-1
 561 94 l 1,9,-1
 561 -192 l 1,10,-1
 452 -192 l 1,11,-1
 452 0 l 1,12,-1
 148 0 l 1,13,-1
 148 -192 l 1,14,-1
 39 -192 l 1,0,-1
208 94 m 1,15,-1
 368 94 l 1,16,-1
 368 449 l 1,17,-1
 292 449 l 1,18,19
 284 355 284 355 264 262 c 128,-1,20
 244 169 244 169 208 94 c 1,15,-1
EndSplineSet
Validated: 1
EndChar

StartChar: afii10072
Encoding: 1078 1078 463
Width: 600
GlyphClass: 2
Flags: W
AnchorPoint: "Anchor-3" 300 542 basechar 0
AnchorPoint: "Anchor-0" 300 0 basechar 0
LayerCount: 2
Fore
SplineSet
7 0 m 1,0,-1
 139 285 l 1,1,-1
 20 543 l 1,2,-1
 140 543 l 1,3,-1
 247 283 l 1,4,-1
 247 543 l 1,5,-1
 352 543 l 1,6,-1
 352 283 l 1,7,-1
 461 543 l 1,8,-1
 580 543 l 1,9,-1
 461 285 l 1,10,-1
 593 0 l 1,11,-1
 469 0 l 1,12,-1
 352 279 l 1,13,-1
 352 0 l 1,14,-1
 247 0 l 1,15,-1
 247 279 l 1,16,-1
 131 0 l 1,17,-1
 7 0 l 1,0,-1
EndSplineSet
Validated: 1
EndChar

